<svg version="1.0" xmlns="http://www.w3.org/2000/svg" width="726.000000pt" height="726.000000pt" viewBox="0 0 726.000000 726.000000">
    <g transform="translate(0.000000,726.000000) scale(0.100000,-0.100000)" stroke="none">
        <path fill="#18a058" d="M3255 7239 c-112 -39 -191 -120 -230 -238 -14 -43 -17 -88 -17 -237 0 -144 -3 -186 -14 -195 -8 -6 -14 -9 -14 -6 0 3 -23 -1 -52 -9 -28 -9 -60 -17 -71 -19 -10 -3 -28 -7 -40 -11 -12 -5 -26 -8 -32 -9 -5 -1 -17 -4 -25 -7 -8 -3 -53 -19 -100 -34 -47 -15 -89 -31 -94 -36 -6 -4 -16 -8 -24 -8 -15 0 -68 -22 -114 -46 -16 -9 -28 -12 -28 -7 0 4 -4 4 -8 -2 -6 -9 -103 -58 -109 -56 -2 0 -46 -24 -99 -54 -53 -30 -100 -55 -105 -55 -5 0 -9 -3 -9 -7 0 -9 -57 -43 -71 -43 -5 0 -69 60 -142 133 -132 130 -163 152 -264 185 -76 24 -223 -4 -292 -57 -56 -42 -441 -432 -466 -471 -60 -96 -75 -246 -32 -325 6 -11 12 -25 13 -32 4 -23 60 -88 177 -205 64 -64 117 -120 117 -123 0 -4 -13 -25 -29 -48 -15 -23 -31 -52 -35 -64 -4 -13 -11 -23 -15 -23 -5 0 -14 -15 -22 -32 -7 -18 -16 -35 -19 -38 -5 -4 -82 -157 -85 -170 -1 -3 -9 -23 -19 -45 -41 -92 -103 -255 -111 -290 -1 -5 -5 -17 -8 -25 -9 -20 -47 -164 -59 -222 -6 -27 -13 -48 -17 -49 -3 0 -91 -2 -196 -3 -105 -1 -208 -8 -231 -14 -120 -35 -230 -160 -251 -287 -5 -27 -8 -185 -7 -350 1 -282 3 -303 23 -357 41 -106 113 -177 222 -220 48 -18 77 -21 249 -22 l195 -1 13 -50 c7 -27 15 -58 17 -68 2 -10 7 -27 10 -37 3 -10 7 -27 9 -37 15 -75 116 -345 128 -341 5 2 186 180 402 396 l393 393 -8 44 c-24 126 -32 424 -15 550 5 33 9 71 10 85 10 99 86 364 138 480 70 156 158 310 222 392 12 14 32 41 46 59 85 113 253 277 380 372 116 87 304 191 440 244 120 47 141 55 155 58 6 2 35 10 65 19 30 8 73 18 95 22 22 3 44 8 48 11 4 2 22 7 40 9 18 3 43 7 57 9 112 18 365 24 485 11 299 -32 547 -112 810 -260 39 -22 72 -43 75 -46 3 -3 26 -19 52 -35 27 -17 48 -33 48 -37 0 -5 5 -8 11 -8 11 0 84 -59 168 -135 41 -37 58 -54 141 -145 50 -54 142 -178 194 -258 90 -142 216 -429 241 -552 2 -8 8 -33 13 -55 6 -22 13 -53 16 -70 3 -16 7 -41 10 -55 7 -36 17 -109 21 -155 6 -61 6 -315 0 -360 -25 -201 -29 -221 -80 -405 -31 -114 -117 -310 -183 -420 -12 -19 -29 -48 -38 -65 -9 -16 -20 -32 -23 -35 -3 -3 -19 -24 -34 -48 -32 -50 -172 -217 -215 -259 -95 -90 -183 -165 -242 -206 -154 -107 -272 -173 -410 -230 -79 -33 -223 -82 -266 -92 -228 -50 -308 -60 -499 -59 -170 0 -297 10 -355 29 -14 4 -111 -87 -414 -390 -218 -218 -396 -400 -396 -405 0 -4 24 -16 53 -26 28 -9 57 -20 62 -24 6 -4 57 -22 115 -39 58 -18 116 -37 130 -41 14 -5 50 -14 80 -20 106 -23 97 -1 98 -223 0 -122 5 -203 12 -216 6 -12 8 -21 5 -21 -3 0 6 -22 20 -49 27 -53 103 -141 123 -141 7 0 12 -4 12 -9 0 -5 17 -15 38 -22 20 -6 43 -17 51 -23 10 -8 117 -11 350 -11 307 0 341 2 394 20 31 10 57 23 57 27 0 4 6 8 14 8 20 0 112 96 131 137 36 75 42 119 42 307 1 103 2 189 5 191 2 2 15 6 28 9 140 29 398 113 533 174 37 17 67 28 67 24 0 -4 4 -2 8 3 4 6 43 28 87 49 44 22 82 42 85 45 3 4 17 12 32 18 15 7 46 25 70 40 98 64 83 69 228 -76 138 -139 184 -172 270 -193 92 -23 172 -12 265 36 40 21 440 412 487 476 77 107 85 261 19 386 -12 23 -83 103 -157 178 l-136 137 19 26 c22 32 48 75 76 128 12 22 24 42 28 45 6 6 102 202 103 211 1 3 12 30 25 60 13 30 27 63 32 74 17 42 71 203 85 255 19 69 45 170 48 190 2 13 32 15 187 16 201 2 230 5 296 35 46 21 70 38 110 79 24 24 75 104 80 125 1 5 7 31 13 56 12 49 9 646 -3 688 -33 117 -150 231 -262 257 -16 3 -115 7 -219 8 -211 3 -199 -2 -216 83 -5 26 -19 80 -30 118 -12 39 -22 77 -25 85 -2 8 -4 16 -5 18 -2 1 -3 5 -5 10 -1 4 -5 14 -8 22 -4 8 -14 38 -23 65 -9 28 -21 61 -27 75 -5 14 -11 30 -12 36 -7 29 -149 311 -202 400 l-60 102 136 138 c91 92 144 155 159 187 68 144 44 300 -63 415 -114 123 -402 403 -435 424 -95 58 -234 73 -325 34 -22 -9 -42 -17 -45 -18 -13 -1 -86 -67 -191 -172 -64 -64 -124 -116 -132 -116 -9 0 -25 10 -37 22 -11 12 -20 18 -20 12 0 -5 -4 -4 -8 2 -9 13 -185 111 -277 154 -73 34 -263 111 -280 114 -5 1 -14 4 -20 7 -5 4 -37 14 -70 24 -33 10 -87 26 -120 36 -33 10 -85 23 -115 29 l-55 12 0 207 -1 206 -29 60 c-29 60 -125 165 -151 165 -8 0 -14 4 -14 8 0 5 -26 16 -57 25 -48 13 -115 16 -373 16 -293 1 -319 -1 -375 -20z"/>
        <path fill="#1e1e1e" d="M3577 5134 c-1 -1 -44 -4 -94 -8 -51 -4 -98 -8 -105 -11 -7 -2 -24 -6 -38 -9 -106 -19 -283 -79 -375 -126 -65 -34 -177 -100 -185 -109 -3 -4 -23 -18 -45 -33 -22 -15 -56 -42 -76 -60 -20 -18 -47 -43 -60 -55 -74 -66 -182 -197 -237 -288 -56 -90 -130 -249 -152 -325 -13 -41 -27 -80 -31 -86 -5 -6 -7 -13 -4 -16 3 -2 0 -20 -5 -39 -6 -19 -13 -52 -16 -74 -3 -22 -8 -51 -10 -65 -3 -14 -6 -88 -8 -165 -3 -123 7 -245 28 -345 3 -14 8 -35 10 -48 3 -12 15 -54 28 -92 l22 -71 -1037 -1037 c-570 -570 -1053 -1059 -1072 -1086 -19 -27 -35 -55 -35 -63 0 -7 -3 -13 -8 -13 -8 0 -31 -48 -37 -79 -2 -12 -6 -25 -9 -29 -21 -34 -29 -211 -14 -291 9 -51 55 -180 67 -191 3 -3 12 -17 19 -31 17 -33 116 -137 162 -171 110 -80 245 -120 388 -114 110 5 176 22 277 74 65 33 151 116 1128 1092 l1058 1058 49 -19 c27 -10 59 -20 72 -23 13 -3 32 -7 43 -10 148 -34 189 -39 350 -39 150 -1 226 7 345 34 82 19 233 70 275 92 11 6 22 12 25 12 23 4 240 133 260 155 3 3 25 21 50 41 134 108 265 260 348 404 49 86 121 250 137 315 1 3 4 12 7 20 10 24 37 146 44 195 11 70 14 116 15 215 0 101 -8 237 -16 250 -2 3 -6 26 -10 50 -22 151 -160 233 -287 171 -28 -14 -133 -111 -303 -282 -143 -144 -282 -279 -309 -301 -131 -104 -308 -135 -469 -81 -39 14 -74 28 -77 31 -3 4 -17 13 -32 21 -39 20 -109 89 -144 142 -106 157 -115 340 -26 513 31 59 78 111 328 362 160 161 298 306 307 322 8 16 14 57 15 90 0 63 -24 113 -73 154 -34 29 -172 62 -280 68 -69 4 -175 6 -178 4z"/>
    </g>
</svg>
