<svg version="1.2" xmlns="http://www.w3.org/2000/svg" viewBox="0 0 50 50" >
	<path id="n7m" fill="currentColor" aria-label="n7m"  d="m0.7 35v-16.7q1.1-0.2 2.8-0.5 1.7-0.3 4-0.3 2.1 0 3.4 0.6 1.4 0.5 2.2 1.6 0.8 1 1.1 2.5 0.4 1.4 0.4 3.2v9.6h-3.1v-9q0-1.6-0.2-2.7-0.2-1.1-0.7-1.8-0.5-0.7-1.4-1-0.8-0.3-2-0.3-0.5 0-1 0-0.6 0-1 0.1-0.5 0-0.9 0.1-0.4 0.1-0.5 0.1v14.5zm18.8 0h-3.2q0.2-2.6 0.9-5.5 0.8-3 1.9-5.7 1.1-2.8 2.4-5.1 1.3-2.4 2.5-3.9h-11.1v-2.7h14.6v2.6q-1.1 1.2-2.4 3.4-1.4 2.2-2.6 5-1.1 2.7-2 5.8-0.8 3-1 6.1zm6.6 0v-16.7q1.1-0.2 2.8-0.5 1.8-0.3 4-0.3 1.7 0 2.8 0.4 1.1 0.5 1.9 1.3 0.2-0.1 0.7-0.4 0.5-0.3 1.2-0.6 0.8-0.3 1.7-0.5 0.8-0.2 1.9-0.2 1.9 0 3.2 0.6 1.3 0.5 2 1.6 0.7 1 0.9 2.5 0.3 1.4 0.3 3.2v9.6h-3.1v-9q0-1.5-0.2-2.6-0.1-1.1-0.5-1.8-0.4-0.7-1.1-1.1-0.7-0.3-1.9-0.3-1.5 0-2.5 0.4-1 0.4-1.4 0.7 0.3 0.9 0.4 1.9 0.1 1 0.1 2.2v9.6h-3v-9q0-1.5-0.2-2.6-0.2-1.1-0.6-1.8-0.4-0.7-1.1-1.1-0.7-0.3-1.8-0.3-0.5 0-1 0-0.5 0-1 0.1-0.5 0-0.9 0.1-0.4 0.1-0.5 0.1v14.5z"/>
</svg>