<svg width="910" height="141" viewBox="0 0 910 141" fill="none" xmlns="http://www.w3.org/2000/svg">
<rect x="2" y="31" width="908" height="80" rx="21" fill="#EEEEEE"/>
<path fill-rule="evenodd" clip-rule="evenodd" d="M217.052 53.2667H208.565H208.56C203.871 53.2667 201.157 55.6827 201.157 60.3219V63.2201H195.089V69.1128H201.157V87.0857H208.067V69.1128H215.569V63.2201H208.067V61.1415C208.067 59.738 208.855 59.1594 210.289 59.1594H217.052V53.2667ZM227.805 62.4981C220.599 62.4981 215.664 67.4267 215.664 75.0123H215.669C215.669 82.7425 220.605 87.8156 228.057 87.8156C234.273 87.8156 238.021 84.7246 239.455 79.989H232.396C231.75 81.2961 230.322 82.2121 228.101 82.2121C224.796 82.2121 222.772 80.5675 222.476 77.5729H239.75C239.848 76.5604 239.898 75.6872 239.898 74.8194C239.898 67.2338 235.012 62.4981 227.805 62.4981ZM232.938 72.3551V72.4516H222.427C222.624 69.6499 224.451 67.8124 227.805 67.8124C231.16 67.8124 232.938 69.6499 232.938 72.3551ZM242.313 63.2194H248.381V67.4246C248.972 64.7194 250.947 63.2194 254.055 63.2194H258.399V64.039C258.399 66.8408 256.079 69.1121 253.218 69.1121C250.504 69.1121 249.218 70.4675 249.218 73.1728V87.0905H242.307V63.2194H242.313ZM266.905 63.2207H260.837H260.832V87.0865H267.743V73.5116C267.743 70.4689 269.57 68.5831 272.333 68.5831C275.096 68.5831 276.579 70.1313 276.579 73.3188V87.0918H283.49V72.5956C283.49 66.2688 279.736 62.4975 273.767 62.4975C270.954 62.4975 268.339 63.5582 266.905 65.6368V63.2207Z" fill="#081008"/>
<path d="M185.65 70.1737C183.328 68.2517 179.83 67.4813 176.73 69.725C176.587 69.8265 176.41 69.653 176.518 69.5175C177.253 68.5904 178.105 67.5914 178.792 66.588C179.492 65.5594 180.539 64.8228 181.745 64.463C188.166 62.558 186.238 53.27 186.238 53.27C186.238 53.27 176.319 53.8965 177.542 62.2743C177.746 63.6755 177.365 65.1022 176.47 66.2156C175.372 67.5745 174.096 68.8741 173.171 69.8139C172.976 70.0086 172.648 69.8223 172.726 69.5599C173.621 66.6093 174.274 62.0457 171.173 59.1036L166.811 55.556L165.972 56.6397C163.477 59.8614 164.208 64.4037 167.502 66.842C169.392 68.2391 170.248 69.7589 170.114 71.4268C170.032 72.4258 169.569 73.3614 168.877 74.1023C167.576 75.4992 166.361 76.9979 165.423 78.7335C165.293 78.9748 164.917 78.8817 164.93 78.6065C165.064 75.7405 164.783 69.2805 159.854 66.9733L154.336 64.8862L153.908 66.1351C152.52 70.1652 154.79 74.4705 158.902 75.8379C162.478 77.0274 163.754 79.2838 162.893 82.6663C162.854 82.789 162.232 86.273 162.318 87.8182H166.283C166.417 85.4221 168.986 83.8473 171.212 84.8252C171.839 85.1005 172.483 85.4941 173.145 86.0022C176.691 88.7369 181.914 88.0892 184.703 84.6136L185.498 83.623L180.483 80.0966C177.041 77.4466 172.449 78.6446 169.05 80.9136C168.765 81.1042 168.402 80.7994 168.562 80.4946C172.669 72.6036 178.009 72.6206 180.102 74.3732C182.64 76.4983 186.484 76.1173 188.637 73.6238L189.256 72.9085L185.645 70.1737H185.65Z" fill="#081008"/>
<path d="M335.88 65.105C334.91 65.105 334.015 64.88 333.195 64.43C332.385 63.97 331.74 63.335 331.26 62.525C330.79 61.705 330.555 60.785 330.555 59.765C330.555 58.745 330.79 57.83 331.26 57.02C331.74 56.21 332.385 55.58 333.195 55.13C334.015 54.67 334.91 54.44 335.88 54.44C336.86 54.44 337.755 54.67 338.565 55.13C339.385 55.58 340.03 56.21 340.5 57.02C340.97 57.83 341.205 58.745 341.205 59.765C341.205 60.785 340.97 61.705 340.5 62.525C340.03 63.335 339.385 63.97 338.565 64.43C337.755 64.88 336.86 65.105 335.88 65.105ZM335.88 63.62C336.57 63.62 337.185 63.465 337.725 63.155C338.265 62.835 338.685 62.385 338.985 61.805C339.295 61.215 339.45 60.535 339.45 59.765C339.45 58.995 339.295 58.32 338.985 57.74C338.685 57.16 338.265 56.715 337.725 56.405C337.185 56.095 336.57 55.94 335.88 55.94C335.19 55.94 334.575 56.095 334.035 56.405C333.495 56.715 333.07 57.16 332.76 57.74C332.46 58.32 332.31 58.995 332.31 59.765C332.31 60.535 332.46 61.215 332.76 61.805C333.07 62.385 333.495 62.835 334.035 63.155C334.575 63.465 335.19 63.62 335.88 63.62ZM346.353 58.13H344.823V65H343.098V58.13H342.123V56.735H343.098V56.15C343.098 55.2 343.348 54.51 343.848 54.08C344.358 53.64 345.153 53.42 346.233 53.42V54.845C345.713 54.845 345.348 54.945 345.138 55.145C344.928 55.335 344.823 55.67 344.823 56.15V56.735H346.353V58.13ZM351.333 58.13H349.803V65H348.078V58.13H347.103V56.735H348.078V56.15C348.078 55.2 348.328 54.51 348.828 54.08C349.338 53.64 350.133 53.42 351.213 53.42V54.845C350.693 54.845 350.328 54.945 350.118 55.145C349.908 55.335 349.803 55.67 349.803 56.15V56.735H351.333V58.13ZM360.424 60.665C360.424 60.975 360.404 61.255 360.364 61.505H354.049C354.099 62.165 354.344 62.695 354.784 63.095C355.224 63.495 355.764 63.695 356.404 63.695C357.324 63.695 357.974 63.31 358.354 62.54H360.199C359.949 63.3 359.494 63.925 358.834 64.415C358.184 64.895 357.374 65.135 356.404 65.135C355.614 65.135 354.904 64.96 354.274 64.61C353.654 64.25 353.164 63.75 352.804 63.11C352.454 62.46 352.279 61.71 352.279 60.86C352.279 60.01 352.449 59.265 352.789 58.625C353.139 57.975 353.624 57.475 354.244 57.125C354.874 56.775 355.594 56.6 356.404 56.6C357.184 56.6 357.879 56.77 358.489 57.11C359.099 57.45 359.574 57.93 359.914 58.55C360.254 59.16 360.424 59.865 360.424 60.665ZM358.639 60.125C358.629 59.495 358.404 58.99 357.964 58.61C357.524 58.23 356.979 58.04 356.329 58.04C355.739 58.04 355.234 58.23 354.814 58.61C354.394 58.98 354.144 59.485 354.064 60.125H358.639ZM363.816 57.935C364.066 57.515 364.396 57.19 364.806 56.96C365.226 56.72 365.721 56.6 366.291 56.6V58.37H365.856C365.186 58.37 364.676 58.54 364.326 58.88C363.986 59.22 363.816 59.81 363.816 60.65V65H362.106V56.735H363.816V57.935ZM371.19 60.83C371.19 60 371.36 59.265 371.7 58.625C372.05 57.985 372.52 57.49 373.11 57.14C373.71 56.78 374.375 56.6 375.105 56.6C375.645 56.6 376.175 56.72 376.695 56.96C377.225 57.19 377.645 57.5 377.955 57.89V53.9H379.68V65H377.955V63.755C377.675 64.155 377.285 64.485 376.785 64.745C376.295 65.005 375.73 65.135 375.09 65.135C374.37 65.135 373.71 64.955 373.11 64.595C372.52 64.225 372.05 63.715 371.7 63.065C371.36 62.405 371.19 61.66 371.19 60.83ZM377.955 60.86C377.955 60.29 377.835 59.795 377.595 59.375C377.365 58.955 377.06 58.635 376.68 58.415C376.3 58.195 375.89 58.085 375.45 58.085C375.01 58.085 374.6 58.195 374.22 58.415C373.84 58.625 373.53 58.94 373.29 59.36C373.06 59.77 372.945 60.26 372.945 60.83C372.945 61.4 373.06 61.9 373.29 62.33C373.53 62.76 373.84 63.09 374.22 63.32C374.61 63.54 375.02 63.65 375.45 63.65C375.89 63.65 376.3 63.54 376.68 63.32C377.06 63.1 377.365 62.78 377.595 62.36C377.835 61.93 377.955 61.43 377.955 60.86ZM389.501 60.665C389.501 60.975 389.481 61.255 389.441 61.505H383.126C383.176 62.165 383.421 62.695 383.861 63.095C384.301 63.495 384.841 63.695 385.481 63.695C386.401 63.695 387.051 63.31 387.431 62.54H389.276C389.026 63.3 388.571 63.925 387.911 64.415C387.261 64.895 386.451 65.135 385.481 65.135C384.691 65.135 383.981 64.96 383.351 64.61C382.731 64.25 382.241 63.75 381.881 63.11C381.531 62.46 381.356 61.71 381.356 60.86C381.356 60.01 381.526 59.265 381.866 58.625C382.216 57.975 382.701 57.475 383.321 57.125C383.951 56.775 384.671 56.6 385.481 56.6C386.261 56.6 386.956 56.77 387.566 57.11C388.176 57.45 388.651 57.93 388.991 58.55C389.331 59.16 389.501 59.865 389.501 60.665ZM387.716 60.125C387.706 59.495 387.481 58.99 387.041 58.61C386.601 58.23 386.056 58.04 385.406 58.04C384.816 58.04 384.311 58.23 383.891 58.61C383.471 58.98 383.221 59.485 383.141 60.125H387.716ZM394.379 63.47L396.719 56.735H398.534L395.384 65H393.344L390.209 56.735H392.039L394.379 63.47ZM407.401 60.665C407.401 60.975 407.381 61.255 407.341 61.505H401.026C401.076 62.165 401.321 62.695 401.761 63.095C402.201 63.495 402.741 63.695 403.381 63.695C404.301 63.695 404.951 63.31 405.331 62.54H407.176C406.926 63.3 406.471 63.925 405.811 64.415C405.161 64.895 404.351 65.135 403.381 65.135C402.591 65.135 401.881 64.96 401.251 64.61C400.631 64.25 400.141 63.75 399.781 63.11C399.431 62.46 399.256 61.71 399.256 60.86C399.256 60.01 399.426 59.265 399.766 58.625C400.116 57.975 400.601 57.475 401.221 57.125C401.851 56.775 402.571 56.6 403.381 56.6C404.161 56.6 404.856 56.77 405.466 57.11C406.076 57.45 406.551 57.93 406.891 58.55C407.231 59.16 407.401 59.865 407.401 60.665ZM405.616 60.125C405.606 59.495 405.381 58.99 404.941 58.61C404.501 58.23 403.956 58.04 403.306 58.04C402.716 58.04 402.211 58.23 401.791 58.61C401.371 58.98 401.121 59.485 401.041 60.125H405.616ZM410.794 53.9V65H409.084V53.9H410.794ZM416.624 65.135C415.844 65.135 415.139 64.96 414.509 64.61C413.879 64.25 413.384 63.75 413.024 63.11C412.664 62.46 412.484 61.71 412.484 60.86C412.484 60.02 412.669 59.275 413.039 58.625C413.409 57.975 413.914 57.475 414.554 57.125C415.194 56.775 415.909 56.6 416.699 56.6C417.489 56.6 418.204 56.775 418.844 57.125C419.484 57.475 419.989 57.975 420.359 58.625C420.729 59.275 420.914 60.02 420.914 60.86C420.914 61.7 420.724 62.445 420.344 63.095C419.964 63.745 419.444 64.25 418.784 64.61C418.134 64.96 417.414 65.135 416.624 65.135ZM416.624 63.65C417.064 63.65 417.474 63.545 417.854 63.335C418.244 63.125 418.559 62.81 418.799 62.39C419.039 61.97 419.159 61.46 419.159 60.86C419.159 60.26 419.044 59.755 418.814 59.345C418.584 58.925 418.279 58.61 417.899 58.4C417.519 58.19 417.109 58.085 416.669 58.085C416.229 58.085 415.819 58.19 415.439 58.4C415.069 58.61 414.774 58.925 414.554 59.345C414.334 59.755 414.224 60.26 414.224 60.86C414.224 61.75 414.449 62.44 414.899 62.93C415.359 63.41 415.934 63.65 416.624 63.65ZM424.314 57.95C424.604 57.57 424.999 57.25 425.499 56.99C425.999 56.73 426.564 56.6 427.194 56.6C427.914 56.6 428.569 56.78 429.159 57.14C429.759 57.49 430.229 57.985 430.569 58.625C430.909 59.265 431.079 60 431.079 60.83C431.079 61.66 430.909 62.405 430.569 63.065C430.229 63.715 429.759 64.225 429.159 64.595C428.569 64.955 427.914 65.135 427.194 65.135C426.564 65.135 426.004 65.01 425.514 64.76C425.024 64.5 424.624 64.18 424.314 63.8V68.93H422.604V56.735H424.314V57.95ZM429.339 60.83C429.339 60.26 429.219 59.77 428.979 59.36C428.749 58.94 428.439 58.625 428.049 58.415C427.669 58.195 427.259 58.085 426.819 58.085C426.389 58.085 425.979 58.195 425.589 58.415C425.209 58.635 424.899 58.955 424.659 59.375C424.429 59.795 424.314 60.29 424.314 60.86C424.314 61.43 424.429 61.93 424.659 62.36C424.899 62.78 425.209 63.1 425.589 63.32C425.979 63.54 426.389 63.65 426.819 63.65C427.259 63.65 427.669 63.54 428.049 63.32C428.439 63.09 428.749 62.76 428.979 62.33C429.219 61.9 429.339 61.4 429.339 60.83ZM440.346 60.665C440.346 60.975 440.326 61.255 440.286 61.505H433.971C434.021 62.165 434.266 62.695 434.706 63.095C435.146 63.495 435.686 63.695 436.326 63.695C437.246 63.695 437.896 63.31 438.276 62.54H440.121C439.871 63.3 439.416 63.925 438.756 64.415C438.106 64.895 437.296 65.135 436.326 65.135C435.536 65.135 434.826 64.96 434.196 64.61C433.576 64.25 433.086 63.75 432.726 63.11C432.376 62.46 432.201 61.71 432.201 60.86C432.201 60.01 432.371 59.265 432.711 58.625C433.061 57.975 433.546 57.475 434.166 57.125C434.796 56.775 435.516 56.6 436.326 56.6C437.106 56.6 437.801 56.77 438.411 57.11C439.021 57.45 439.496 57.93 439.836 58.55C440.176 59.16 440.346 59.865 440.346 60.665ZM438.561 60.125C438.551 59.495 438.326 58.99 437.886 58.61C437.446 58.23 436.901 58.04 436.251 58.04C435.661 58.04 435.156 58.23 434.736 58.61C434.316 58.98 434.066 59.485 433.986 60.125H438.561ZM443.738 57.935C443.988 57.515 444.318 57.19 444.728 56.96C445.148 56.72 445.643 56.6 446.213 56.6V58.37H445.778C445.108 58.37 444.598 58.54 444.248 58.88C443.908 59.22 443.738 59.81 443.738 60.65V65H442.028V56.735H443.738V57.935ZM451.112 60.83C451.112 60 451.282 59.265 451.622 58.625C451.972 57.985 452.442 57.49 453.032 57.14C453.632 56.78 454.297 56.6 455.027 56.6C455.567 56.6 456.097 56.72 456.617 56.96C457.147 57.19 457.567 57.5 457.877 57.89V53.9H459.602V65H457.877V63.755C457.597 64.155 457.207 64.485 456.707 64.745C456.217 65.005 455.652 65.135 455.012 65.135C454.292 65.135 453.632 64.955 453.032 64.595C452.442 64.225 451.972 63.715 451.622 63.065C451.282 62.405 451.112 61.66 451.112 60.83ZM457.877 60.86C457.877 60.29 457.757 59.795 457.517 59.375C457.287 58.955 456.982 58.635 456.602 58.415C456.222 58.195 455.812 58.085 455.372 58.085C454.932 58.085 454.522 58.195 454.142 58.415C453.762 58.625 453.452 58.94 453.212 59.36C452.982 59.77 452.867 60.26 452.867 60.83C452.867 61.4 452.982 61.9 453.212 62.33C453.452 62.76 453.762 63.09 454.142 63.32C454.532 63.54 454.942 63.65 455.372 63.65C455.812 63.65 456.222 63.54 456.602 63.32C456.982 63.1 457.287 62.78 457.517 62.36C457.757 61.93 457.877 61.43 457.877 60.86ZM465.433 65.135C464.653 65.135 463.948 64.96 463.318 64.61C462.688 64.25 462.193 63.75 461.833 63.11C461.473 62.46 461.293 61.71 461.293 60.86C461.293 60.02 461.478 59.275 461.848 58.625C462.218 57.975 462.723 57.475 463.363 57.125C464.003 56.775 464.718 56.6 465.508 56.6C466.298 56.6 467.013 56.775 467.653 57.125C468.293 57.475 468.798 57.975 469.168 58.625C469.538 59.275 469.723 60.02 469.723 60.86C469.723 61.7 469.533 62.445 469.153 63.095C468.773 63.745 468.253 64.25 467.593 64.61C466.943 64.96 466.223 65.135 465.433 65.135ZM465.433 63.65C465.873 63.65 466.283 63.545 466.663 63.335C467.053 63.125 467.368 62.81 467.608 62.39C467.848 61.97 467.968 61.46 467.968 60.86C467.968 60.26 467.853 59.755 467.623 59.345C467.393 58.925 467.088 58.61 466.708 58.4C466.328 58.19 465.918 58.085 465.478 58.085C465.038 58.085 464.628 58.19 464.248 58.4C463.878 58.61 463.583 58.925 463.363 59.345C463.143 59.755 463.033 60.26 463.033 60.86C463.033 61.75 463.258 62.44 463.708 62.93C464.168 63.41 464.743 63.65 465.433 63.65ZM470.843 60.86C470.843 60.01 471.013 59.265 471.353 58.625C471.703 57.975 472.183 57.475 472.793 57.125C473.403 56.775 474.103 56.6 474.893 56.6C475.893 56.6 476.718 56.84 477.368 57.32C478.028 57.79 478.473 58.465 478.703 59.345H476.858C476.708 58.935 476.468 58.615 476.138 58.385C475.808 58.155 475.393 58.04 474.893 58.04C474.193 58.04 473.633 58.29 473.213 58.79C472.803 59.28 472.598 59.97 472.598 60.86C472.598 61.75 472.803 62.445 473.213 62.945C473.633 63.445 474.193 63.695 474.893 63.695C475.883 63.695 476.538 63.26 476.858 62.39H478.703C478.463 63.23 478.013 63.9 477.353 64.4C476.693 64.89 475.873 65.135 474.893 65.135C474.103 65.135 473.403 64.96 472.793 64.61C472.183 64.25 471.703 63.75 471.353 63.11C471.013 62.46 470.843 61.71 470.843 60.86ZM487.892 56.735V65H486.182V64.025C485.912 64.365 485.557 64.635 485.117 64.835C484.687 65.025 484.227 65.12 483.737 65.12C483.087 65.12 482.502 64.985 481.982 64.715C481.472 64.445 481.067 64.045 480.767 63.515C480.477 62.985 480.332 62.345 480.332 61.595V56.735H482.027V61.34C482.027 62.08 482.212 62.65 482.582 63.05C482.952 63.44 483.457 63.635 484.097 63.635C484.737 63.635 485.242 63.44 485.612 63.05C485.992 62.65 486.182 62.08 486.182 61.34V56.735H487.892ZM500.153 56.6C500.803 56.6 501.383 56.735 501.893 57.005C502.413 57.275 502.818 57.675 503.108 58.205C503.408 58.735 503.558 59.375 503.558 60.125V65H501.863V60.38C501.863 59.64 501.678 59.075 501.308 58.685C500.938 58.285 500.433 58.085 499.793 58.085C499.153 58.085 498.643 58.285 498.263 58.685C497.893 59.075 497.708 59.64 497.708 60.38V65H496.013V60.38C496.013 59.64 495.828 59.075 495.458 58.685C495.088 58.285 494.583 58.085 493.943 58.085C493.303 58.085 492.793 58.285 492.413 58.685C492.043 59.075 491.858 59.64 491.858 60.38V65H490.148V56.735H491.858V57.68C492.138 57.34 492.493 57.075 492.923 56.885C493.353 56.695 493.813 56.6 494.303 56.6C494.963 56.6 495.553 56.74 496.073 57.02C496.593 57.3 496.993 57.705 497.273 58.235C497.523 57.735 497.913 57.34 498.443 57.05C498.973 56.75 499.543 56.6 500.153 56.6ZM513.309 60.665C513.309 60.975 513.289 61.255 513.249 61.505H506.934C506.984 62.165 507.229 62.695 507.669 63.095C508.109 63.495 508.649 63.695 509.289 63.695C510.209 63.695 510.859 63.31 511.239 62.54H513.084C512.834 63.3 512.379 63.925 511.719 64.415C511.069 64.895 510.259 65.135 509.289 65.135C508.499 65.135 507.789 64.96 507.159 64.61C506.539 64.25 506.049 63.75 505.689 63.11C505.339 62.46 505.164 61.71 505.164 60.86C505.164 60.01 505.334 59.265 505.674 58.625C506.024 57.975 506.509 57.475 507.129 57.125C507.759 56.775 508.479 56.6 509.289 56.6C510.069 56.6 510.764 56.77 511.374 57.11C511.984 57.45 512.459 57.93 512.799 58.55C513.139 59.16 513.309 59.865 513.309 60.665ZM511.524 60.125C511.514 59.495 511.289 58.99 510.849 58.61C510.409 58.23 509.864 58.04 509.214 58.04C508.624 58.04 508.119 58.23 507.699 58.61C507.279 58.98 507.029 59.485 506.949 60.125H511.524ZM519.162 56.6C519.812 56.6 520.392 56.735 520.902 57.005C521.422 57.275 521.827 57.675 522.117 58.205C522.407 58.735 522.552 59.375 522.552 60.125V65H520.857V60.38C520.857 59.64 520.672 59.075 520.302 58.685C519.932 58.285 519.427 58.085 518.787 58.085C518.147 58.085 517.637 58.285 517.257 58.685C516.887 59.075 516.702 59.64 516.702 60.38V65H514.992V56.735H516.702V57.68C516.982 57.34 517.337 57.075 517.767 56.885C518.207 56.695 518.672 56.6 519.162 56.6ZM526.728 58.13V62.705C526.728 63.015 526.798 63.24 526.938 63.38C527.088 63.51 527.338 63.575 527.688 63.575H528.738V65H527.388C526.618 65 526.028 64.82 525.618 64.46C525.208 64.1 525.003 63.515 525.003 62.705V58.13H524.028V56.735H525.003V54.68H526.728V56.735H528.738V58.13H526.728ZM529.744 60.83C529.744 60 529.914 59.265 530.254 58.625C530.604 57.985 531.074 57.49 531.664 57.14C532.264 56.78 532.924 56.6 533.644 56.6C534.294 56.6 534.859 56.73 535.339 56.99C535.829 57.24 536.219 57.555 536.509 57.935V56.735H538.234V65H536.509V63.77C536.219 64.16 535.824 64.485 535.324 64.745C534.824 65.005 534.254 65.135 533.614 65.135C532.904 65.135 532.254 64.955 531.664 64.595C531.074 64.225 530.604 63.715 530.254 63.065C529.914 62.405 529.744 61.66 529.744 60.83ZM536.509 60.86C536.509 60.29 536.389 59.795 536.149 59.375C535.919 58.955 535.614 58.635 535.234 58.415C534.854 58.195 534.444 58.085 534.004 58.085C533.564 58.085 533.154 58.195 532.774 58.415C532.394 58.625 532.084 58.94 531.844 59.36C531.614 59.77 531.499 60.26 531.499 60.83C531.499 61.4 531.614 61.9 531.844 62.33C532.084 62.76 532.394 63.09 532.774 63.32C533.164 63.54 533.574 63.65 534.004 63.65C534.444 63.65 534.854 63.54 535.234 63.32C535.614 63.1 535.919 62.78 536.149 62.36C536.389 61.93 536.509 61.43 536.509 60.86ZM542.475 58.13V62.705C542.475 63.015 542.545 63.24 542.685 63.38C542.835 63.51 543.085 63.575 543.435 63.575H544.485V65H543.135C542.365 65 541.775 64.82 541.365 64.46C540.955 64.1 540.75 63.515 540.75 62.705V58.13H539.775V56.735H540.75V54.68H542.475V56.735H544.485V58.13H542.475ZM546.932 55.64C546.622 55.64 546.362 55.535 546.152 55.325C545.942 55.115 545.837 54.855 545.837 54.545C545.837 54.235 545.942 53.975 546.152 53.765C546.362 53.555 546.622 53.45 546.932 53.45C547.232 53.45 547.487 53.555 547.697 53.765C547.907 53.975 548.012 54.235 548.012 54.545C548.012 54.855 547.907 55.115 547.697 55.325C547.487 55.535 547.232 55.64 546.932 55.64ZM547.772 56.735V65H546.062V56.735H547.772ZM553.602 65.135C552.822 65.135 552.117 64.96 551.487 64.61C550.857 64.25 550.362 63.75 550.002 63.11C549.642 62.46 549.462 61.71 549.462 60.86C549.462 60.02 549.647 59.275 550.017 58.625C550.387 57.975 550.892 57.475 551.532 57.125C552.172 56.775 552.887 56.6 553.677 56.6C554.467 56.6 555.182 56.775 555.822 57.125C556.462 57.475 556.967 57.975 557.337 58.625C557.707 59.275 557.892 60.02 557.892 60.86C557.892 61.7 557.702 62.445 557.322 63.095C556.942 63.745 556.422 64.25 555.762 64.61C555.112 64.96 554.392 65.135 553.602 65.135ZM553.602 63.65C554.042 63.65 554.452 63.545 554.832 63.335C555.222 63.125 555.537 62.81 555.777 62.39C556.017 61.97 556.137 61.46 556.137 60.86C556.137 60.26 556.022 59.755 555.792 59.345C555.562 58.925 555.257 58.61 554.877 58.4C554.497 58.19 554.087 58.085 553.647 58.085C553.207 58.085 552.797 58.19 552.417 58.4C552.047 58.61 551.752 58.925 551.532 59.345C551.312 59.755 551.202 60.26 551.202 60.86C551.202 61.75 551.427 62.44 551.877 62.93C552.337 63.41 552.912 63.65 553.602 63.65ZM563.752 56.6C564.402 56.6 564.982 56.735 565.492 57.005C566.012 57.275 566.417 57.675 566.707 58.205C566.997 58.735 567.142 59.375 567.142 60.125V65H565.447V60.38C565.447 59.64 565.262 59.075 564.892 58.685C564.522 58.285 564.017 58.085 563.377 58.085C562.737 58.085 562.227 58.285 561.847 58.685C561.477 59.075 561.292 59.64 561.292 60.38V65H559.582V56.735H561.292V57.68C561.572 57.34 561.927 57.075 562.357 56.885C562.797 56.695 563.262 56.6 563.752 56.6ZM575.215 58.13V62.705C575.215 63.015 575.285 63.24 575.425 63.38C575.575 63.51 575.825 63.575 576.175 63.575H577.225V65H575.875C575.105 65 574.515 64.82 574.105 64.46C573.695 64.1 573.49 63.515 573.49 62.705V58.13H572.515V56.735H573.49V54.68H575.215V56.735H577.225V58.13H575.215ZM583.076 56.6C583.706 56.6 584.266 56.735 584.756 57.005C585.256 57.275 585.646 57.675 585.926 58.205C586.216 58.735 586.361 59.375 586.361 60.125V65H584.666V60.38C584.666 59.64 584.481 59.075 584.111 58.685C583.741 58.285 583.236 58.085 582.596 58.085C581.956 58.085 581.446 58.285 581.066 58.685C580.696 59.075 580.511 59.64 580.511 60.38V65H578.801V53.9H580.511V57.695C580.801 57.345 581.166 57.075 581.606 56.885C582.056 56.695 582.546 56.6 583.076 56.6ZM587.972 60.83C587.972 60 588.142 59.265 588.482 58.625C588.832 57.985 589.302 57.49 589.892 57.14C590.492 56.78 591.152 56.6 591.872 56.6C592.522 56.6 593.087 56.73 593.567 56.99C594.057 57.24 594.447 57.555 594.737 57.935V56.735H596.462V65H594.737V63.77C594.447 64.16 594.052 64.485 593.552 64.745C593.052 65.005 592.482 65.135 591.842 65.135C591.132 65.135 590.482 64.955 589.892 64.595C589.302 64.225 588.832 63.715 588.482 63.065C588.142 62.405 587.972 61.66 587.972 60.83ZM594.737 60.86C594.737 60.29 594.617 59.795 594.377 59.375C594.147 58.955 593.842 58.635 593.462 58.415C593.082 58.195 592.672 58.085 592.232 58.085C591.792 58.085 591.382 58.195 591.002 58.415C590.622 58.625 590.312 58.94 590.072 59.36C589.842 59.77 589.727 60.26 589.727 60.83C589.727 61.4 589.842 61.9 590.072 62.33C590.312 62.76 590.622 63.09 591.002 63.32C591.392 63.54 591.802 63.65 592.232 63.65C592.672 63.65 593.082 63.54 593.462 63.32C593.842 63.1 594.147 62.78 594.377 62.36C594.617 61.93 594.737 61.43 594.737 60.86ZM600.703 58.13V62.705C600.703 63.015 600.773 63.24 600.913 63.38C601.063 63.51 601.313 63.575 601.663 63.575H602.713V65H601.363C600.593 65 600.003 64.82 599.593 64.46C599.183 64.1 598.978 63.515 598.978 62.705V58.13H598.003V56.735H598.978V54.68H600.703V56.735H602.713V58.13H600.703ZM332.835 76.9V88H331.125V76.9H332.835ZM338.665 88.135C337.885 88.135 337.18 87.96 336.55 87.61C335.92 87.25 335.425 86.75 335.065 86.11C334.705 85.46 334.525 84.71 334.525 83.86C334.525 83.02 334.71 82.275 335.08 81.625C335.45 80.975 335.955 80.475 336.595 80.125C337.235 79.775 337.95 79.6 338.74 79.6C339.53 79.6 340.245 79.775 340.885 80.125C341.525 80.475 342.03 80.975 342.4 81.625C342.77 82.275 342.955 83.02 342.955 83.86C342.955 84.7 342.765 85.445 342.385 86.095C342.005 86.745 341.485 87.25 340.825 87.61C340.175 87.96 339.455 88.135 338.665 88.135ZM338.665 86.65C339.105 86.65 339.515 86.545 339.895 86.335C340.285 86.125 340.6 85.81 340.84 85.39C341.08 84.97 341.2 84.46 341.2 83.86C341.2 83.26 341.085 82.755 340.855 82.345C340.625 81.925 340.32 81.61 339.94 81.4C339.56 81.19 339.15 81.085 338.71 81.085C338.27 81.085 337.86 81.19 337.48 81.4C337.11 81.61 336.815 81.925 336.595 82.345C336.375 82.755 336.265 83.26 336.265 83.86C336.265 84.75 336.49 85.44 336.94 85.93C337.4 86.41 337.975 86.65 338.665 86.65ZM348.231 88.135C347.451 88.135 346.746 87.96 346.116 87.61C345.486 87.25 344.991 86.75 344.631 86.11C344.271 85.46 344.091 84.71 344.091 83.86C344.091 83.02 344.276 82.275 344.646 81.625C345.016 80.975 345.521 80.475 346.161 80.125C346.801 79.775 347.516 79.6 348.306 79.6C349.096 79.6 349.811 79.775 350.451 80.125C351.091 80.475 351.596 80.975 351.966 81.625C352.336 82.275 352.521 83.02 352.521 83.86C352.521 84.7 352.331 85.445 351.951 86.095C351.571 86.745 351.051 87.25 350.391 87.61C349.741 87.96 349.021 88.135 348.231 88.135ZM348.231 86.65C348.671 86.65 349.081 86.545 349.461 86.335C349.851 86.125 350.166 85.81 350.406 85.39C350.646 84.97 350.766 84.46 350.766 83.86C350.766 83.26 350.651 82.755 350.421 82.345C350.191 81.925 349.886 81.61 349.506 81.4C349.126 81.19 348.716 81.085 348.276 81.085C347.836 81.085 347.426 81.19 347.046 81.4C346.676 81.61 346.381 81.925 346.161 82.345C345.941 82.755 345.831 83.26 345.831 83.86C345.831 84.75 346.056 85.44 346.506 85.93C346.966 86.41 347.541 86.65 348.231 86.65ZM357.481 83.875L361.291 88H358.981L355.921 84.445V88H354.211V76.9H355.921V83.35L358.921 79.735H361.291L357.481 83.875ZM365.517 88.135C364.867 88.135 364.282 88.02 363.762 87.79C363.252 87.55 362.847 87.23 362.547 86.83C362.247 86.42 362.087 85.965 362.067 85.465H363.837C363.867 85.815 364.032 86.11 364.332 86.35C364.642 86.58 365.027 86.695 365.487 86.695C365.967 86.695 366.337 86.605 366.597 86.425C366.867 86.235 367.002 85.995 367.002 85.705C367.002 85.395 366.852 85.165 366.552 85.015C366.262 84.865 365.797 84.7 365.157 84.52C364.537 84.35 364.032 84.185 363.642 84.025C363.252 83.865 362.912 83.62 362.622 83.29C362.342 82.96 362.202 82.525 362.202 81.985C362.202 81.545 362.332 81.145 362.592 80.785C362.852 80.415 363.222 80.125 363.702 79.915C364.192 79.705 364.752 79.6 365.382 79.6C366.322 79.6 367.077 79.84 367.647 80.32C368.227 80.79 368.537 81.435 368.577 82.255H366.867C366.837 81.885 366.687 81.59 366.417 81.37C366.147 81.15 365.782 81.04 365.322 81.04C364.872 81.04 364.527 81.125 364.287 81.295C364.047 81.465 363.927 81.69 363.927 81.97C363.927 82.19 364.007 82.375 364.167 82.525C364.327 82.675 364.522 82.795 364.752 82.885C364.982 82.965 365.322 83.07 365.772 83.2C366.372 83.36 366.862 83.525 367.242 83.695C367.632 83.855 367.967 84.095 368.247 84.415C368.527 84.735 368.672 85.16 368.682 85.69C368.682 86.16 368.552 86.58 368.292 86.95C368.032 87.32 367.662 87.61 367.182 87.82C366.712 88.03 366.157 88.135 365.517 88.135ZM373.856 83.83C373.856 83 374.026 82.265 374.366 81.625C374.716 80.985 375.186 80.49 375.776 80.14C376.376 79.78 377.036 79.6 377.756 79.6C378.406 79.6 378.971 79.73 379.451 79.99C379.941 80.24 380.331 80.555 380.621 80.935V79.735H382.346V88H380.621V86.77C380.331 87.16 379.936 87.485 379.436 87.745C378.936 88.005 378.366 88.135 377.726 88.135C377.016 88.135 376.366 87.955 375.776 87.595C375.186 87.225 374.716 86.715 374.366 86.065C374.026 85.405 373.856 84.66 373.856 83.83ZM380.621 83.86C380.621 83.29 380.501 82.795 380.261 82.375C380.031 81.955 379.726 81.635 379.346 81.415C378.966 81.195 378.556 81.085 378.116 81.085C377.676 81.085 377.266 81.195 376.886 81.415C376.506 81.625 376.196 81.94 375.956 82.36C375.726 82.77 375.611 83.26 375.611 83.83C375.611 84.4 375.726 84.9 375.956 85.33C376.196 85.76 376.506 86.09 376.886 86.32C377.276 86.54 377.686 86.65 378.116 86.65C378.556 86.65 378.966 86.54 379.346 86.32C379.726 86.1 380.031 85.78 380.261 85.36C380.501 84.93 380.621 84.43 380.621 83.86ZM387.592 88.135C386.942 88.135 386.357 88.02 385.837 87.79C385.327 87.55 384.922 87.23 384.622 86.83C384.322 86.42 384.162 85.965 384.142 85.465H385.912C385.942 85.815 386.107 86.11 386.407 86.35C386.717 86.58 387.102 86.695 387.562 86.695C388.042 86.695 388.412 86.605 388.672 86.425C388.942 86.235 389.077 85.995 389.077 85.705C389.077 85.395 388.927 85.165 388.627 85.015C388.337 84.865 387.872 84.7 387.232 84.52C386.612 84.35 386.107 84.185 385.717 84.025C385.327 83.865 384.987 83.62 384.697 83.29C384.417 82.96 384.277 82.525 384.277 81.985C384.277 81.545 384.407 81.145 384.667 80.785C384.927 80.415 385.297 80.125 385.777 79.915C386.267 79.705 386.827 79.6 387.457 79.6C388.397 79.6 389.152 79.84 389.722 80.32C390.302 80.79 390.612 81.435 390.652 82.255H388.942C388.912 81.885 388.762 81.59 388.492 81.37C388.222 81.15 387.857 81.04 387.397 81.04C386.947 81.04 386.602 81.125 386.362 81.295C386.122 81.465 386.002 81.69 386.002 81.97C386.002 82.19 386.082 82.375 386.242 82.525C386.402 82.675 386.597 82.795 386.827 82.885C387.057 82.965 387.397 83.07 387.847 83.2C388.447 83.36 388.937 83.525 389.317 83.695C389.707 83.855 390.042 84.095 390.322 84.415C390.602 84.735 390.747 85.16 390.757 85.69C390.757 86.16 390.627 86.58 390.367 86.95C390.107 87.32 389.737 87.61 389.257 87.82C388.787 88.03 388.232 88.135 387.592 88.135ZM399.831 79.6C400.471 79.6 401.036 79.73 401.526 79.99C402.026 80.24 402.416 80.555 402.696 80.935V79.735H404.421V88.135C404.421 88.895 404.261 89.57 403.941 90.16C403.621 90.76 403.156 91.23 402.546 91.57C401.946 91.91 401.226 92.08 400.386 92.08C399.266 92.08 398.336 91.815 397.596 91.285C396.856 90.765 396.436 90.055 396.336 89.155H398.031C398.161 89.585 398.436 89.93 398.856 90.19C399.286 90.46 399.796 90.595 400.386 90.595C401.076 90.595 401.631 90.385 402.051 89.965C402.481 89.545 402.696 88.935 402.696 88.135V86.755C402.406 87.145 402.011 87.475 401.511 87.745C401.021 88.005 400.461 88.135 399.831 88.135C399.111 88.135 398.451 87.955 397.851 87.595C397.261 87.225 396.791 86.715 396.441 86.065C396.101 85.405 395.931 84.66 395.931 83.83C395.931 83 396.101 82.265 396.441 81.625C396.791 80.985 397.261 80.49 397.851 80.14C398.451 79.78 399.111 79.6 399.831 79.6ZM402.696 83.86C402.696 83.29 402.576 82.795 402.336 82.375C402.106 81.955 401.801 81.635 401.421 81.415C401.041 81.195 400.631 81.085 400.191 81.085C399.751 81.085 399.341 81.195 398.961 81.415C398.581 81.625 398.271 81.94 398.031 82.36C397.801 82.77 397.686 83.26 397.686 83.83C397.686 84.4 397.801 84.9 398.031 85.33C398.271 85.76 398.581 86.09 398.961 86.32C399.351 86.54 399.761 86.65 400.191 86.65C400.631 86.65 401.041 86.54 401.421 86.32C401.801 86.1 402.106 85.78 402.336 85.36C402.576 84.93 402.696 84.43 402.696 83.86ZM410.252 88.135C409.472 88.135 408.767 87.96 408.137 87.61C407.507 87.25 407.012 86.75 406.652 86.11C406.292 85.46 406.112 84.71 406.112 83.86C406.112 83.02 406.297 82.275 406.667 81.625C407.037 80.975 407.542 80.475 408.182 80.125C408.822 79.775 409.537 79.6 410.327 79.6C411.117 79.6 411.832 79.775 412.472 80.125C413.112 80.475 413.617 80.975 413.987 81.625C414.357 82.275 414.542 83.02 414.542 83.86C414.542 84.7 414.352 85.445 413.972 86.095C413.592 86.745 413.072 87.25 412.412 87.61C411.762 87.96 411.042 88.135 410.252 88.135ZM410.252 86.65C410.692 86.65 411.102 86.545 411.482 86.335C411.872 86.125 412.187 85.81 412.427 85.39C412.667 84.97 412.787 84.46 412.787 83.86C412.787 83.26 412.672 82.755 412.442 82.345C412.212 81.925 411.907 81.61 411.527 81.4C411.147 81.19 410.737 81.085 410.297 81.085C409.857 81.085 409.447 81.19 409.067 81.4C408.697 81.61 408.402 81.925 408.182 82.345C407.962 82.755 407.852 83.26 407.852 83.86C407.852 84.75 408.077 85.44 408.527 85.93C408.987 86.41 409.562 86.65 410.252 86.65ZM419.817 88.135C419.037 88.135 418.332 87.96 417.702 87.61C417.072 87.25 416.577 86.75 416.217 86.11C415.857 85.46 415.677 84.71 415.677 83.86C415.677 83.02 415.862 82.275 416.232 81.625C416.602 80.975 417.107 80.475 417.747 80.125C418.387 79.775 419.102 79.6 419.892 79.6C420.682 79.6 421.397 79.775 422.037 80.125C422.677 80.475 423.182 80.975 423.552 81.625C423.922 82.275 424.107 83.02 424.107 83.86C424.107 84.7 423.917 85.445 423.537 86.095C423.157 86.745 422.637 87.25 421.977 87.61C421.327 87.96 420.607 88.135 419.817 88.135ZM419.817 86.65C420.257 86.65 420.667 86.545 421.047 86.335C421.437 86.125 421.752 85.81 421.992 85.39C422.232 84.97 422.352 84.46 422.352 83.86C422.352 83.26 422.237 82.755 422.007 82.345C421.777 81.925 421.472 81.61 421.092 81.4C420.712 81.19 420.302 81.085 419.862 81.085C419.422 81.085 419.012 81.19 418.632 81.4C418.262 81.61 417.967 81.925 417.747 82.345C417.527 82.755 417.417 83.26 417.417 83.86C417.417 84.75 417.642 85.44 418.092 85.93C418.552 86.41 419.127 86.65 419.817 86.65ZM425.228 83.83C425.228 83 425.398 82.265 425.738 81.625C426.088 80.985 426.558 80.49 427.148 80.14C427.748 79.78 428.413 79.6 429.143 79.6C429.683 79.6 430.213 79.72 430.733 79.96C431.263 80.19 431.683 80.5 431.993 80.89V76.9H433.718V88H431.993V86.755C431.713 87.155 431.323 87.485 430.823 87.745C430.333 88.005 429.768 88.135 429.128 88.135C428.408 88.135 427.748 87.955 427.148 87.595C426.558 87.225 426.088 86.715 425.738 86.065C425.398 85.405 425.228 84.66 425.228 83.83ZM431.993 83.86C431.993 83.29 431.873 82.795 431.633 82.375C431.403 81.955 431.098 81.635 430.718 81.415C430.338 81.195 429.928 81.085 429.488 81.085C429.048 81.085 428.638 81.195 428.258 81.415C427.878 81.625 427.568 81.94 427.328 82.36C427.098 82.77 426.983 83.26 426.983 83.83C426.983 84.4 427.098 84.9 427.328 85.33C427.568 85.76 427.878 86.09 428.258 86.32C428.648 86.54 429.058 86.65 429.488 86.65C429.928 86.65 430.338 86.54 430.718 86.32C431.098 86.1 431.403 85.78 431.633 85.36C431.873 84.93 431.993 84.43 431.993 83.86ZM439.29 83.83C439.29 83 439.46 82.265 439.8 81.625C440.15 80.985 440.62 80.49 441.21 80.14C441.81 79.78 442.47 79.6 443.19 79.6C443.84 79.6 444.405 79.73 444.885 79.99C445.375 80.24 445.765 80.555 446.055 80.935V79.735H447.78V88H446.055V86.77C445.765 87.16 445.37 87.485 444.87 87.745C444.37 88.005 443.8 88.135 443.16 88.135C442.45 88.135 441.8 87.955 441.21 87.595C440.62 87.225 440.15 86.715 439.8 86.065C439.46 85.405 439.29 84.66 439.29 83.83ZM446.055 83.86C446.055 83.29 445.935 82.795 445.695 82.375C445.465 81.955 445.16 81.635 444.78 81.415C444.4 81.195 443.99 81.085 443.55 81.085C443.11 81.085 442.7 81.195 442.32 81.415C441.94 81.625 441.63 81.94 441.39 82.36C441.16 82.77 441.045 83.26 441.045 83.83C441.045 84.4 441.16 84.9 441.39 85.33C441.63 85.76 441.94 86.09 442.32 86.32C442.71 86.54 443.12 86.65 443.55 86.65C443.99 86.65 444.4 86.54 444.78 86.32C445.16 86.1 445.465 85.78 445.695 85.36C445.935 84.93 446.055 84.43 446.055 83.86ZM453.026 88.135C452.376 88.135 451.791 88.02 451.271 87.79C450.761 87.55 450.356 87.23 450.056 86.83C449.756 86.42 449.596 85.965 449.576 85.465H451.346C451.376 85.815 451.541 86.11 451.841 86.35C452.151 86.58 452.536 86.695 452.996 86.695C453.476 86.695 453.846 86.605 454.106 86.425C454.376 86.235 454.511 85.995 454.511 85.705C454.511 85.395 454.361 85.165 454.061 85.015C453.771 84.865 453.306 84.7 452.666 84.52C452.046 84.35 451.541 84.185 451.151 84.025C450.761 83.865 450.421 83.62 450.131 83.29C449.851 82.96 449.711 82.525 449.711 81.985C449.711 81.545 449.841 81.145 450.101 80.785C450.361 80.415 450.731 80.125 451.211 79.915C451.701 79.705 452.261 79.6 452.891 79.6C453.831 79.6 454.586 79.84 455.156 80.32C455.736 80.79 456.046 81.435 456.086 82.255H454.376C454.346 81.885 454.196 81.59 453.926 81.37C453.656 81.15 453.291 81.04 452.831 81.04C452.381 81.04 452.036 81.125 451.796 81.295C451.556 81.465 451.436 81.69 451.436 81.97C451.436 82.19 451.516 82.375 451.676 82.525C451.836 82.675 452.031 82.795 452.261 82.885C452.491 82.965 452.831 83.07 453.281 83.2C453.881 83.36 454.371 83.525 454.751 83.695C455.141 83.855 455.476 84.095 455.756 84.415C456.036 84.735 456.181 85.16 456.191 85.69C456.191 86.16 456.061 86.58 455.801 86.95C455.541 87.32 455.171 87.61 454.691 87.82C454.221 88.03 453.666 88.135 453.026 88.135ZM465.371 88.105C464.671 88.105 464.041 87.985 463.481 87.745C462.921 87.495 462.481 87.145 462.161 86.695C461.841 86.245 461.681 85.72 461.681 85.12H463.511C463.551 85.57 463.726 85.94 464.036 86.23C464.356 86.52 464.801 86.665 465.371 86.665C465.961 86.665 466.421 86.525 466.751 86.245C467.081 85.955 467.246 85.585 467.246 85.135C467.246 84.785 467.141 84.5 466.931 84.28C466.731 84.06 466.476 83.89 466.166 83.77C465.866 83.65 465.446 83.52 464.906 83.38C464.226 83.2 463.671 83.02 463.241 82.84C462.821 82.65 462.461 82.36 462.161 81.97C461.861 81.58 461.711 81.06 461.711 80.41C461.711 79.81 461.861 79.285 462.161 78.835C462.461 78.385 462.881 78.04 463.421 77.8C463.961 77.56 464.586 77.44 465.296 77.44C466.306 77.44 467.131 77.695 467.771 78.205C468.421 78.705 468.781 79.395 468.851 80.275H466.961C466.931 79.895 466.751 79.57 466.421 79.3C466.091 79.03 465.656 78.895 465.116 78.895C464.626 78.895 464.226 79.02 463.916 79.27C463.606 79.52 463.451 79.88 463.451 80.35C463.451 80.67 463.546 80.935 463.736 81.145C463.936 81.345 464.186 81.505 464.486 81.625C464.786 81.745 465.196 81.875 465.716 82.015C466.406 82.205 466.966 82.395 467.396 82.585C467.836 82.775 468.206 83.07 468.506 83.47C468.816 83.86 468.971 84.385 468.971 85.045C468.971 85.575 468.826 86.075 468.536 86.545C468.256 87.015 467.841 87.395 467.291 87.685C466.751 87.965 466.111 88.105 465.371 88.105ZM472.983 81.13V85.705C472.983 86.015 473.053 86.24 473.193 86.38C473.343 86.51 473.593 86.575 473.943 86.575H474.993V88H473.643C472.873 88 472.283 87.82 471.873 87.46C471.463 87.1 471.258 86.515 471.258 85.705V81.13H470.283V79.735H471.258V77.68H472.983V79.735H474.993V81.13H472.983ZM478.279 80.935C478.529 80.515 478.859 80.19 479.269 79.96C479.689 79.72 480.184 79.6 480.754 79.6V81.37H480.319C479.649 81.37 479.139 81.54 478.789 81.88C478.449 82.22 478.279 82.81 478.279 83.65V88H476.569V79.735H478.279V80.935ZM483.196 78.64C482.886 78.64 482.626 78.535 482.416 78.325C482.206 78.115 482.101 77.855 482.101 77.545C482.101 77.235 482.206 76.975 482.416 76.765C482.626 76.555 482.886 76.45 483.196 76.45C483.496 76.45 483.751 76.555 483.961 76.765C484.171 76.975 484.276 77.235 484.276 77.545C484.276 77.855 484.171 78.115 483.961 78.325C483.751 78.535 483.496 78.64 483.196 78.64ZM484.036 79.735V88H482.326V79.735H484.036ZM487.991 80.95C488.281 80.57 488.676 80.25 489.176 79.99C489.676 79.73 490.241 79.6 490.871 79.6C491.591 79.6 492.246 79.78 492.836 80.14C493.436 80.49 493.906 80.985 494.246 81.625C494.586 82.265 494.756 83 494.756 83.83C494.756 84.66 494.586 85.405 494.246 86.065C493.906 86.715 493.436 87.225 492.836 87.595C492.246 87.955 491.591 88.135 490.871 88.135C490.241 88.135 489.681 88.01 489.191 87.76C488.701 87.5 488.301 87.18 487.991 86.8V91.93H486.281V79.735H487.991V80.95ZM493.016 83.83C493.016 83.26 492.896 82.77 492.656 82.36C492.426 81.94 492.116 81.625 491.726 81.415C491.346 81.195 490.936 81.085 490.496 81.085C490.066 81.085 489.656 81.195 489.266 81.415C488.886 81.635 488.576 81.955 488.336 82.375C488.106 82.795 487.991 83.29 487.991 83.86C487.991 84.43 488.106 84.93 488.336 85.36C488.576 85.78 488.886 86.1 489.266 86.32C489.656 86.54 490.066 86.65 490.496 86.65C490.936 86.65 491.346 86.54 491.726 86.32C492.116 86.09 492.426 85.76 492.656 85.33C492.896 84.9 493.016 84.4 493.016 83.83ZM504.022 83.665C504.022 83.975 504.002 84.255 503.962 84.505H497.647C497.697 85.165 497.942 85.695 498.382 86.095C498.822 86.495 499.362 86.695 500.002 86.695C500.922 86.695 501.572 86.31 501.952 85.54H503.797C503.547 86.3 503.092 86.925 502.432 87.415C501.782 87.895 500.972 88.135 500.002 88.135C499.212 88.135 498.502 87.96 497.872 87.61C497.252 87.25 496.762 86.75 496.402 86.11C496.052 85.46 495.877 84.71 495.877 83.86C495.877 83.01 496.047 82.265 496.387 81.625C496.737 80.975 497.222 80.475 497.842 80.125C498.472 79.775 499.192 79.6 500.002 79.6C500.782 79.6 501.477 79.77 502.087 80.11C502.697 80.45 503.172 80.93 503.512 81.55C503.852 82.16 504.022 82.865 504.022 83.665ZM502.237 83.125C502.227 82.495 502.002 81.99 501.562 81.61C501.122 81.23 500.577 81.04 499.927 81.04C499.337 81.04 498.832 81.23 498.412 81.61C497.992 81.98 497.742 82.485 497.662 83.125H502.237ZM506.635 76.045L506.455 79.12H505.285L505.09 76.045H506.635ZM511.283 88.135C510.633 88.135 510.048 88.02 509.528 87.79C509.018 87.55 508.613 87.23 508.313 86.83C508.013 86.42 507.853 85.965 507.833 85.465H509.603C509.633 85.815 509.798 86.11 510.098 86.35C510.408 86.58 510.793 86.695 511.253 86.695C511.733 86.695 512.103 86.605 512.363 86.425C512.633 86.235 512.768 85.995 512.768 85.705C512.768 85.395 512.618 85.165 512.318 85.015C512.028 84.865 511.563 84.7 510.923 84.52C510.303 84.35 509.798 84.185 509.408 84.025C509.018 83.865 508.678 83.62 508.388 83.29C508.108 82.96 507.968 82.525 507.968 81.985C507.968 81.545 508.098 81.145 508.358 80.785C508.618 80.415 508.988 80.125 509.468 79.915C509.958 79.705 510.518 79.6 511.148 79.6C512.088 79.6 512.843 79.84 513.413 80.32C513.993 80.79 514.303 81.435 514.343 82.255H512.633C512.603 81.885 512.453 81.59 512.183 81.37C511.913 81.15 511.548 81.04 511.088 81.04C510.638 81.04 510.293 81.125 510.053 81.295C509.813 81.465 509.693 81.69 509.693 81.97C509.693 82.19 509.773 82.375 509.933 82.525C510.093 82.675 510.288 82.795 510.518 82.885C510.748 82.965 511.088 83.07 511.538 83.2C512.138 83.36 512.628 83.525 513.008 83.695C513.398 83.855 513.733 84.095 514.013 84.415C514.293 84.735 514.438 85.16 514.448 85.69C514.448 86.16 514.318 86.58 514.058 86.95C513.798 87.32 513.428 87.61 512.948 87.82C512.478 88.03 511.923 88.135 511.283 88.135ZM527.677 79.735V88H525.967V87.025C525.697 87.365 525.342 87.635 524.902 87.835C524.472 88.025 524.012 88.12 523.522 88.12C522.872 88.12 522.287 87.985 521.767 87.715C521.257 87.445 520.852 87.045 520.552 86.515C520.262 85.985 520.117 85.345 520.117 84.595V79.735H521.812V84.34C521.812 85.08 521.997 85.65 522.367 86.05C522.737 86.44 523.242 86.635 523.882 86.635C524.522 86.635 525.027 86.44 525.397 86.05C525.777 85.65 525.967 85.08 525.967 84.34V79.735H527.677ZM532.934 88.135C532.284 88.135 531.699 88.02 531.179 87.79C530.669 87.55 530.264 87.23 529.964 86.83C529.664 86.42 529.504 85.965 529.484 85.465H531.254C531.284 85.815 531.449 86.11 531.749 86.35C532.059 86.58 532.444 86.695 532.904 86.695C533.384 86.695 533.754 86.605 534.014 86.425C534.284 86.235 534.419 85.995 534.419 85.705C534.419 85.395 534.269 85.165 533.969 85.015C533.679 84.865 533.214 84.7 532.574 84.52C531.954 84.35 531.449 84.185 531.059 84.025C530.669 83.865 530.329 83.62 530.039 83.29C529.759 82.96 529.619 82.525 529.619 81.985C529.619 81.545 529.749 81.145 530.009 80.785C530.269 80.415 530.639 80.125 531.119 79.915C531.609 79.705 532.169 79.6 532.799 79.6C533.739 79.6 534.494 79.84 535.064 80.32C535.644 80.79 535.954 81.435 535.994 82.255H534.284C534.254 81.885 534.104 81.59 533.834 81.37C533.564 81.15 533.199 81.04 532.739 81.04C532.289 81.04 531.944 81.125 531.704 81.295C531.464 81.465 531.344 81.69 531.344 81.97C531.344 82.19 531.424 82.375 531.584 82.525C531.744 82.675 531.939 82.795 532.169 82.885C532.399 82.965 532.739 83.07 533.189 83.2C533.789 83.36 534.279 83.525 534.659 83.695C535.049 83.855 535.384 84.095 535.664 84.415C535.944 84.735 536.089 85.16 536.099 85.69C536.099 86.16 535.969 86.58 535.709 86.95C535.449 87.32 535.079 87.61 534.599 87.82C534.129 88.03 533.574 88.135 532.934 88.135ZM538.816 78.64C538.506 78.64 538.246 78.535 538.036 78.325C537.826 78.115 537.721 77.855 537.721 77.545C537.721 77.235 537.826 76.975 538.036 76.765C538.246 76.555 538.506 76.45 538.816 76.45C539.116 76.45 539.371 76.555 539.581 76.765C539.791 76.975 539.896 77.235 539.896 77.545C539.896 77.855 539.791 78.115 539.581 78.325C539.371 78.535 539.116 78.64 538.816 78.64ZM539.656 79.735V88H537.946V79.735H539.656ZM546.071 79.6C546.721 79.6 547.301 79.735 547.811 80.005C548.331 80.275 548.736 80.675 549.026 81.205C549.316 81.735 549.461 82.375 549.461 83.125V88H547.766V83.38C547.766 82.64 547.581 82.075 547.211 81.685C546.841 81.285 546.336 81.085 545.696 81.085C545.056 81.085 544.546 81.285 544.166 81.685C543.796 82.075 543.611 82.64 543.611 83.38V88H541.901V79.735H543.611V80.68C543.891 80.34 544.246 80.075 544.676 79.885C545.116 79.695 545.581 79.6 546.071 79.6ZM554.973 79.6C555.613 79.6 556.178 79.73 556.668 79.99C557.168 80.24 557.558 80.555 557.838 80.935V79.735H559.563V88.135C559.563 88.895 559.403 89.57 559.083 90.16C558.763 90.76 558.298 91.23 557.688 91.57C557.088 91.91 556.368 92.08 555.528 92.08C554.408 92.08 553.478 91.815 552.738 91.285C551.998 90.765 551.578 90.055 551.478 89.155H553.173C553.303 89.585 553.578 89.93 553.998 90.19C554.428 90.46 554.938 90.595 555.528 90.595C556.218 90.595 556.773 90.385 557.193 89.965C557.623 89.545 557.838 88.935 557.838 88.135V86.755C557.548 87.145 557.153 87.475 556.653 87.745C556.163 88.005 555.603 88.135 554.973 88.135C554.253 88.135 553.593 87.955 552.993 87.595C552.403 87.225 551.933 86.715 551.583 86.065C551.243 85.405 551.073 84.66 551.073 83.83C551.073 83 551.243 82.265 551.583 81.625C551.933 80.985 552.403 80.49 552.993 80.14C553.593 79.78 554.253 79.6 554.973 79.6ZM557.838 83.86C557.838 83.29 557.718 82.795 557.478 82.375C557.248 81.955 556.943 81.635 556.563 81.415C556.183 81.195 555.773 81.085 555.333 81.085C554.893 81.085 554.483 81.195 554.103 81.415C553.723 81.625 553.413 81.94 553.173 82.36C552.943 82.77 552.828 83.26 552.828 83.83C552.828 84.4 552.943 84.9 553.173 85.33C553.413 85.76 553.723 86.09 554.103 86.32C554.493 86.54 554.903 86.65 555.333 86.65C555.773 86.65 556.183 86.54 556.563 86.32C556.943 86.1 557.248 85.78 557.478 85.36C557.718 84.93 557.838 84.43 557.838 83.86ZM571.84 77.575V78.97H567.415V82.045H570.865V83.44H567.415V88H565.705V77.575H571.84ZM581 83.665C581 83.975 580.98 84.255 580.94 84.505H574.625C574.675 85.165 574.92 85.695 575.36 86.095C575.8 86.495 576.34 86.695 576.98 86.695C577.9 86.695 578.55 86.31 578.93 85.54H580.775C580.525 86.3 580.07 86.925 579.41 87.415C578.76 87.895 577.95 88.135 576.98 88.135C576.19 88.135 575.48 87.96 574.85 87.61C574.23 87.25 573.74 86.75 573.38 86.11C573.03 85.46 572.855 84.71 572.855 83.86C572.855 83.01 573.025 82.265 573.365 81.625C573.715 80.975 574.2 80.475 574.82 80.125C575.45 79.775 576.17 79.6 576.98 79.6C577.76 79.6 578.455 79.77 579.065 80.11C579.675 80.45 580.15 80.93 580.49 81.55C580.83 82.16 581 82.865 581 83.665ZM579.215 83.125C579.205 82.495 578.98 81.99 578.54 81.61C578.1 81.23 577.555 81.04 576.905 81.04C576.315 81.04 575.81 81.23 575.39 81.61C574.97 81.98 574.72 82.485 574.64 83.125H579.215ZM584.393 80.935C584.643 80.515 584.973 80.19 585.383 79.96C585.803 79.72 586.298 79.6 586.868 79.6V81.37H586.433C585.763 81.37 585.253 81.54 584.903 81.88C584.563 82.22 584.393 82.81 584.393 83.65V88H582.683V79.735H584.393V80.935ZM592.609 79.6C593.259 79.6 593.839 79.735 594.349 80.005C594.869 80.275 595.274 80.675 595.564 81.205C595.854 81.735 595.999 82.375 595.999 83.125V88H594.304V83.38C594.304 82.64 594.119 82.075 593.749 81.685C593.379 81.285 592.874 81.085 592.234 81.085C591.594 81.085 591.084 81.285 590.704 81.685C590.334 82.075 590.149 82.64 590.149 83.38V88H588.439V79.735H590.149V80.68C590.429 80.34 590.784 80.075 591.214 79.885C591.654 79.695 592.119 79.6 592.609 79.6Z" fill="black"/>
<rect x="25" y="60" width="84" height="22" rx="6" fill="#C6C6C6"/>
<path d="M38.1974 76.098C37.5441 76.098 36.9561 75.986 36.4334 75.762C35.9107 75.5287 35.5001 75.202 35.2014 74.782C34.9027 74.362 34.7534 73.872 34.7534 73.312H36.4614C36.4987 73.732 36.6621 74.0773 36.9514 74.348C37.2501 74.6187 37.6654 74.754 38.1974 74.754C38.7481 74.754 39.1774 74.6233 39.4854 74.362C39.7934 74.0913 39.9474 73.746 39.9474 73.326C39.9474 72.9993 39.8494 72.7333 39.6534 72.528C39.4667 72.3227 39.2287 72.164 38.9394 72.052C38.6594 71.94 38.2674 71.8187 37.7634 71.688C37.1287 71.52 36.6107 71.352 36.2094 71.184C35.8174 71.0067 35.4814 70.736 35.2014 70.372C34.9214 70.008 34.7814 69.5227 34.7814 68.916C34.7814 68.356 34.9214 67.866 35.2014 67.446C35.4814 67.026 35.8734 66.704 36.3774 66.48C36.8814 66.256 37.4647 66.144 38.1274 66.144C39.0701 66.144 39.8401 66.382 40.4374 66.858C41.0441 67.3247 41.3801 67.9687 41.4454 68.79H39.6814C39.6534 68.4353 39.4854 68.132 39.1774 67.88C38.8694 67.628 38.4634 67.502 37.9594 67.502C37.5021 67.502 37.1287 67.6187 36.8394 67.852C36.5501 68.0853 36.4054 68.4213 36.4054 68.86C36.4054 69.1587 36.4941 69.406 36.6714 69.602C36.8581 69.7887 37.0914 69.938 37.3714 70.05C37.6514 70.162 38.0341 70.2833 38.5194 70.414C39.1634 70.5913 39.6861 70.7687 40.0874 70.946C40.4981 71.1233 40.8434 71.3987 41.1234 71.772C41.4127 72.136 41.5574 72.626 41.5574 73.242C41.5574 73.7367 41.4221 74.2033 41.1514 74.642C40.8901 75.0807 40.5027 75.4353 39.9894 75.706C39.4854 75.9673 38.8881 76.098 38.1974 76.098ZM50.2446 69.168C50.2446 69.6627 50.128 70.1293 49.8946 70.568C49.6613 71.0067 49.288 71.366 48.7746 71.646C48.2613 71.9167 47.6033 72.052 46.8006 72.052H45.0366V76H43.4406V66.27H46.8006C47.5473 66.27 48.1773 66.4007 48.6906 66.662C49.2133 66.914 49.6006 67.2593 49.8526 67.698C50.114 68.1367 50.2446 68.6267 50.2446 69.168ZM46.8006 70.75C47.4073 70.75 47.86 70.6147 48.1586 70.344C48.4573 70.064 48.6066 69.672 48.6066 69.168C48.6066 68.104 48.0046 67.572 46.8006 67.572H45.0366V70.75H46.8006ZM56.2048 76.098C55.2995 76.098 54.4641 75.888 53.6988 75.468C52.9428 75.0387 52.3408 74.446 51.8928 73.69C51.4541 72.9247 51.2348 72.066 51.2348 71.114C51.2348 70.162 51.4541 69.308 51.8928 68.552C52.3408 67.796 52.9428 67.208 53.6988 66.788C54.4641 66.3587 55.2995 66.144 56.2048 66.144C57.1195 66.144 57.9548 66.3587 58.7108 66.788C59.4761 67.208 60.0781 67.796 60.5168 68.552C60.9555 69.308 61.1748 70.162 61.1748 71.114C61.1748 72.066 60.9555 72.9247 60.5168 73.69C60.0781 74.446 59.4761 75.0387 58.7108 75.468C57.9548 75.888 57.1195 76.098 56.2048 76.098ZM56.2048 74.712C56.8488 74.712 57.4228 74.5673 57.9268 74.278C58.4308 73.9793 58.8228 73.5593 59.1028 73.018C59.3921 72.4673 59.5368 71.8327 59.5368 71.114C59.5368 70.3953 59.3921 69.7653 59.1028 69.224C58.8228 68.6827 58.4308 68.2673 57.9268 67.978C57.4228 67.6887 56.8488 67.544 56.2048 67.544C55.5608 67.544 54.9868 67.6887 54.4828 67.978C53.9788 68.2673 53.5821 68.6827 53.2928 69.224C53.0128 69.7653 52.8728 70.3953 52.8728 71.114C52.8728 71.8327 53.0128 72.4673 53.2928 73.018C53.5821 73.5593 53.9788 73.9793 54.4828 74.278C54.9868 74.5673 55.5608 74.712 56.2048 74.712ZM70.7393 76H69.1433L64.3413 68.734V76H62.7453V66.256H64.3413L69.1433 73.508V66.256H70.7393V76ZM76.0412 76.098C75.3878 76.098 74.7998 75.986 74.2772 75.762C73.7545 75.5287 73.3438 75.202 73.0452 74.782C72.7465 74.362 72.5972 73.872 72.5972 73.312H74.3052C74.3425 73.732 74.5058 74.0773 74.7952 74.348C75.0938 74.6187 75.5092 74.754 76.0412 74.754C76.5918 74.754 77.0212 74.6233 77.3292 74.362C77.6372 74.0913 77.7912 73.746 77.7912 73.326C77.7912 72.9993 77.6932 72.7333 77.4972 72.528C77.3105 72.3227 77.0725 72.164 76.7832 72.052C76.5032 71.94 76.1112 71.8187 75.6072 71.688C74.9725 71.52 74.4545 71.352 74.0532 71.184C73.6612 71.0067 73.3252 70.736 73.0452 70.372C72.7652 70.008 72.6252 69.5227 72.6252 68.916C72.6252 68.356 72.7652 67.866 73.0452 67.446C73.3252 67.026 73.7172 66.704 74.2212 66.48C74.7252 66.256 75.3085 66.144 75.9712 66.144C76.9138 66.144 77.6838 66.382 78.2812 66.858C78.8878 67.3247 79.2238 67.9687 79.2892 68.79H77.5252C77.4972 68.4353 77.3292 68.132 77.0212 67.88C76.7132 67.628 76.3072 67.502 75.8032 67.502C75.3458 67.502 74.9725 67.6187 74.6832 67.852C74.3938 68.0853 74.2492 68.4213 74.2492 68.86C74.2492 69.1587 74.3378 69.406 74.5152 69.602C74.7018 69.7887 74.9352 69.938 75.2152 70.05C75.4952 70.162 75.8778 70.2833 76.3632 70.414C77.0072 70.5913 77.5298 70.7687 77.9312 70.946C78.3418 71.1233 78.6872 71.3987 78.9672 71.772C79.2565 72.136 79.4012 72.626 79.4012 73.242C79.4012 73.7367 79.2658 74.2033 78.9952 74.642C78.7338 75.0807 78.3465 75.4353 77.8332 75.706C77.3292 75.9673 76.7318 76.098 76.0412 76.098ZM85.7224 76.098C84.817 76.098 83.9817 75.888 83.2164 75.468C82.4604 75.0387 81.8584 74.446 81.4104 73.69C80.9717 72.9247 80.7524 72.066 80.7524 71.114C80.7524 70.162 80.9717 69.308 81.4104 68.552C81.8584 67.796 82.4604 67.208 83.2164 66.788C83.9817 66.3587 84.817 66.144 85.7224 66.144C86.637 66.144 87.4724 66.3587 88.2284 66.788C88.9937 67.208 89.5957 67.796 90.0344 68.552C90.473 69.308 90.6924 70.162 90.6924 71.114C90.6924 72.066 90.473 72.9247 90.0344 73.69C89.5957 74.446 88.9937 75.0387 88.2284 75.468C87.4724 75.888 86.637 76.098 85.7224 76.098ZM85.7224 74.712C86.3664 74.712 86.9404 74.5673 87.4444 74.278C87.9484 73.9793 88.3404 73.5593 88.6204 73.018C88.9097 72.4673 89.0544 71.8327 89.0544 71.114C89.0544 70.3953 88.9097 69.7653 88.6204 69.224C88.3404 68.6827 87.9484 68.2673 87.4444 67.978C86.9404 67.6887 86.3664 67.544 85.7224 67.544C85.0784 67.544 84.5044 67.6887 84.0004 67.978C83.4964 68.2673 83.0997 68.6827 82.8104 69.224C82.5304 69.7653 82.3904 70.3953 82.3904 71.114C82.3904 71.8327 82.5304 72.4673 82.8104 73.018C83.0997 73.5593 83.4964 73.9793 84.0004 74.278C84.5044 74.5673 85.0784 74.712 85.7224 74.712ZM97.3169 76L95.0769 72.108H93.8589V76H92.2629V66.27H95.6229C96.3696 66.27 96.9996 66.4007 97.5129 66.662C98.0356 66.9233 98.4229 67.2733 98.6749 67.712C98.9362 68.1507 99.0669 68.6407 99.0669 69.182C99.0669 69.8167 98.8802 70.3953 98.5069 70.918C98.1429 71.4313 97.5782 71.7813 96.8129 71.968L99.2209 76H97.3169ZM93.8589 70.834H95.6229C96.2202 70.834 96.6682 70.6847 96.9669 70.386C97.2749 70.0873 97.4289 69.686 97.4289 69.182C97.4289 68.678 97.2796 68.286 96.9809 68.006C96.6822 67.7167 96.2296 67.572 95.6229 67.572H93.8589V70.834Z" fill="black"/>
<rect x="668" y="51" width="224" height="39" rx="6" fill="black"/>
<path d="M692.132 76L689.572 71.552H688.18V76H686.356V64.88H690.196C691.05 64.88 691.77 65.0293 692.356 65.328C692.954 65.6267 693.396 66.0267 693.684 66.528C693.983 67.0293 694.132 67.5893 694.132 68.208C694.132 68.9333 693.919 69.5947 693.492 70.192C693.076 70.7787 692.431 71.1787 691.556 71.392L694.308 76H692.132ZM688.18 70.096H690.196C690.879 70.096 691.391 69.9253 691.732 69.584C692.084 69.2427 692.26 68.784 692.26 68.208C692.26 67.632 692.09 67.184 691.748 66.864C691.407 66.5333 690.89 66.368 690.196 66.368H688.18V70.096ZM704.546 71.376C704.546 71.7067 704.524 72.0053 704.482 72.272H697.746C697.799 72.976 698.06 73.5413 698.53 73.968C698.999 74.3947 699.575 74.608 700.258 74.608C701.239 74.608 701.932 74.1973 702.338 73.376H704.306C704.039 74.1867 703.554 74.8533 702.85 75.376C702.156 75.888 701.292 76.144 700.258 76.144C699.415 76.144 698.658 75.9573 697.986 75.584C697.324 75.2 696.802 74.6667 696.418 73.984C696.044 73.2907 695.858 72.4907 695.858 71.584C695.858 70.6773 696.039 69.8827 696.402 69.2C696.775 68.5067 697.292 67.9733 697.954 67.6C698.626 67.2267 699.394 67.04 700.258 67.04C701.09 67.04 701.831 67.2213 702.482 67.584C703.132 67.9467 703.639 68.4587 704.002 69.12C704.364 69.7707 704.546 70.5227 704.546 71.376ZM702.642 70.8C702.631 70.128 702.391 69.5893 701.922 69.184C701.452 68.7787 700.871 68.576 700.178 68.576C699.548 68.576 699.01 68.7787 698.562 69.184C698.114 69.5787 697.847 70.1173 697.762 70.8H702.642ZM705.733 71.552C705.733 70.6667 705.914 69.8827 706.277 69.2C706.65 68.5173 707.151 67.9893 707.781 67.616C708.421 67.232 709.13 67.04 709.909 67.04C710.591 67.04 711.194 67.1787 711.717 67.456C712.25 67.7333 712.661 68.0693 712.949 68.464V67.184H714.789V80.192H712.949V74.72C712.661 75.1147 712.245 75.4507 711.701 75.728C711.157 76.0053 710.538 76.144 709.845 76.144C709.087 76.144 708.394 75.952 707.765 75.568C707.146 75.1733 706.65 74.6293 706.277 73.936C705.914 73.232 705.733 72.4373 705.733 71.552ZM712.949 71.584C712.949 70.976 712.821 70.448 712.565 70C712.319 69.552 711.994 69.2107 711.589 68.976C711.183 68.7413 710.746 68.624 710.277 68.624C709.807 68.624 709.37 68.7413 708.965 68.976C708.559 69.2 708.229 69.536 707.973 69.984C707.727 70.4213 707.605 70.944 707.605 71.552C707.605 72.16 707.727 72.6933 707.973 73.152C708.229 73.6107 708.559 73.9627 708.965 74.208C709.381 74.4427 709.818 74.56 710.277 74.56C710.746 74.56 711.183 74.4427 711.589 74.208C711.994 73.9733 712.319 73.632 712.565 73.184C712.821 72.7253 712.949 72.192 712.949 71.584ZM725.168 67.184V76H723.344V74.96C723.056 75.3227 722.678 75.6107 722.208 75.824C721.75 76.0267 721.259 76.128 720.736 76.128C720.043 76.128 719.419 75.984 718.864 75.696C718.32 75.408 717.888 74.9813 717.568 74.416C717.259 73.8507 717.104 73.168 717.104 72.368V67.184H718.912V72.096C718.912 72.8853 719.11 73.4933 719.504 73.92C719.899 74.336 720.438 74.544 721.12 74.544C721.803 74.544 722.342 74.336 722.736 73.92C723.142 73.4933 723.344 72.8853 723.344 72.096V67.184H725.168ZM735.655 71.376C735.655 71.7067 735.634 72.0053 735.591 72.272H728.855C728.908 72.976 729.17 73.5413 729.639 73.968C730.108 74.3947 730.684 74.608 731.367 74.608C732.348 74.608 733.042 74.1973 733.447 73.376H735.415C735.148 74.1867 734.663 74.8533 733.959 75.376C733.266 75.888 732.402 76.144 731.367 76.144C730.524 76.144 729.767 75.9573 729.095 75.584C728.434 75.2 727.911 74.6667 727.527 73.984C727.154 73.2907 726.967 72.4907 726.967 71.584C726.967 70.6773 727.148 69.8827 727.511 69.2C727.884 68.5067 728.402 67.9733 729.063 67.6C729.735 67.2267 730.503 67.04 731.367 67.04C732.199 67.04 732.94 67.2213 733.591 67.584C734.242 67.9467 734.748 68.4587 735.111 69.12C735.474 69.7707 735.655 70.5227 735.655 71.376ZM733.751 70.8C733.74 70.128 733.5 69.5893 733.031 69.184C732.562 68.7787 731.98 68.576 731.287 68.576C730.658 68.576 730.119 68.7787 729.671 69.184C729.223 69.5787 728.956 70.1173 728.871 70.8H733.751ZM740.65 76.144C739.957 76.144 739.333 76.0213 738.778 75.776C738.234 75.52 737.802 75.1787 737.482 74.752C737.162 74.3147 736.991 73.8293 736.97 73.296H738.858C738.89 73.6693 739.066 73.984 739.386 74.24C739.717 74.4853 740.127 74.608 740.618 74.608C741.13 74.608 741.525 74.512 741.802 74.32C742.09 74.1173 742.234 73.8613 742.234 73.552C742.234 73.2213 742.074 72.976 741.754 72.816C741.445 72.656 740.949 72.48 740.266 72.288C739.605 72.1067 739.066 71.9307 738.65 71.76C738.234 71.5893 737.871 71.328 737.562 70.976C737.263 70.624 737.114 70.16 737.114 69.584C737.114 69.1147 737.253 68.688 737.53 68.304C737.807 67.9093 738.202 67.6 738.714 67.376C739.237 67.152 739.834 67.04 740.506 67.04C741.509 67.04 742.314 67.296 742.922 67.808C743.541 68.3093 743.871 68.9973 743.914 69.872H742.09C742.058 69.4773 741.898 69.1627 741.61 68.928C741.322 68.6933 740.933 68.576 740.442 68.576C739.962 68.576 739.594 68.6667 739.338 68.848C739.082 69.0293 738.954 69.2693 738.954 69.568C738.954 69.8027 739.039 70 739.21 70.16C739.381 70.32 739.589 70.448 739.834 70.544C740.079 70.6293 740.442 70.7413 740.922 70.88C741.562 71.0507 742.085 71.2267 742.49 71.408C742.906 71.5787 743.263 71.8347 743.562 72.176C743.861 72.5173 744.015 72.9707 744.026 73.536C744.026 74.0373 743.887 74.4853 743.61 74.88C743.333 75.2747 742.938 75.584 742.426 75.808C741.925 76.032 741.333 76.144 740.65 76.144ZM748.125 68.672V73.552C748.125 73.8827 748.2 74.1227 748.349 74.272C748.509 74.4107 748.776 74.48 749.149 74.48H750.269V76H748.829C748.008 76 747.378 75.808 746.941 75.424C746.504 75.04 746.285 74.416 746.285 73.552V68.672H745.245V67.184H746.285V64.992H748.125V67.184H750.269V68.672H748.125ZM755.498 71.552C755.498 70.6667 755.68 69.8827 756.042 69.2C756.416 68.5173 756.917 67.9893 757.546 67.616C758.186 67.232 758.89 67.04 759.658 67.04C760.352 67.04 760.954 67.1787 761.466 67.456C761.989 67.7227 762.405 68.0587 762.714 68.464V67.184H764.554V76H762.714V74.688C762.405 75.104 761.984 75.4507 761.45 75.728C760.917 76.0053 760.309 76.144 759.626 76.144C758.869 76.144 758.176 75.952 757.546 75.568C756.917 75.1733 756.416 74.6293 756.042 73.936C755.68 73.232 755.498 72.4373 755.498 71.552ZM762.714 71.584C762.714 70.976 762.586 70.448 762.33 70C762.085 69.552 761.76 69.2107 761.354 68.976C760.949 68.7413 760.512 68.624 760.042 68.624C759.573 68.624 759.136 68.7413 758.73 68.976C758.325 69.2 757.994 69.536 757.738 69.984C757.493 70.4213 757.37 70.944 757.37 71.552C757.37 72.16 757.493 72.6933 757.738 73.152C757.994 73.6107 758.325 73.9627 758.73 74.208C759.146 74.4427 759.584 74.56 760.042 74.56C760.512 74.56 760.949 74.4427 761.354 74.208C761.76 73.9733 762.085 73.632 762.33 73.184C762.586 72.7253 762.714 72.192 762.714 71.584ZM772.93 68.48C773.24 68.0747 773.661 67.7333 774.194 67.456C774.728 67.1787 775.33 67.04 776.002 67.04C776.77 67.04 777.469 67.232 778.098 67.616C778.738 67.9893 779.24 68.5173 779.602 69.2C779.965 69.8827 780.146 70.6667 780.146 71.552C780.146 72.4373 779.965 73.232 779.602 73.936C779.24 74.6293 778.738 75.1733 778.098 75.568C777.469 75.952 776.77 76.144 776.002 76.144C775.33 76.144 774.733 76.0107 774.21 75.744C773.688 75.4667 773.261 75.1253 772.93 74.72V80.192H771.106V67.184H772.93V68.48ZM778.29 71.552C778.29 70.944 778.162 70.4213 777.906 69.984C777.661 69.536 777.33 69.2 776.914 68.976C776.509 68.7413 776.072 68.624 775.602 68.624C775.144 68.624 774.706 68.7413 774.29 68.976C773.885 69.2107 773.554 69.552 773.298 70C773.053 70.448 772.93 70.976 772.93 71.584C772.93 72.192 773.053 72.7253 773.298 73.184C773.554 73.632 773.885 73.9733 774.29 74.208C774.706 74.4427 775.144 74.56 775.602 74.56C776.072 74.56 776.509 74.4427 776.914 74.208C777.33 73.9627 777.661 73.6107 777.906 73.152C778.162 72.6933 778.29 72.16 778.29 71.552ZM783.774 68.464C784.041 68.016 784.393 67.6693 784.83 67.424C785.278 67.168 785.806 67.04 786.414 67.04V68.928H785.95C785.235 68.928 784.691 69.1093 784.318 69.472C783.955 69.8347 783.774 70.464 783.774 71.36V76H781.95V67.184H783.774V68.464ZM796.171 71.376C796.171 71.7067 796.149 72.0053 796.107 72.272H789.371C789.424 72.976 789.685 73.5413 790.155 73.968C790.624 74.3947 791.2 74.608 791.883 74.608C792.864 74.608 793.557 74.1973 793.963 73.376H795.931C795.664 74.1867 795.179 74.8533 794.475 75.376C793.781 75.888 792.917 76.144 791.883 76.144C791.04 76.144 790.283 75.9573 789.611 75.584C788.949 75.2 788.427 74.6667 788.043 73.984C787.669 73.2907 787.483 72.4907 787.483 71.584C787.483 70.6773 787.664 69.8827 788.027 69.2C788.4 68.5067 788.917 67.9733 789.579 67.6C790.251 67.2267 791.019 67.04 791.883 67.04C792.715 67.04 793.456 67.2213 794.107 67.584C794.757 67.9467 795.264 68.4587 795.627 69.12C795.989 69.7707 796.171 70.5227 796.171 71.376ZM794.267 70.8C794.256 70.128 794.016 69.5893 793.547 69.184C793.077 68.7787 792.496 68.576 791.803 68.576C791.173 68.576 790.635 68.7787 790.187 69.184C789.739 69.5787 789.472 70.1173 789.387 70.8H794.267ZM801.374 74.368L803.87 67.184H805.806L802.446 76H800.27L796.926 67.184H798.878L801.374 74.368ZM808.112 66.016C807.782 66.016 807.504 65.904 807.28 65.68C807.056 65.456 806.944 65.1787 806.944 64.848C806.944 64.5173 807.056 64.24 807.28 64.016C807.504 63.792 807.782 63.68 808.112 63.68C808.432 63.68 808.704 63.792 808.928 64.016C809.152 64.24 809.264 64.5173 809.264 64.848C809.264 65.1787 809.152 65.456 808.928 65.68C808.704 65.904 808.432 66.016 808.112 66.016ZM809.008 67.184V76H807.184V67.184H809.008ZM819.483 71.376C819.483 71.7067 819.462 72.0053 819.419 72.272H812.683C812.736 72.976 812.998 73.5413 813.467 73.968C813.936 74.3947 814.512 74.608 815.195 74.608C816.176 74.608 816.87 74.1973 817.275 73.376H819.243C818.976 74.1867 818.491 74.8533 817.787 75.376C817.094 75.888 816.23 76.144 815.195 76.144C814.352 76.144 813.595 75.9573 812.923 75.584C812.262 75.2 811.739 74.6667 811.355 73.984C810.982 73.2907 810.795 72.4907 810.795 71.584C810.795 70.6773 810.976 69.8827 811.339 69.2C811.712 68.5067 812.23 67.9733 812.891 67.6C813.563 67.2267 814.331 67.04 815.195 67.04C816.027 67.04 816.768 67.2213 817.419 67.584C818.07 67.9467 818.576 68.4587 818.939 69.12C819.302 69.7707 819.483 70.5227 819.483 71.376ZM817.579 70.8C817.568 70.128 817.328 69.5893 816.859 69.184C816.39 68.7787 815.808 68.576 815.115 68.576C814.486 68.576 813.947 68.7787 813.499 69.184C813.051 69.5787 812.784 70.1173 812.699 70.8H817.579ZM833.118 67.184L830.382 76H828.462L826.686 69.488L824.91 76H822.99L820.238 67.184H822.094L823.934 74.272L825.806 67.184H827.71L829.502 74.24L831.326 67.184H833.118Z" fill="white"/>
<path d="M871.707 71.7071C872.098 71.3166 872.098 70.6834 871.707 70.2929L865.343 63.9289C864.953 63.5384 864.319 63.5384 863.929 63.9289C863.538 64.3195 863.538 64.9526 863.929 65.3431L869.586 71L863.929 76.6569C863.538 77.0474 863.538 77.6805 863.929 78.0711C864.319 78.4616 864.953 78.4616 865.343 78.0711L871.707 71.7071ZM852 72H871V70H852V72Z" fill="white"/>
</svg>
