<svg width="910" height="141" viewBox="0 0 910 141" fill="none" xmlns="http://www.w3.org/2000/svg">
<rect x="2" y="31" width="908" height="80" rx="21" fill="#EEEEEE"/>
<path fill-rule="evenodd" clip-rule="evenodd" d="M185.052 53.2667H176.565H176.56C171.871 53.2667 169.157 55.6827 169.157 60.3219V63.2201H163.089V69.1128H169.157V87.0857H176.067V69.1128H183.569V63.2201H176.067V61.1415C176.067 59.738 176.855 59.1594 178.289 59.1594H185.052V53.2667ZM195.805 62.4981C188.599 62.4981 183.664 67.4267 183.664 75.0123H183.669C183.669 82.7425 188.605 87.8156 196.057 87.8156C202.273 87.8156 206.021 84.7246 207.455 79.989H200.396C199.75 81.2961 198.322 82.2121 196.101 82.2121C192.796 82.2121 190.772 80.5675 190.476 77.5729H207.75C207.848 76.5604 207.898 75.6872 207.898 74.8194C207.898 67.2338 203.012 62.4981 195.805 62.4981ZM200.938 72.3551V72.4516H190.427C190.624 69.6499 192.451 67.8124 195.805 67.8124C199.16 67.8124 200.938 69.6499 200.938 72.3551ZM210.313 63.2194H216.381V67.4246C216.972 64.7194 218.947 63.2194 222.055 63.2194H226.399V64.039C226.399 66.8408 224.079 69.1121 221.218 69.1121C218.504 69.1121 217.218 70.4675 217.218 73.1728V87.0905H210.307V63.2194H210.313ZM234.905 63.2207H228.837H228.832V87.0865H235.743V73.5116C235.743 70.4689 237.57 68.5831 240.333 68.5831C243.096 68.5831 244.579 70.1313 244.579 73.3188V87.0918H251.49V72.5956C251.49 66.2688 247.736 62.4975 241.767 62.4975C238.954 62.4975 236.339 63.5582 234.905 65.6368V63.2207Z" fill="#081008"/>
<path d="M153.649 70.1737C151.328 68.2517 147.83 67.4813 144.73 69.725C144.587 69.8265 144.409 69.653 144.518 69.5175C145.253 68.5904 146.105 67.5914 146.792 66.588C147.492 65.5594 148.539 64.8228 149.745 64.463C156.166 62.558 154.238 53.27 154.238 53.27C154.238 53.27 144.319 53.8965 145.542 62.2743C145.746 63.6755 145.365 65.1022 144.47 66.2156C143.372 67.5745 142.096 68.8741 141.171 69.8139C140.976 70.0086 140.648 69.8223 140.726 69.5599C141.621 66.6093 142.274 62.0457 139.173 59.1036L134.811 55.556L133.972 56.6397C131.477 59.8614 132.208 64.4037 135.502 66.842C137.392 68.2391 138.248 69.7589 138.114 71.4268C138.032 72.4258 137.569 73.3614 136.877 74.1023C135.576 75.4992 134.361 76.9979 133.423 78.7335C133.293 78.9748 132.917 78.8817 132.93 78.6065C133.064 75.7405 132.783 69.2805 127.854 66.9733L122.336 64.8862L121.908 66.1351C120.52 70.1652 122.79 74.4705 126.902 75.8379C130.478 77.0274 131.754 79.2838 130.893 82.6663C130.854 82.789 130.232 86.273 130.318 87.8182H134.283C134.417 85.4221 136.986 83.8473 139.212 84.8252C139.839 85.1005 140.484 85.4941 141.145 86.0022C144.691 88.7369 149.914 88.0892 152.703 84.6136L153.498 83.623L148.483 80.0966C145.041 77.4466 140.449 78.6446 137.05 80.9136C136.765 81.1042 136.402 80.7994 136.562 80.4946C140.669 72.6036 146.009 72.6206 148.102 74.3732C150.64 76.4983 154.484 76.1173 156.637 73.6238L157.256 72.9085L153.645 70.1737H153.649Z" fill="#081008"/>
<path d="M279.835 54.575V65H278.125V54.575H279.835ZM286.25 56.6C286.9 56.6 287.48 56.735 287.99 57.005C288.51 57.275 288.915 57.675 289.205 58.205C289.495 58.735 289.64 59.375 289.64 60.125V65H287.945V60.38C287.945 59.64 287.76 59.075 287.39 58.685C287.02 58.285 286.515 58.085 285.875 58.085C285.235 58.085 284.725 58.285 284.345 58.685C283.975 59.075 283.79 59.64 283.79 60.38V65H282.08V56.735H283.79V57.68C284.07 57.34 284.425 57.075 284.855 56.885C285.295 56.695 285.76 56.6 286.25 56.6ZM293.531 57.95C293.821 57.57 294.216 57.25 294.716 56.99C295.216 56.73 295.781 56.6 296.411 56.6C297.131 56.6 297.786 56.78 298.376 57.14C298.976 57.49 299.446 57.985 299.786 58.625C300.126 59.265 300.296 60 300.296 60.83C300.296 61.66 300.126 62.405 299.786 63.065C299.446 63.715 298.976 64.225 298.376 64.595C297.786 64.955 297.131 65.135 296.411 65.135C295.781 65.135 295.221 65.01 294.731 64.76C294.241 64.5 293.841 64.18 293.531 63.8V68.93H291.821V56.735H293.531V57.95ZM298.556 60.83C298.556 60.26 298.436 59.77 298.196 59.36C297.966 58.94 297.656 58.625 297.266 58.415C296.886 58.195 296.476 58.085 296.036 58.085C295.606 58.085 295.196 58.195 294.806 58.415C294.426 58.635 294.116 58.955 293.876 59.375C293.646 59.795 293.531 60.29 293.531 60.86C293.531 61.43 293.646 61.93 293.876 62.36C294.116 62.78 294.426 63.1 294.806 63.32C295.196 63.54 295.606 63.65 296.036 63.65C296.476 63.65 296.886 63.54 297.266 63.32C297.656 63.09 297.966 62.76 298.196 62.33C298.436 61.9 298.556 61.4 298.556 60.83ZM309.472 56.735V65H307.762V64.025C307.492 64.365 307.137 64.635 306.697 64.835C306.267 65.025 305.807 65.12 305.317 65.12C304.667 65.12 304.082 64.985 303.562 64.715C303.052 64.445 302.647 64.045 302.347 63.515C302.057 62.985 301.912 62.345 301.912 61.595V56.735H303.607V61.34C303.607 62.08 303.792 62.65 304.162 63.05C304.532 63.44 305.037 63.635 305.677 63.635C306.317 63.635 306.822 63.44 307.192 63.05C307.572 62.65 307.762 62.08 307.762 61.34V56.735H309.472ZM313.724 58.13V62.705C313.724 63.015 313.794 63.24 313.934 63.38C314.084 63.51 314.334 63.575 314.684 63.575H315.734V65H314.384C313.614 65 313.024 64.82 312.614 64.46C312.204 64.1 311.999 63.515 311.999 62.705V58.13H311.024V56.735H311.999V54.68H313.724V56.735H315.734V58.13H313.724ZM320.636 60.83C320.636 60 320.806 59.265 321.146 58.625C321.496 57.985 321.966 57.49 322.556 57.14C323.156 56.78 323.816 56.6 324.536 56.6C325.186 56.6 325.751 56.73 326.231 56.99C326.721 57.24 327.111 57.555 327.401 57.935V56.735H329.126V65H327.401V63.77C327.111 64.16 326.716 64.485 326.216 64.745C325.716 65.005 325.146 65.135 324.506 65.135C323.796 65.135 323.146 64.955 322.556 64.595C321.966 64.225 321.496 63.715 321.146 63.065C320.806 62.405 320.636 61.66 320.636 60.83ZM327.401 60.86C327.401 60.29 327.281 59.795 327.041 59.375C326.811 58.955 326.506 58.635 326.126 58.415C325.746 58.195 325.336 58.085 324.896 58.085C324.456 58.085 324.046 58.195 323.666 58.415C323.286 58.625 322.976 58.94 322.736 59.36C322.506 59.77 322.391 60.26 322.391 60.83C322.391 61.4 322.506 61.9 322.736 62.33C322.976 62.76 323.286 63.09 323.666 63.32C324.056 63.54 324.466 63.65 324.896 63.65C325.336 63.65 325.746 63.54 326.126 63.32C326.506 63.1 326.811 62.78 327.041 62.36C327.281 61.93 327.401 61.43 327.401 60.86ZM335.542 56.6C336.192 56.6 336.772 56.735 337.282 57.005C337.802 57.275 338.207 57.675 338.497 58.205C338.787 58.735 338.932 59.375 338.932 60.125V65H337.237V60.38C337.237 59.64 337.052 59.075 336.682 58.685C336.312 58.285 335.807 58.085 335.167 58.085C334.527 58.085 334.017 58.285 333.637 58.685C333.267 59.075 333.082 59.64 333.082 60.38V65H331.372V56.735H333.082V57.68C333.362 57.34 333.717 57.075 334.147 56.885C334.587 56.695 335.052 56.6 335.542 56.6ZM349.765 65.105C348.795 65.105 347.9 64.88 347.08 64.43C346.27 63.97 345.625 63.335 345.145 62.525C344.675 61.705 344.44 60.785 344.44 59.765C344.44 58.745 344.675 57.83 345.145 57.02C345.625 56.21 346.27 55.58 347.08 55.13C347.9 54.67 348.795 54.44 349.765 54.44C350.745 54.44 351.64 54.67 352.45 55.13C353.27 55.58 353.915 56.21 354.385 57.02C354.855 57.83 355.09 58.745 355.09 59.765C355.09 60.785 354.855 61.705 354.385 62.525C353.915 63.335 353.27 63.97 352.45 64.43C351.64 64.88 350.745 65.105 349.765 65.105ZM349.765 63.62C350.455 63.62 351.07 63.465 351.61 63.155C352.15 62.835 352.57 62.385 352.87 61.805C353.18 61.215 353.335 60.535 353.335 59.765C353.335 58.995 353.18 58.32 352.87 57.74C352.57 57.16 352.15 56.715 351.61 56.405C351.07 56.095 350.455 55.94 349.765 55.94C349.075 55.94 348.46 56.095 347.92 56.405C347.38 56.715 346.955 57.16 346.645 57.74C346.345 58.32 346.195 58.995 346.195 59.765C346.195 60.535 346.345 61.215 346.645 61.805C346.955 62.385 347.38 62.835 347.92 63.155C348.46 63.465 349.075 63.62 349.765 63.62ZM358.482 57.95C358.772 57.57 359.167 57.25 359.667 56.99C360.167 56.73 360.732 56.6 361.362 56.6C362.082 56.6 362.737 56.78 363.327 57.14C363.927 57.49 364.397 57.985 364.737 58.625C365.077 59.265 365.247 60 365.247 60.83C365.247 61.66 365.077 62.405 364.737 63.065C364.397 63.715 363.927 64.225 363.327 64.595C362.737 64.955 362.082 65.135 361.362 65.135C360.732 65.135 360.172 65.01 359.682 64.76C359.192 64.5 358.792 64.18 358.482 63.8V68.93H356.772V56.735H358.482V57.95ZM363.507 60.83C363.507 60.26 363.387 59.77 363.147 59.36C362.917 58.94 362.607 58.625 362.217 58.415C361.837 58.195 361.427 58.085 360.987 58.085C360.557 58.085 360.147 58.195 359.757 58.415C359.377 58.635 359.067 58.955 358.827 59.375C358.597 59.795 358.482 60.29 358.482 60.86C358.482 61.43 358.597 61.93 358.827 62.36C359.067 62.78 359.377 63.1 359.757 63.32C360.147 63.54 360.557 63.65 360.987 63.65C361.427 63.65 361.837 63.54 362.217 63.32C362.607 63.09 362.917 62.76 363.147 62.33C363.387 61.9 363.507 61.4 363.507 60.83ZM374.513 60.665C374.513 60.975 374.493 61.255 374.453 61.505H368.138C368.188 62.165 368.433 62.695 368.873 63.095C369.313 63.495 369.853 63.695 370.493 63.695C371.413 63.695 372.063 63.31 372.443 62.54H374.288C374.038 63.3 373.583 63.925 372.923 64.415C372.273 64.895 371.463 65.135 370.493 65.135C369.703 65.135 368.993 64.96 368.363 64.61C367.743 64.25 367.253 63.75 366.893 63.11C366.543 62.46 366.368 61.71 366.368 60.86C366.368 60.01 366.538 59.265 366.878 58.625C367.228 57.975 367.713 57.475 368.333 57.125C368.963 56.775 369.683 56.6 370.493 56.6C371.273 56.6 371.968 56.77 372.578 57.11C373.188 57.45 373.663 57.93 374.003 58.55C374.343 59.16 374.513 59.865 374.513 60.665ZM372.728 60.125C372.718 59.495 372.493 58.99 372.053 58.61C371.613 58.23 371.068 58.04 370.418 58.04C369.828 58.04 369.323 58.23 368.903 58.61C368.483 58.98 368.233 59.485 368.153 60.125H372.728ZM380.366 56.6C381.016 56.6 381.596 56.735 382.106 57.005C382.626 57.275 383.031 57.675 383.321 58.205C383.611 58.735 383.756 59.375 383.756 60.125V65H382.061V60.38C382.061 59.64 381.876 59.075 381.506 58.685C381.136 58.285 380.631 58.085 379.991 58.085C379.351 58.085 378.841 58.285 378.461 58.685C378.091 59.075 377.906 59.64 377.906 60.38V65H376.196V56.735H377.906V57.68C378.186 57.34 378.541 57.075 378.971 56.885C379.411 56.695 379.876 56.6 380.366 56.6ZM392.223 62.87H387.858L387.108 65H385.323L389.058 54.56H391.038L394.773 65H392.973L392.223 62.87ZM391.743 61.475L390.048 56.63L388.338 61.475H391.743ZM403.686 57.68C403.686 58.21 403.561 58.71 403.311 59.18C403.061 59.65 402.661 60.035 402.111 60.335C401.561 60.625 400.856 60.77 399.996 60.77H398.106V65H396.396V54.575H399.996C400.796 54.575 401.471 54.715 402.021 54.995C402.581 55.265 402.996 55.635 403.266 56.105C403.546 56.575 403.686 57.1 403.686 57.68ZM399.996 59.375C400.646 59.375 401.131 59.23 401.451 58.94C401.771 58.64 401.931 58.22 401.931 57.68C401.931 56.54 401.286 55.97 399.996 55.97H398.106V59.375H399.996ZM407.027 54.575V65H405.317V54.575H407.027ZM416.169 65.135C415.519 65.135 414.934 65.02 414.414 64.79C413.904 64.55 413.499 64.23 413.199 63.83C412.899 63.42 412.739 62.965 412.719 62.465H414.489C414.519 62.815 414.684 63.11 414.984 63.35C415.294 63.58 415.679 63.695 416.139 63.695C416.619 63.695 416.989 63.605 417.249 63.425C417.519 63.235 417.654 62.995 417.654 62.705C417.654 62.395 417.504 62.165 417.204 62.015C416.914 61.865 416.449 61.7 415.809 61.52C415.189 61.35 414.684 61.185 414.294 61.025C413.904 60.865 413.564 60.62 413.274 60.29C412.994 59.96 412.854 59.525 412.854 58.985C412.854 58.545 412.984 58.145 413.244 57.785C413.504 57.415 413.874 57.125 414.354 56.915C414.844 56.705 415.404 56.6 416.034 56.6C416.974 56.6 417.729 56.84 418.299 57.32C418.879 57.79 419.189 58.435 419.229 59.255H417.519C417.489 58.885 417.339 58.59 417.069 58.37C416.799 58.15 416.434 58.04 415.974 58.04C415.524 58.04 415.179 58.125 414.939 58.295C414.699 58.465 414.579 58.69 414.579 58.97C414.579 59.19 414.659 59.375 414.819 59.525C414.979 59.675 415.174 59.795 415.404 59.885C415.634 59.965 415.974 60.07 416.424 60.2C417.024 60.36 417.514 60.525 417.894 60.695C418.284 60.855 418.619 61.095 418.899 61.415C419.179 61.735 419.324 62.16 419.334 62.69C419.334 63.16 419.204 63.58 418.944 63.95C418.684 64.32 418.314 64.61 417.834 64.82C417.364 65.03 416.809 65.135 416.169 65.135ZM422.892 57.95C423.182 57.57 423.577 57.25 424.077 56.99C424.577 56.73 425.142 56.6 425.772 56.6C426.492 56.6 427.147 56.78 427.737 57.14C428.337 57.49 428.807 57.985 429.147 58.625C429.487 59.265 429.657 60 429.657 60.83C429.657 61.66 429.487 62.405 429.147 63.065C428.807 63.715 428.337 64.225 427.737 64.595C427.147 64.955 426.492 65.135 425.772 65.135C425.142 65.135 424.582 65.01 424.092 64.76C423.602 64.5 423.202 64.18 422.892 63.8V68.93H421.182V56.735H422.892V57.95ZM427.917 60.83C427.917 60.26 427.797 59.77 427.557 59.36C427.327 58.94 427.017 58.625 426.627 58.415C426.247 58.195 425.837 58.085 425.397 58.085C424.967 58.085 424.557 58.195 424.167 58.415C423.787 58.635 423.477 58.955 423.237 59.375C423.007 59.795 422.892 60.29 422.892 60.86C422.892 61.43 423.007 61.93 423.237 62.36C423.477 62.78 423.787 63.1 424.167 63.32C424.557 63.54 424.967 63.65 425.397 63.65C425.837 63.65 426.247 63.54 426.627 63.32C427.017 63.09 427.327 62.76 427.557 62.33C427.797 61.9 427.917 61.4 427.917 60.83ZM438.923 60.665C438.923 60.975 438.903 61.255 438.863 61.505H432.548C432.598 62.165 432.843 62.695 433.283 63.095C433.723 63.495 434.263 63.695 434.903 63.695C435.823 63.695 436.473 63.31 436.853 62.54H438.698C438.448 63.3 437.993 63.925 437.333 64.415C436.683 64.895 435.873 65.135 434.903 65.135C434.113 65.135 433.403 64.96 432.773 64.61C432.153 64.25 431.663 63.75 431.303 63.11C430.953 62.46 430.778 61.71 430.778 60.86C430.778 60.01 430.948 59.265 431.288 58.625C431.638 57.975 432.123 57.475 432.743 57.125C433.373 56.775 434.093 56.6 434.903 56.6C435.683 56.6 436.378 56.77 436.988 57.11C437.598 57.45 438.073 57.93 438.413 58.55C438.753 59.16 438.923 59.865 438.923 60.665ZM437.138 60.125C437.128 59.495 436.903 58.99 436.463 58.61C436.023 58.23 435.478 58.04 434.828 58.04C434.238 58.04 433.733 58.23 433.313 58.61C432.893 58.98 432.643 59.485 432.563 60.125H437.138ZM440.035 60.86C440.035 60.01 440.205 59.265 440.545 58.625C440.895 57.975 441.375 57.475 441.985 57.125C442.595 56.775 443.295 56.6 444.085 56.6C445.085 56.6 445.91 56.84 446.56 57.32C447.22 57.79 447.665 58.465 447.895 59.345H446.05C445.9 58.935 445.66 58.615 445.33 58.385C445 58.155 444.585 58.04 444.085 58.04C443.385 58.04 442.825 58.29 442.405 58.79C441.995 59.28 441.79 59.97 441.79 60.86C441.79 61.75 441.995 62.445 442.405 62.945C442.825 63.445 443.385 63.695 444.085 63.695C445.075 63.695 445.73 63.26 446.05 62.39H447.895C447.655 63.23 447.205 63.9 446.545 64.4C445.885 64.89 445.065 65.135 444.085 65.135C443.295 65.135 442.595 64.96 441.985 64.61C441.375 64.25 440.895 63.75 440.545 63.11C440.205 62.46 440.035 61.71 440.035 60.86ZM452.926 60.83C452.926 60 453.096 59.265 453.436 58.625C453.786 57.985 454.256 57.49 454.846 57.14C455.446 56.78 456.106 56.6 456.826 56.6C457.476 56.6 458.041 56.73 458.521 56.99C459.011 57.24 459.401 57.555 459.691 57.935V56.735H461.416V65H459.691V63.77C459.401 64.16 459.006 64.485 458.506 64.745C458.006 65.005 457.436 65.135 456.796 65.135C456.086 65.135 455.436 64.955 454.846 64.595C454.256 64.225 453.786 63.715 453.436 63.065C453.096 62.405 452.926 61.66 452.926 60.83ZM459.691 60.86C459.691 60.29 459.571 59.795 459.331 59.375C459.101 58.955 458.796 58.635 458.416 58.415C458.036 58.195 457.626 58.085 457.186 58.085C456.746 58.085 456.336 58.195 455.956 58.415C455.576 58.625 455.266 58.94 455.026 59.36C454.796 59.77 454.681 60.26 454.681 60.83C454.681 61.4 454.796 61.9 455.026 62.33C455.266 62.76 455.576 63.09 455.956 63.32C456.346 63.54 456.756 63.65 457.186 63.65C457.626 63.65 458.036 63.54 458.416 63.32C458.796 63.1 459.101 62.78 459.331 62.36C459.571 61.93 459.691 61.43 459.691 60.86ZM467.832 56.6C468.482 56.6 469.062 56.735 469.572 57.005C470.092 57.275 470.497 57.675 470.787 58.205C471.077 58.735 471.222 59.375 471.222 60.125V65H469.527V60.38C469.527 59.64 469.342 59.075 468.972 58.685C468.602 58.285 468.097 58.085 467.457 58.085C466.817 58.085 466.307 58.285 465.927 58.685C465.557 59.075 465.372 59.64 465.372 60.38V65H463.662V56.735H465.372V57.68C465.652 57.34 466.007 57.075 466.437 56.885C466.877 56.695 467.342 56.6 467.832 56.6ZM472.833 60.83C472.833 60 473.003 59.265 473.343 58.625C473.693 57.985 474.163 57.49 474.753 57.14C475.353 56.78 476.018 56.6 476.748 56.6C477.288 56.6 477.818 56.72 478.338 56.96C478.868 57.19 479.288 57.5 479.598 57.89V53.9H481.323V65H479.598V63.755C479.318 64.155 478.928 64.485 478.428 64.745C477.938 65.005 477.373 65.135 476.733 65.135C476.013 65.135 475.353 64.955 474.753 64.595C474.163 64.225 473.693 63.715 473.343 63.065C473.003 62.405 472.833 61.66 472.833 60.83ZM479.598 60.86C479.598 60.29 479.478 59.795 479.238 59.375C479.008 58.955 478.703 58.635 478.323 58.415C477.943 58.195 477.533 58.085 477.093 58.085C476.653 58.085 476.243 58.195 475.863 58.415C475.483 58.625 475.173 58.94 474.933 59.36C474.703 59.77 474.588 60.26 474.588 60.83C474.588 61.4 474.703 61.9 474.933 62.33C475.173 62.76 475.483 63.09 475.863 63.32C476.253 63.54 476.663 63.65 477.093 63.65C477.533 63.65 477.943 63.54 478.323 63.32C478.703 63.1 479.008 62.78 479.238 62.36C479.478 61.93 479.598 61.43 479.598 60.86ZM490.796 56.6C491.436 56.6 492.001 56.73 492.491 56.99C492.991 57.24 493.381 57.555 493.661 57.935V56.735H495.386V65.135C495.386 65.895 495.226 66.57 494.906 67.16C494.586 67.76 494.121 68.23 493.511 68.57C492.911 68.91 492.191 69.08 491.351 69.08C490.231 69.08 489.301 68.815 488.561 68.285C487.821 67.765 487.401 67.055 487.301 66.155H488.996C489.126 66.585 489.401 66.93 489.821 67.19C490.251 67.46 490.761 67.595 491.351 67.595C492.041 67.595 492.596 67.385 493.016 66.965C493.446 66.545 493.661 65.935 493.661 65.135V63.755C493.371 64.145 492.976 64.475 492.476 64.745C491.986 65.005 491.426 65.135 490.796 65.135C490.076 65.135 489.416 64.955 488.816 64.595C488.226 64.225 487.756 63.715 487.406 63.065C487.066 62.405 486.896 61.66 486.896 60.83C486.896 60 487.066 59.265 487.406 58.625C487.756 57.985 488.226 57.49 488.816 57.14C489.416 56.78 490.076 56.6 490.796 56.6ZM493.661 60.86C493.661 60.29 493.541 59.795 493.301 59.375C493.071 58.955 492.766 58.635 492.386 58.415C492.006 58.195 491.596 58.085 491.156 58.085C490.716 58.085 490.306 58.195 489.926 58.415C489.546 58.625 489.236 58.94 488.996 59.36C488.766 59.77 488.651 60.26 488.651 60.83C488.651 61.4 488.766 61.9 488.996 62.33C489.236 62.76 489.546 63.09 489.926 63.32C490.316 63.54 490.726 63.65 491.156 63.65C491.596 63.65 492.006 63.54 492.386 63.32C492.766 63.1 493.071 62.78 493.301 62.36C493.541 61.93 493.661 61.43 493.661 60.86ZM505.207 60.665C505.207 60.975 505.187 61.255 505.147 61.505H498.832C498.882 62.165 499.127 62.695 499.567 63.095C500.007 63.495 500.547 63.695 501.187 63.695C502.107 63.695 502.757 63.31 503.137 62.54H504.982C504.732 63.3 504.277 63.925 503.617 64.415C502.967 64.895 502.157 65.135 501.187 65.135C500.397 65.135 499.687 64.96 499.057 64.61C498.437 64.25 497.947 63.75 497.587 63.11C497.237 62.46 497.062 61.71 497.062 60.86C497.062 60.01 497.232 59.265 497.572 58.625C497.922 57.975 498.407 57.475 499.027 57.125C499.657 56.775 500.377 56.6 501.187 56.6C501.967 56.6 502.662 56.77 503.272 57.11C503.882 57.45 504.357 57.93 504.697 58.55C505.037 59.16 505.207 59.865 505.207 60.665ZM503.422 60.125C503.412 59.495 503.187 58.99 502.747 58.61C502.307 58.23 501.762 58.04 501.112 58.04C500.522 58.04 500.017 58.23 499.597 58.61C499.177 58.98 498.927 59.485 498.847 60.125H503.422ZM511.06 56.6C511.71 56.6 512.29 56.735 512.8 57.005C513.32 57.275 513.725 57.675 514.015 58.205C514.305 58.735 514.45 59.375 514.45 60.125V65H512.755V60.38C512.755 59.64 512.57 59.075 512.2 58.685C511.83 58.285 511.325 58.085 510.685 58.085C510.045 58.085 509.535 58.285 509.155 58.685C508.785 59.075 508.6 59.64 508.6 60.38V65H506.89V56.735H508.6V57.68C508.88 57.34 509.235 57.075 509.665 56.885C510.105 56.695 510.57 56.6 511.06 56.6ZM524.206 60.665C524.206 60.975 524.186 61.255 524.146 61.505H517.831C517.881 62.165 518.126 62.695 518.566 63.095C519.006 63.495 519.546 63.695 520.186 63.695C521.106 63.695 521.756 63.31 522.136 62.54H523.981C523.731 63.3 523.276 63.925 522.616 64.415C521.966 64.895 521.156 65.135 520.186 65.135C519.396 65.135 518.686 64.96 518.056 64.61C517.436 64.25 516.946 63.75 516.586 63.11C516.236 62.46 516.061 61.71 516.061 60.86C516.061 60.01 516.231 59.265 516.571 58.625C516.921 57.975 517.406 57.475 518.026 57.125C518.656 56.775 519.376 56.6 520.186 56.6C520.966 56.6 521.661 56.77 522.271 57.11C522.881 57.45 523.356 57.93 523.696 58.55C524.036 59.16 524.206 59.865 524.206 60.665ZM522.421 60.125C522.411 59.495 522.186 58.99 521.746 58.61C521.306 58.23 520.761 58.04 520.111 58.04C519.521 58.04 519.016 58.23 518.596 58.61C518.176 58.98 517.926 59.485 517.846 60.125H522.421ZM527.599 57.935C527.849 57.515 528.179 57.19 528.589 56.96C529.009 56.72 529.504 56.6 530.074 56.6V58.37H529.639C528.969 58.37 528.459 58.54 528.109 58.88C527.769 59.22 527.599 59.81 527.599 60.65V65H525.889V56.735H527.599V57.935ZM531.076 60.83C531.076 60 531.246 59.265 531.586 58.625C531.936 57.985 532.406 57.49 532.996 57.14C533.596 56.78 534.256 56.6 534.976 56.6C535.626 56.6 536.191 56.73 536.671 56.99C537.161 57.24 537.551 57.555 537.841 57.935V56.735H539.566V65H537.841V63.77C537.551 64.16 537.156 64.485 536.656 64.745C536.156 65.005 535.586 65.135 534.946 65.135C534.236 65.135 533.586 64.955 532.996 64.595C532.406 64.225 531.936 63.715 531.586 63.065C531.246 62.405 531.076 61.66 531.076 60.83ZM537.841 60.86C537.841 60.29 537.721 59.795 537.481 59.375C537.251 58.955 536.946 58.635 536.566 58.415C536.186 58.195 535.776 58.085 535.336 58.085C534.896 58.085 534.486 58.195 534.106 58.415C533.726 58.625 533.416 58.94 533.176 59.36C532.946 59.77 532.831 60.26 532.831 60.83C532.831 61.4 532.946 61.9 533.176 62.33C533.416 62.76 533.726 63.09 534.106 63.32C534.496 63.54 534.906 63.65 535.336 63.65C535.776 63.65 536.186 63.54 536.566 63.32C536.946 63.1 537.251 62.78 537.481 62.36C537.721 61.93 537.841 61.43 537.841 60.86ZM543.807 58.13V62.705C543.807 63.015 543.877 63.24 544.017 63.38C544.167 63.51 544.417 63.575 544.767 63.575H545.817V65H544.467C543.697 65 543.107 64.82 542.697 64.46C542.287 64.1 542.082 63.515 542.082 62.705V58.13H541.107V56.735H542.082V54.68H543.807V56.735H545.817V58.13H543.807ZM554.968 60.665C554.968 60.975 554.948 61.255 554.908 61.505H548.593C548.643 62.165 548.888 62.695 549.328 63.095C549.768 63.495 550.308 63.695 550.948 63.695C551.868 63.695 552.518 63.31 552.898 62.54H554.743C554.493 63.3 554.038 63.925 553.378 64.415C552.728 64.895 551.918 65.135 550.948 65.135C550.158 65.135 549.448 64.96 548.818 64.61C548.198 64.25 547.708 63.75 547.348 63.11C546.998 62.46 546.823 61.71 546.823 60.86C546.823 60.01 546.993 59.265 547.333 58.625C547.683 57.975 548.168 57.475 548.788 57.125C549.418 56.775 550.138 56.6 550.948 56.6C551.728 56.6 552.423 56.77 553.033 57.11C553.643 57.45 554.118 57.93 554.458 58.55C554.798 59.16 554.968 59.865 554.968 60.665ZM553.183 60.125C553.173 59.495 552.948 58.99 552.508 58.61C552.068 58.23 551.523 58.04 550.873 58.04C550.283 58.04 549.778 58.23 549.358 58.61C548.938 58.98 548.688 59.485 548.608 60.125H553.183ZM559.977 60.83C559.977 60 560.147 59.265 560.487 58.625C560.837 57.985 561.307 57.49 561.897 57.14C562.497 56.78 563.162 56.6 563.892 56.6C564.432 56.6 564.962 56.72 565.482 56.96C566.012 57.19 566.432 57.5 566.742 57.89V53.9H568.467V65H566.742V63.755C566.462 64.155 566.072 64.485 565.572 64.745C565.082 65.005 564.517 65.135 563.877 65.135C563.157 65.135 562.497 64.955 561.897 64.595C561.307 64.225 560.837 63.715 560.487 63.065C560.147 62.405 559.977 61.66 559.977 60.83ZM566.742 60.86C566.742 60.29 566.622 59.795 566.382 59.375C566.152 58.955 565.847 58.635 565.467 58.415C565.087 58.195 564.677 58.085 564.237 58.085C563.797 58.085 563.387 58.195 563.007 58.415C562.627 58.625 562.317 58.94 562.077 59.36C561.847 59.77 561.732 60.26 561.732 60.83C561.732 61.4 561.847 61.9 562.077 62.33C562.317 62.76 562.627 63.09 563.007 63.32C563.397 63.54 563.807 63.65 564.237 63.65C564.677 63.65 565.087 63.54 565.467 63.32C565.847 63.1 566.152 62.78 566.382 62.36C566.622 61.93 566.742 61.43 566.742 60.86ZM578.288 60.665C578.288 60.975 578.268 61.255 578.228 61.505H571.913C571.963 62.165 572.208 62.695 572.648 63.095C573.088 63.495 573.628 63.695 574.268 63.695C575.188 63.695 575.838 63.31 576.218 62.54H578.063C577.813 63.3 577.358 63.925 576.698 64.415C576.048 64.895 575.238 65.135 574.268 65.135C573.478 65.135 572.768 64.96 572.138 64.61C571.518 64.25 571.028 63.75 570.668 63.11C570.318 62.46 570.143 61.71 570.143 60.86C570.143 60.01 570.313 59.265 570.653 58.625C571.003 57.975 571.488 57.475 572.108 57.125C572.738 56.775 573.458 56.6 574.268 56.6C575.048 56.6 575.743 56.77 576.353 57.11C576.963 57.45 577.438 57.93 577.778 58.55C578.118 59.16 578.288 59.865 578.288 60.665ZM576.503 60.125C576.493 59.495 576.268 58.99 575.828 58.61C575.388 58.23 574.843 58.04 574.193 58.04C573.603 58.04 573.098 58.23 572.678 58.61C572.258 58.98 572.008 59.485 571.928 60.125H576.503ZM583.166 63.47L585.506 56.735H587.321L584.171 65H582.131L578.996 56.735H580.826L583.166 63.47ZM596.188 60.665C596.188 60.975 596.168 61.255 596.128 61.505H589.813C589.863 62.165 590.108 62.695 590.548 63.095C590.988 63.495 591.528 63.695 592.168 63.695C593.088 63.695 593.738 63.31 594.118 62.54H595.963C595.713 63.3 595.258 63.925 594.598 64.415C593.948 64.895 593.138 65.135 592.168 65.135C591.378 65.135 590.668 64.96 590.038 64.61C589.418 64.25 588.928 63.75 588.568 63.11C588.218 62.46 588.043 61.71 588.043 60.86C588.043 60.01 588.213 59.265 588.553 58.625C588.903 57.975 589.388 57.475 590.008 57.125C590.638 56.775 591.358 56.6 592.168 56.6C592.948 56.6 593.643 56.77 594.253 57.11C594.863 57.45 595.338 57.93 595.678 58.55C596.018 59.16 596.188 59.865 596.188 60.665ZM594.403 60.125C594.393 59.495 594.168 58.99 593.728 58.61C593.288 58.23 592.743 58.04 592.093 58.04C591.503 58.04 590.998 58.23 590.578 58.61C590.158 58.98 589.908 59.485 589.828 60.125H594.403ZM599.581 53.9V65H597.871V53.9H599.581ZM605.411 65.135C604.631 65.135 603.926 64.96 603.296 64.61C602.666 64.25 602.171 63.75 601.811 63.11C601.451 62.46 601.271 61.71 601.271 60.86C601.271 60.02 601.456 59.275 601.826 58.625C602.196 57.975 602.701 57.475 603.341 57.125C603.981 56.775 604.696 56.6 605.486 56.6C606.276 56.6 606.991 56.775 607.631 57.125C608.271 57.475 608.776 57.975 609.146 58.625C609.516 59.275 609.701 60.02 609.701 60.86C609.701 61.7 609.511 62.445 609.131 63.095C608.751 63.745 608.231 64.25 607.571 64.61C606.921 64.96 606.201 65.135 605.411 65.135ZM605.411 63.65C605.851 63.65 606.261 63.545 606.641 63.335C607.031 63.125 607.346 62.81 607.586 62.39C607.826 61.97 607.946 61.46 607.946 60.86C607.946 60.26 607.831 59.755 607.601 59.345C607.371 58.925 607.066 58.61 606.686 58.4C606.306 58.19 605.896 58.085 605.456 58.085C605.016 58.085 604.606 58.19 604.226 58.4C603.856 58.61 603.561 58.925 603.341 59.345C603.121 59.755 603.011 60.26 603.011 60.86C603.011 61.75 603.236 62.44 603.686 62.93C604.146 63.41 604.721 63.65 605.411 63.65ZM613.102 57.95C613.392 57.57 613.787 57.25 614.287 56.99C614.787 56.73 615.352 56.6 615.982 56.6C616.702 56.6 617.357 56.78 617.947 57.14C618.547 57.49 619.017 57.985 619.357 58.625C619.697 59.265 619.867 60 619.867 60.83C619.867 61.66 619.697 62.405 619.357 63.065C619.017 63.715 618.547 64.225 617.947 64.595C617.357 64.955 616.702 65.135 615.982 65.135C615.352 65.135 614.792 65.01 614.302 64.76C613.812 64.5 613.412 64.18 613.102 63.8V68.93H611.392V56.735H613.102V57.95ZM618.127 60.83C618.127 60.26 618.007 59.77 617.767 59.36C617.537 58.94 617.227 58.625 616.837 58.415C616.457 58.195 616.047 58.085 615.607 58.085C615.177 58.085 614.767 58.195 614.377 58.415C613.997 58.635 613.687 58.955 613.447 59.375C613.217 59.795 613.102 60.29 613.102 60.86C613.102 61.43 613.217 61.93 613.447 62.36C613.687 62.78 613.997 63.1 614.377 63.32C614.767 63.54 615.177 63.65 615.607 63.65C616.047 63.65 616.457 63.54 616.837 63.32C617.227 63.09 617.537 62.76 617.767 62.33C618.007 61.9 618.127 61.4 618.127 60.83ZM629.133 60.665C629.133 60.975 629.113 61.255 629.073 61.505H622.758C622.808 62.165 623.053 62.695 623.493 63.095C623.933 63.495 624.473 63.695 625.113 63.695C626.033 63.695 626.683 63.31 627.063 62.54H628.908C628.658 63.3 628.203 63.925 627.543 64.415C626.893 64.895 626.083 65.135 625.113 65.135C624.323 65.135 623.613 64.96 622.983 64.61C622.363 64.25 621.873 63.75 621.513 63.11C621.163 62.46 620.988 61.71 620.988 60.86C620.988 60.01 621.158 59.265 621.498 58.625C621.848 57.975 622.333 57.475 622.953 57.125C623.583 56.775 624.303 56.6 625.113 56.6C625.893 56.6 626.588 56.77 627.198 57.11C627.808 57.45 628.283 57.93 628.623 58.55C628.963 59.16 629.133 59.865 629.133 60.665ZM627.348 60.125C627.338 59.495 627.113 58.99 626.673 58.61C626.233 58.23 625.688 58.04 625.038 58.04C624.448 58.04 623.943 58.23 623.523 58.61C623.103 58.98 622.853 59.485 622.773 60.125H627.348ZM632.525 57.935C632.775 57.515 633.105 57.19 633.515 56.96C633.935 56.72 634.43 56.6 635 56.6V58.37H634.565C633.895 58.37 633.385 58.54 633.035 58.88C632.695 59.22 632.525 59.81 632.525 60.65V65H630.815V56.735H632.525V57.935ZM277.555 83.83C277.555 83 277.725 82.265 278.065 81.625C278.415 80.985 278.885 80.49 279.475 80.14C280.075 79.78 280.74 79.6 281.47 79.6C282.01 79.6 282.54 79.72 283.06 79.96C283.59 80.19 284.01 80.5 284.32 80.89V76.9H286.045V88H284.32V86.755C284.04 87.155 283.65 87.485 283.15 87.745C282.66 88.005 282.095 88.135 281.455 88.135C280.735 88.135 280.075 87.955 279.475 87.595C278.885 87.225 278.415 86.715 278.065 86.065C277.725 85.405 277.555 84.66 277.555 83.83ZM284.32 83.86C284.32 83.29 284.2 82.795 283.96 82.375C283.73 81.955 283.425 81.635 283.045 81.415C282.665 81.195 282.255 81.085 281.815 81.085C281.375 81.085 280.965 81.195 280.585 81.415C280.205 81.625 279.895 81.94 279.655 82.36C279.425 82.77 279.31 83.26 279.31 83.83C279.31 84.4 279.425 84.9 279.655 85.33C279.895 85.76 280.205 86.09 280.585 86.32C280.975 86.54 281.385 86.65 281.815 86.65C282.255 86.65 282.665 86.54 283.045 86.32C283.425 86.1 283.73 85.78 283.96 85.36C284.2 84.93 284.32 84.43 284.32 83.86ZM291.876 88.135C291.096 88.135 290.391 87.96 289.761 87.61C289.131 87.25 288.636 86.75 288.276 86.11C287.916 85.46 287.736 84.71 287.736 83.86C287.736 83.02 287.921 82.275 288.291 81.625C288.661 80.975 289.166 80.475 289.806 80.125C290.446 79.775 291.161 79.6 291.951 79.6C292.741 79.6 293.456 79.775 294.096 80.125C294.736 80.475 295.241 80.975 295.611 81.625C295.981 82.275 296.166 83.02 296.166 83.86C296.166 84.7 295.976 85.445 295.596 86.095C295.216 86.745 294.696 87.25 294.036 87.61C293.386 87.96 292.666 88.135 291.876 88.135ZM291.876 86.65C292.316 86.65 292.726 86.545 293.106 86.335C293.496 86.125 293.811 85.81 294.051 85.39C294.291 84.97 294.411 84.46 294.411 83.86C294.411 83.26 294.296 82.755 294.066 82.345C293.836 81.925 293.531 81.61 293.151 81.4C292.771 81.19 292.361 81.085 291.921 81.085C291.481 81.085 291.071 81.19 290.691 81.4C290.321 81.61 290.026 81.925 289.806 82.345C289.586 82.755 289.476 83.26 289.476 83.86C289.476 84.75 289.701 85.44 290.151 85.93C290.611 86.41 291.186 86.65 291.876 86.65ZM297.286 83.86C297.286 83.01 297.456 82.265 297.796 81.625C298.146 80.975 298.626 80.475 299.236 80.125C299.846 79.775 300.546 79.6 301.336 79.6C302.336 79.6 303.161 79.84 303.811 80.32C304.471 80.79 304.916 81.465 305.146 82.345H303.301C303.151 81.935 302.911 81.615 302.581 81.385C302.251 81.155 301.836 81.04 301.336 81.04C300.636 81.04 300.076 81.29 299.656 81.79C299.246 82.28 299.041 82.97 299.041 83.86C299.041 84.75 299.246 85.445 299.656 85.945C300.076 86.445 300.636 86.695 301.336 86.695C302.326 86.695 302.981 86.26 303.301 85.39H305.146C304.906 86.23 304.456 86.9 303.796 87.4C303.136 87.89 302.316 88.135 301.336 88.135C300.546 88.135 299.846 87.96 299.236 87.61C298.626 87.25 298.146 86.75 297.796 86.11C297.456 85.46 297.286 84.71 297.286 83.86ZM314.336 79.735V88H312.626V87.025C312.356 87.365 312.001 87.635 311.561 87.835C311.131 88.025 310.671 88.12 310.181 88.12C309.531 88.12 308.946 87.985 308.426 87.715C307.916 87.445 307.511 87.045 307.211 86.515C306.921 85.985 306.776 85.345 306.776 84.595V79.735H308.471V84.34C308.471 85.08 308.656 85.65 309.026 86.05C309.396 86.44 309.901 86.635 310.541 86.635C311.181 86.635 311.686 86.44 312.056 86.05C312.436 85.65 312.626 85.08 312.626 84.34V79.735H314.336ZM326.597 79.6C327.247 79.6 327.827 79.735 328.337 80.005C328.857 80.275 329.262 80.675 329.552 81.205C329.852 81.735 330.002 82.375 330.002 83.125V88H328.307V83.38C328.307 82.64 328.122 82.075 327.752 81.685C327.382 81.285 326.877 81.085 326.237 81.085C325.597 81.085 325.087 81.285 324.707 81.685C324.337 82.075 324.152 82.64 324.152 83.38V88H322.457V83.38C322.457 82.64 322.272 82.075 321.902 81.685C321.532 81.285 321.027 81.085 320.387 81.085C319.747 81.085 319.237 81.285 318.857 81.685C318.487 82.075 318.302 82.64 318.302 83.38V88H316.592V79.735H318.302V80.68C318.582 80.34 318.937 80.075 319.367 79.885C319.797 79.695 320.257 79.6 320.747 79.6C321.407 79.6 321.997 79.74 322.517 80.02C323.037 80.3 323.437 80.705 323.717 81.235C323.967 80.735 324.357 80.34 324.887 80.05C325.417 79.75 325.987 79.6 326.597 79.6ZM339.753 83.665C339.753 83.975 339.733 84.255 339.693 84.505H333.378C333.428 85.165 333.673 85.695 334.113 86.095C334.553 86.495 335.093 86.695 335.733 86.695C336.653 86.695 337.303 86.31 337.683 85.54H339.528C339.278 86.3 338.823 86.925 338.163 87.415C337.513 87.895 336.703 88.135 335.733 88.135C334.943 88.135 334.233 87.96 333.603 87.61C332.983 87.25 332.493 86.75 332.133 86.11C331.783 85.46 331.608 84.71 331.608 83.86C331.608 83.01 331.778 82.265 332.118 81.625C332.468 80.975 332.953 80.475 333.573 80.125C334.203 79.775 334.923 79.6 335.733 79.6C336.513 79.6 337.208 79.77 337.818 80.11C338.428 80.45 338.903 80.93 339.243 81.55C339.583 82.16 339.753 82.865 339.753 83.665ZM337.968 83.125C337.958 82.495 337.733 81.99 337.293 81.61C336.853 81.23 336.308 81.04 335.658 81.04C335.068 81.04 334.563 81.23 334.143 81.61C333.723 81.98 333.473 82.485 333.393 83.125H337.968ZM345.606 79.6C346.256 79.6 346.836 79.735 347.346 80.005C347.866 80.275 348.271 80.675 348.561 81.205C348.851 81.735 348.996 82.375 348.996 83.125V88H347.301V83.38C347.301 82.64 347.116 82.075 346.746 81.685C346.376 81.285 345.871 81.085 345.231 81.085C344.591 81.085 344.081 81.285 343.701 81.685C343.331 82.075 343.146 82.64 343.146 83.38V88H341.436V79.735H343.146V80.68C343.426 80.34 343.781 80.075 344.211 79.885C344.651 79.695 345.116 79.6 345.606 79.6ZM353.172 81.13V85.705C353.172 86.015 353.242 86.24 353.382 86.38C353.532 86.51 353.782 86.575 354.132 86.575H355.182V88H353.832C353.062 88 352.472 87.82 352.062 87.46C351.652 87.1 351.447 86.515 351.447 85.705V81.13H350.472V79.735H351.447V77.68H353.172V79.735H355.182V81.13H353.172ZM356.188 83.83C356.188 83 356.358 82.265 356.698 81.625C357.048 80.985 357.518 80.49 358.108 80.14C358.708 79.78 359.368 79.6 360.088 79.6C360.738 79.6 361.303 79.73 361.783 79.99C362.273 80.24 362.663 80.555 362.953 80.935V79.735H364.678V88H362.953V86.77C362.663 87.16 362.268 87.485 361.768 87.745C361.268 88.005 360.698 88.135 360.058 88.135C359.348 88.135 358.698 87.955 358.108 87.595C357.518 87.225 357.048 86.715 356.698 86.065C356.358 85.405 356.188 84.66 356.188 83.83ZM362.953 83.86C362.953 83.29 362.833 82.795 362.593 82.375C362.363 81.955 362.058 81.635 361.678 81.415C361.298 81.195 360.888 81.085 360.448 81.085C360.008 81.085 359.598 81.195 359.218 81.415C358.838 81.625 358.528 81.94 358.288 82.36C358.058 82.77 357.943 83.26 357.943 83.83C357.943 84.4 358.058 84.9 358.288 85.33C358.528 85.76 358.838 86.09 359.218 86.32C359.608 86.54 360.018 86.65 360.448 86.65C360.888 86.65 361.298 86.54 361.678 86.32C362.058 86.1 362.363 85.78 362.593 85.36C362.833 84.93 362.953 84.43 362.953 83.86ZM368.919 81.13V85.705C368.919 86.015 368.989 86.24 369.129 86.38C369.279 86.51 369.529 86.575 369.879 86.575H370.929V88H369.579C368.809 88 368.219 87.82 367.809 87.46C367.399 87.1 367.194 86.515 367.194 85.705V81.13H366.219V79.735H367.194V77.68H368.919V79.735H370.929V81.13H368.919ZM373.375 78.64C373.065 78.64 372.805 78.535 372.595 78.325C372.385 78.115 372.28 77.855 372.28 77.545C372.28 77.235 372.385 76.975 372.595 76.765C372.805 76.555 373.065 76.45 373.375 76.45C373.675 76.45 373.93 76.555 374.14 76.765C374.35 76.975 374.455 77.235 374.455 77.545C374.455 77.855 374.35 78.115 374.14 78.325C373.93 78.535 373.675 78.64 373.375 78.64ZM374.215 79.735V88H372.505V79.735H374.215ZM380.045 88.135C379.265 88.135 378.56 87.96 377.93 87.61C377.3 87.25 376.805 86.75 376.445 86.11C376.085 85.46 375.905 84.71 375.905 83.86C375.905 83.02 376.09 82.275 376.46 81.625C376.83 80.975 377.335 80.475 377.975 80.125C378.615 79.775 379.33 79.6 380.12 79.6C380.91 79.6 381.625 79.775 382.265 80.125C382.905 80.475 383.41 80.975 383.78 81.625C384.15 82.275 384.335 83.02 384.335 83.86C384.335 84.7 384.145 85.445 383.765 86.095C383.385 86.745 382.865 87.25 382.205 87.61C381.555 87.96 380.835 88.135 380.045 88.135ZM380.045 86.65C380.485 86.65 380.895 86.545 381.275 86.335C381.665 86.125 381.98 85.81 382.22 85.39C382.46 84.97 382.58 84.46 382.58 83.86C382.58 83.26 382.465 82.755 382.235 82.345C382.005 81.925 381.7 81.61 381.32 81.4C380.94 81.19 380.53 81.085 380.09 81.085C379.65 81.085 379.24 81.19 378.86 81.4C378.49 81.61 378.195 81.925 377.975 82.345C377.755 82.755 377.645 83.26 377.645 83.86C377.645 84.75 377.87 85.44 378.32 85.93C378.78 86.41 379.355 86.65 380.045 86.65ZM390.195 79.6C390.845 79.6 391.425 79.735 391.935 80.005C392.455 80.275 392.86 80.675 393.15 81.205C393.44 81.735 393.585 82.375 393.585 83.125V88H391.89V83.38C391.89 82.64 391.705 82.075 391.335 81.685C390.965 81.285 390.46 81.085 389.82 81.085C389.18 81.085 388.67 81.285 388.29 81.685C387.92 82.075 387.735 82.64 387.735 83.38V88H386.025V79.735H387.735V80.68C388.015 80.34 388.37 80.075 388.8 79.885C389.24 79.695 389.705 79.6 390.195 79.6ZM399.093 83.83C399.093 83 399.263 82.265 399.603 81.625C399.953 80.985 400.423 80.49 401.013 80.14C401.613 79.78 402.273 79.6 402.993 79.6C403.643 79.6 404.208 79.73 404.688 79.99C405.178 80.24 405.568 80.555 405.858 80.935V79.735H407.583V88H405.858V86.77C405.568 87.16 405.173 87.485 404.673 87.745C404.173 88.005 403.603 88.135 402.963 88.135C402.253 88.135 401.603 87.955 401.013 87.595C400.423 87.225 399.953 86.715 399.603 86.065C399.263 85.405 399.093 84.66 399.093 83.83ZM405.858 83.86C405.858 83.29 405.738 82.795 405.498 82.375C405.268 81.955 404.963 81.635 404.583 81.415C404.203 81.195 403.793 81.085 403.353 81.085C402.913 81.085 402.503 81.195 402.123 81.415C401.743 81.625 401.433 81.94 401.193 82.36C400.963 82.77 400.848 83.26 400.848 83.83C400.848 84.4 400.963 84.9 401.193 85.33C401.433 85.76 401.743 86.09 402.123 86.32C402.513 86.54 402.923 86.65 403.353 86.65C403.793 86.65 404.203 86.54 404.583 86.32C404.963 86.1 405.268 85.78 405.498 85.36C405.738 84.93 405.858 84.43 405.858 83.86ZM413.999 79.6C414.649 79.6 415.229 79.735 415.739 80.005C416.259 80.275 416.664 80.675 416.954 81.205C417.244 81.735 417.389 82.375 417.389 83.125V88H415.694V83.38C415.694 82.64 415.509 82.075 415.139 81.685C414.769 81.285 414.264 81.085 413.624 81.085C412.984 81.085 412.474 81.285 412.094 81.685C411.724 82.075 411.539 82.64 411.539 83.38V88H409.829V79.735H411.539V80.68C411.819 80.34 412.174 80.075 412.604 79.885C413.044 79.695 413.509 79.6 413.999 79.6ZM419 83.83C419 83 419.17 82.265 419.51 81.625C419.86 80.985 420.33 80.49 420.92 80.14C421.52 79.78 422.185 79.6 422.915 79.6C423.455 79.6 423.985 79.72 424.505 79.96C425.035 80.19 425.455 80.5 425.765 80.89V76.9H427.49V88H425.765V86.755C425.485 87.155 425.095 87.485 424.595 87.745C424.105 88.005 423.54 88.135 422.9 88.135C422.18 88.135 421.52 87.955 420.92 87.595C420.33 87.225 419.86 86.715 419.51 86.065C419.17 85.405 419 84.66 419 83.83ZM425.765 83.86C425.765 83.29 425.645 82.795 425.405 82.375C425.175 81.955 424.87 81.635 424.49 81.415C424.11 81.195 423.7 81.085 423.26 81.085C422.82 81.085 422.41 81.195 422.03 81.415C421.65 81.625 421.34 81.94 421.1 82.36C420.87 82.77 420.755 83.26 420.755 83.83C420.755 84.4 420.87 84.9 421.1 85.33C421.34 85.76 421.65 86.09 422.03 86.32C422.42 86.54 422.83 86.65 423.26 86.65C423.7 86.65 424.11 86.54 424.49 86.32C424.87 86.1 425.175 85.78 425.405 85.36C425.645 84.93 425.765 84.43 425.765 83.86ZM437.068 88.105C436.368 88.105 435.738 87.985 435.178 87.745C434.618 87.495 434.178 87.145 433.858 86.695C433.538 86.245 433.378 85.72 433.378 85.12H435.208C435.248 85.57 435.423 85.94 435.733 86.23C436.053 86.52 436.498 86.665 437.068 86.665C437.658 86.665 438.118 86.525 438.448 86.245C438.778 85.955 438.943 85.585 438.943 85.135C438.943 84.785 438.838 84.5 438.628 84.28C438.428 84.06 438.173 83.89 437.863 83.77C437.563 83.65 437.143 83.52 436.603 83.38C435.923 83.2 435.368 83.02 434.938 82.84C434.518 82.65 434.158 82.36 433.858 81.97C433.558 81.58 433.408 81.06 433.408 80.41C433.408 79.81 433.558 79.285 433.858 78.835C434.158 78.385 434.578 78.04 435.118 77.8C435.658 77.56 436.283 77.44 436.993 77.44C438.003 77.44 438.828 77.695 439.468 78.205C440.118 78.705 440.478 79.395 440.548 80.275H438.658C438.628 79.895 438.448 79.57 438.118 79.3C437.788 79.03 437.353 78.895 436.813 78.895C436.323 78.895 435.923 79.02 435.613 79.27C435.303 79.52 435.148 79.88 435.148 80.35C435.148 80.67 435.243 80.935 435.433 81.145C435.633 81.345 435.883 81.505 436.183 81.625C436.483 81.745 436.893 81.875 437.413 82.015C438.103 82.205 438.663 82.395 439.093 82.585C439.533 82.775 439.903 83.07 440.203 83.47C440.513 83.86 440.668 84.385 440.668 85.045C440.668 85.575 440.523 86.075 440.233 86.545C439.953 87.015 439.538 87.395 438.988 87.685C438.448 87.965 437.808 88.105 437.068 88.105ZM446.091 77.575C447.201 77.575 448.171 77.79 449.001 78.22C449.841 78.64 450.486 79.25 450.936 80.05C451.396 80.84 451.626 81.765 451.626 82.825C451.626 83.885 451.396 84.805 450.936 85.585C450.486 86.365 449.841 86.965 449.001 87.385C448.171 87.795 447.201 88 446.091 88H442.686V77.575H446.091ZM446.091 86.605C447.311 86.605 448.246 86.275 448.896 85.615C449.546 84.955 449.871 84.025 449.871 82.825C449.871 81.615 449.546 80.67 448.896 79.99C448.246 79.31 447.311 78.97 446.091 78.97H444.396V86.605H446.091ZM459.065 88L455.03 83.335V88H453.32V77.575H455.03V82.33L459.08 77.575H461.225L456.695 82.795L461.3 88H459.065ZM465.813 88.135C465.163 88.135 464.578 88.02 464.058 87.79C463.548 87.55 463.143 87.23 462.843 86.83C462.543 86.42 462.383 85.965 462.363 85.465H464.133C464.163 85.815 464.328 86.11 464.628 86.35C464.938 86.58 465.323 86.695 465.783 86.695C466.263 86.695 466.633 86.605 466.893 86.425C467.163 86.235 467.298 85.995 467.298 85.705C467.298 85.395 467.148 85.165 466.848 85.015C466.558 84.865 466.093 84.7 465.453 84.52C464.833 84.35 464.328 84.185 463.938 84.025C463.548 83.865 463.208 83.62 462.918 83.29C462.638 82.96 462.498 82.525 462.498 81.985C462.498 81.545 462.628 81.145 462.888 80.785C463.148 80.415 463.518 80.125 463.998 79.915C464.488 79.705 465.048 79.6 465.678 79.6C466.618 79.6 467.373 79.84 467.943 80.32C468.523 80.79 468.833 81.435 468.873 82.255H467.163C467.133 81.885 466.983 81.59 466.713 81.37C466.443 81.15 466.078 81.04 465.618 81.04C465.168 81.04 464.823 81.125 464.583 81.295C464.343 81.465 464.223 81.69 464.223 81.97C464.223 82.19 464.303 82.375 464.463 82.525C464.623 82.675 464.818 82.795 465.048 82.885C465.278 82.965 465.618 83.07 466.068 83.2C466.668 83.36 467.158 83.525 467.538 83.695C467.928 83.855 468.263 84.095 468.543 84.415C468.823 84.735 468.968 85.16 468.978 85.69C468.978 86.16 468.848 86.58 468.588 86.95C468.328 87.32 467.958 87.61 467.478 87.82C467.008 88.03 466.453 88.135 465.813 88.135ZM485.822 79.735L483.257 88H481.457L479.792 81.895L478.127 88H476.327L473.747 79.735H475.487L477.212 86.38L478.967 79.735H480.752L482.432 86.35L484.142 79.735H485.822ZM487.97 78.64C487.66 78.64 487.4 78.535 487.19 78.325C486.98 78.115 486.875 77.855 486.875 77.545C486.875 77.235 486.98 76.975 487.19 76.765C487.4 76.555 487.66 76.45 487.97 76.45C488.27 76.45 488.525 76.555 488.735 76.765C488.945 76.975 489.05 77.235 489.05 77.545C489.05 77.855 488.945 78.115 488.735 78.325C488.525 78.535 488.27 78.64 487.97 78.64ZM488.81 79.735V88H487.1V79.735H488.81ZM493.05 81.13V85.705C493.05 86.015 493.12 86.24 493.26 86.38C493.41 86.51 493.66 86.575 494.01 86.575H495.06V88H493.71C492.94 88 492.35 87.82 491.94 87.46C491.53 87.1 491.325 86.515 491.325 85.705V81.13H490.35V79.735H491.325V77.68H493.05V79.735H495.06V81.13H493.05ZM500.911 79.6C501.541 79.6 502.101 79.735 502.591 80.005C503.091 80.275 503.481 80.675 503.761 81.205C504.051 81.735 504.196 82.375 504.196 83.125V88H502.501V83.38C502.501 82.64 502.316 82.075 501.946 81.685C501.576 81.285 501.071 81.085 500.431 81.085C499.791 81.085 499.281 81.285 498.901 81.685C498.531 82.075 498.346 82.64 498.346 83.38V88H496.636V76.9H498.346V80.695C498.636 80.345 499.001 80.075 499.441 79.885C499.891 79.695 500.381 79.6 500.911 79.6ZM513.858 88.135C513.078 88.135 512.373 87.96 511.743 87.61C511.113 87.25 510.618 86.75 510.258 86.11C509.898 85.46 509.718 84.71 509.718 83.86C509.718 83.02 509.903 82.275 510.273 81.625C510.643 80.975 511.148 80.475 511.788 80.125C512.428 79.775 513.143 79.6 513.933 79.6C514.723 79.6 515.438 79.775 516.078 80.125C516.718 80.475 517.223 80.975 517.593 81.625C517.963 82.275 518.148 83.02 518.148 83.86C518.148 84.7 517.958 85.445 517.578 86.095C517.198 86.745 516.678 87.25 516.018 87.61C515.368 87.96 514.648 88.135 513.858 88.135ZM513.858 86.65C514.298 86.65 514.708 86.545 515.088 86.335C515.478 86.125 515.793 85.81 516.033 85.39C516.273 84.97 516.393 84.46 516.393 83.86C516.393 83.26 516.278 82.755 516.048 82.345C515.818 81.925 515.513 81.61 515.133 81.4C514.753 81.19 514.343 81.085 513.903 81.085C513.463 81.085 513.053 81.19 512.673 81.4C512.303 81.61 512.008 81.925 511.788 82.345C511.568 82.755 511.458 83.26 511.458 83.86C511.458 84.75 511.683 85.44 512.133 85.93C512.593 86.41 513.168 86.65 513.858 86.65ZM527.324 79.735V88H525.614V87.025C525.344 87.365 524.989 87.635 524.549 87.835C524.119 88.025 523.659 88.12 523.169 88.12C522.519 88.12 521.934 87.985 521.414 87.715C520.904 87.445 520.499 87.045 520.199 86.515C519.909 85.985 519.764 85.345 519.764 84.595V79.735H521.459V84.34C521.459 85.08 521.644 85.65 522.014 86.05C522.384 86.44 522.889 86.635 523.529 86.635C524.169 86.635 524.674 86.44 525.044 86.05C525.424 85.65 525.614 85.08 525.614 84.34V79.735H527.324ZM531.29 80.935C531.54 80.515 531.87 80.19 532.28 79.96C532.7 79.72 533.195 79.6 533.765 79.6V81.37H533.33C532.66 81.37 532.15 81.54 531.8 81.88C531.46 82.22 531.29 82.81 531.29 83.65V88H529.58V79.735H531.29V80.935ZM542.233 88.135C541.583 88.135 540.998 88.02 540.478 87.79C539.968 87.55 539.563 87.23 539.263 86.83C538.963 86.42 538.803 85.965 538.783 85.465H540.553C540.583 85.815 540.748 86.11 541.048 86.35C541.358 86.58 541.743 86.695 542.203 86.695C542.683 86.695 543.053 86.605 543.313 86.425C543.583 86.235 543.718 85.995 543.718 85.705C543.718 85.395 543.568 85.165 543.268 85.015C542.978 84.865 542.513 84.7 541.873 84.52C541.253 84.35 540.748 84.185 540.358 84.025C539.968 83.865 539.628 83.62 539.338 83.29C539.058 82.96 538.918 82.525 538.918 81.985C538.918 81.545 539.048 81.145 539.308 80.785C539.568 80.415 539.938 80.125 540.418 79.915C540.908 79.705 541.468 79.6 542.098 79.6C543.038 79.6 543.793 79.84 544.363 80.32C544.943 80.79 545.253 81.435 545.293 82.255H543.583C543.553 81.885 543.403 81.59 543.133 81.37C542.863 81.15 542.498 81.04 542.038 81.04C541.588 81.04 541.243 81.125 541.003 81.295C540.763 81.465 540.643 81.69 540.643 81.97C540.643 82.19 540.723 82.375 540.883 82.525C541.043 82.675 541.238 82.795 541.468 82.885C541.698 82.965 542.038 83.07 542.488 83.2C543.088 83.36 543.578 83.525 543.958 83.695C544.348 83.855 544.683 84.095 544.963 84.415C545.243 84.735 545.388 85.16 545.398 85.69C545.398 86.16 545.268 86.58 545.008 86.95C544.748 87.32 544.378 87.61 543.898 87.82C543.428 88.03 542.873 88.135 542.233 88.135ZM548.956 80.95C549.246 80.57 549.641 80.25 550.141 79.99C550.641 79.73 551.206 79.6 551.836 79.6C552.556 79.6 553.211 79.78 553.801 80.14C554.401 80.49 554.871 80.985 555.211 81.625C555.551 82.265 555.721 83 555.721 83.83C555.721 84.66 555.551 85.405 555.211 86.065C554.871 86.715 554.401 87.225 553.801 87.595C553.211 87.955 552.556 88.135 551.836 88.135C551.206 88.135 550.646 88.01 550.156 87.76C549.666 87.5 549.266 87.18 548.956 86.8V91.93H547.246V79.735H548.956V80.95ZM553.981 83.83C553.981 83.26 553.861 82.77 553.621 82.36C553.391 81.94 553.081 81.625 552.691 81.415C552.311 81.195 551.901 81.085 551.461 81.085C551.031 81.085 550.621 81.195 550.231 81.415C549.851 81.635 549.541 81.955 549.301 82.375C549.071 82.795 548.956 83.29 548.956 83.86C548.956 84.43 549.071 84.93 549.301 85.36C549.541 85.78 549.851 86.1 550.231 86.32C550.621 86.54 551.031 86.65 551.461 86.65C551.901 86.65 552.311 86.54 552.691 86.32C553.081 86.09 553.391 85.76 553.621 85.33C553.861 84.9 553.981 84.4 553.981 83.83ZM560.997 88.135C560.217 88.135 559.512 87.96 558.882 87.61C558.252 87.25 557.757 86.75 557.397 86.11C557.037 85.46 556.857 84.71 556.857 83.86C556.857 83.02 557.042 82.275 557.412 81.625C557.782 80.975 558.287 80.475 558.927 80.125C559.567 79.775 560.282 79.6 561.072 79.6C561.862 79.6 562.577 79.775 563.217 80.125C563.857 80.475 564.362 80.975 564.732 81.625C565.102 82.275 565.287 83.02 565.287 83.86C565.287 84.7 565.097 85.445 564.717 86.095C564.337 86.745 563.817 87.25 563.157 87.61C562.507 87.96 561.787 88.135 560.997 88.135ZM560.997 86.65C561.437 86.65 561.847 86.545 562.227 86.335C562.617 86.125 562.932 85.81 563.172 85.39C563.412 84.97 563.532 84.46 563.532 83.86C563.532 83.26 563.417 82.755 563.187 82.345C562.957 81.925 562.652 81.61 562.272 81.4C561.892 81.19 561.482 81.085 561.042 81.085C560.602 81.085 560.192 81.19 559.812 81.4C559.442 81.61 559.147 81.925 558.927 82.345C558.707 82.755 558.597 83.26 558.597 83.86C558.597 84.75 558.822 85.44 559.272 85.93C559.732 86.41 560.307 86.65 560.997 86.65ZM571.148 79.6C571.798 79.6 572.378 79.735 572.888 80.005C573.408 80.275 573.813 80.675 574.103 81.205C574.393 81.735 574.538 82.375 574.538 83.125V88H572.843V83.38C572.843 82.64 572.658 82.075 572.288 81.685C571.918 81.285 571.413 81.085 570.773 81.085C570.133 81.085 569.623 81.285 569.243 81.685C568.873 82.075 568.688 82.64 568.688 83.38V88H566.978V79.735H568.688V80.68C568.968 80.34 569.323 80.075 569.753 79.885C570.193 79.695 570.658 79.6 571.148 79.6ZM579.719 88.135C579.069 88.135 578.484 88.02 577.964 87.79C577.454 87.55 577.049 87.23 576.749 86.83C576.449 86.42 576.289 85.965 576.269 85.465H578.039C578.069 85.815 578.234 86.11 578.534 86.35C578.844 86.58 579.229 86.695 579.689 86.695C580.169 86.695 580.539 86.605 580.799 86.425C581.069 86.235 581.204 85.995 581.204 85.705C581.204 85.395 581.054 85.165 580.754 85.015C580.464 84.865 579.999 84.7 579.359 84.52C578.739 84.35 578.234 84.185 577.844 84.025C577.454 83.865 577.114 83.62 576.824 83.29C576.544 82.96 576.404 82.525 576.404 81.985C576.404 81.545 576.534 81.145 576.794 80.785C577.054 80.415 577.424 80.125 577.904 79.915C578.394 79.705 578.954 79.6 579.584 79.6C580.524 79.6 581.279 79.84 581.849 80.32C582.429 80.79 582.739 81.435 582.779 82.255H581.069C581.039 81.885 580.889 81.59 580.619 81.37C580.349 81.15 579.984 81.04 579.524 81.04C579.074 81.04 578.729 81.125 578.489 81.295C578.249 81.465 578.129 81.69 578.129 81.97C578.129 82.19 578.209 82.375 578.369 82.525C578.529 82.675 578.724 82.795 578.954 82.885C579.184 82.965 579.524 83.07 579.974 83.2C580.574 83.36 581.064 83.525 581.444 83.695C581.834 83.855 582.169 84.095 582.449 84.415C582.729 84.735 582.874 85.16 582.884 85.69C582.884 86.16 582.754 86.58 582.494 86.95C582.234 87.32 581.864 87.61 581.384 87.82C580.914 88.03 580.359 88.135 579.719 88.135ZM588.316 88.135C587.536 88.135 586.831 87.96 586.201 87.61C585.571 87.25 585.076 86.75 584.716 86.11C584.356 85.46 584.176 84.71 584.176 83.86C584.176 83.02 584.361 82.275 584.731 81.625C585.101 80.975 585.606 80.475 586.246 80.125C586.886 79.775 587.601 79.6 588.391 79.6C589.181 79.6 589.896 79.775 590.536 80.125C591.176 80.475 591.681 80.975 592.051 81.625C592.421 82.275 592.606 83.02 592.606 83.86C592.606 84.7 592.416 85.445 592.036 86.095C591.656 86.745 591.136 87.25 590.476 87.61C589.826 87.96 589.106 88.135 588.316 88.135ZM588.316 86.65C588.756 86.65 589.166 86.545 589.546 86.335C589.936 86.125 590.251 85.81 590.491 85.39C590.731 84.97 590.851 84.46 590.851 83.86C590.851 83.26 590.736 82.755 590.506 82.345C590.276 81.925 589.971 81.61 589.591 81.4C589.211 81.19 588.801 81.085 588.361 81.085C587.921 81.085 587.511 81.19 587.131 81.4C586.761 81.61 586.466 81.925 586.246 82.345C586.026 82.755 585.916 83.26 585.916 83.86C585.916 84.75 586.141 85.44 586.591 85.93C587.051 86.41 587.626 86.65 588.316 86.65ZM596.007 80.935C596.257 80.515 596.587 80.19 596.997 79.96C597.417 79.72 597.912 79.6 598.482 79.6V81.37H598.047C597.377 81.37 596.867 81.54 596.517 81.88C596.177 82.22 596.007 82.81 596.007 83.65V88H594.297V79.735H596.007V80.935ZM610.085 77.575V78.97H605.66V82.045H609.11V83.44H605.66V88H603.95V77.575H610.085ZM619.245 83.665C619.245 83.975 619.225 84.255 619.185 84.505H612.87C612.92 85.165 613.165 85.695 613.605 86.095C614.045 86.495 614.585 86.695 615.225 86.695C616.145 86.695 616.795 86.31 617.175 85.54H619.02C618.77 86.3 618.315 86.925 617.655 87.415C617.005 87.895 616.195 88.135 615.225 88.135C614.435 88.135 613.725 87.96 613.095 87.61C612.475 87.25 611.985 86.75 611.625 86.11C611.275 85.46 611.1 84.71 611.1 83.86C611.1 83.01 611.27 82.265 611.61 81.625C611.96 80.975 612.445 80.475 613.065 80.125C613.695 79.775 614.415 79.6 615.225 79.6C616.005 79.6 616.7 79.77 617.31 80.11C617.92 80.45 618.395 80.93 618.735 81.55C619.075 82.16 619.245 82.865 619.245 83.665ZM617.46 83.125C617.45 82.495 617.225 81.99 616.785 81.61C616.345 81.23 615.8 81.04 615.15 81.04C614.56 81.04 614.055 81.23 613.635 81.61C613.215 81.98 612.965 82.485 612.885 83.125H617.46ZM622.638 80.935C622.888 80.515 623.218 80.19 623.628 79.96C624.048 79.72 624.543 79.6 625.113 79.6V81.37H624.678C624.008 81.37 623.498 81.54 623.148 81.88C622.808 82.22 622.638 82.81 622.638 83.65V88H620.928V79.735H622.638V80.935ZM630.855 79.6C631.505 79.6 632.085 79.735 632.595 80.005C633.115 80.275 633.52 80.675 633.81 81.205C634.1 81.735 634.245 82.375 634.245 83.125V88H632.55V83.38C632.55 82.64 632.365 82.075 631.995 81.685C631.625 81.285 631.12 81.085 630.48 81.085C629.84 81.085 629.33 81.285 628.95 81.685C628.58 82.075 628.395 82.64 628.395 83.38V88H626.685V79.735H628.395V80.68C628.675 80.34 629.03 80.075 629.46 79.885C629.9 79.695 630.365 79.6 630.855 79.6ZM637.116 88.105C636.806 88.105 636.546 88 636.336 87.79C636.126 87.58 636.021 87.32 636.021 87.01C636.021 86.7 636.126 86.44 636.336 86.23C636.546 86.02 636.806 85.915 637.116 85.915C637.416 85.915 637.671 86.02 637.881 86.23C638.091 86.44 638.196 86.7 638.196 87.01C638.196 87.32 638.091 87.58 637.881 87.79C637.671 88 637.416 88.105 637.116 88.105Z" fill="black"/>
<rect x="25" y="60" width="84" height="22" rx="6" fill="#C6C6C6"/>
<path d="M38.1974 76.098C37.5441 76.098 36.9561 75.986 36.4334 75.762C35.9107 75.5287 35.5001 75.202 35.2014 74.782C34.9027 74.362 34.7534 73.872 34.7534 73.312H36.4614C36.4987 73.732 36.6621 74.0773 36.9514 74.348C37.2501 74.6187 37.6654 74.754 38.1974 74.754C38.7481 74.754 39.1774 74.6233 39.4854 74.362C39.7934 74.0913 39.9474 73.746 39.9474 73.326C39.9474 72.9993 39.8494 72.7333 39.6534 72.528C39.4667 72.3227 39.2287 72.164 38.9394 72.052C38.6594 71.94 38.2674 71.8187 37.7634 71.688C37.1287 71.52 36.6107 71.352 36.2094 71.184C35.8174 71.0067 35.4814 70.736 35.2014 70.372C34.9214 70.008 34.7814 69.5227 34.7814 68.916C34.7814 68.356 34.9214 67.866 35.2014 67.446C35.4814 67.026 35.8734 66.704 36.3774 66.48C36.8814 66.256 37.4647 66.144 38.1274 66.144C39.0701 66.144 39.8401 66.382 40.4374 66.858C41.0441 67.3247 41.3801 67.9687 41.4454 68.79H39.6814C39.6534 68.4353 39.4854 68.132 39.1774 67.88C38.8694 67.628 38.4634 67.502 37.9594 67.502C37.5021 67.502 37.1287 67.6187 36.8394 67.852C36.5501 68.0853 36.4054 68.4213 36.4054 68.86C36.4054 69.1587 36.4941 69.406 36.6714 69.602C36.8581 69.7887 37.0914 69.938 37.3714 70.05C37.6514 70.162 38.0341 70.2833 38.5194 70.414C39.1634 70.5913 39.6861 70.7687 40.0874 70.946C40.4981 71.1233 40.8434 71.3987 41.1234 71.772C41.4127 72.136 41.5574 72.626 41.5574 73.242C41.5574 73.7367 41.4221 74.2033 41.1514 74.642C40.8901 75.0807 40.5027 75.4353 39.9894 75.706C39.4854 75.9673 38.8881 76.098 38.1974 76.098ZM50.2446 69.168C50.2446 69.6627 50.128 70.1293 49.8946 70.568C49.6613 71.0067 49.288 71.366 48.7746 71.646C48.2613 71.9167 47.6033 72.052 46.8006 72.052H45.0366V76H43.4406V66.27H46.8006C47.5473 66.27 48.1773 66.4007 48.6906 66.662C49.2133 66.914 49.6006 67.2593 49.8526 67.698C50.114 68.1367 50.2446 68.6267 50.2446 69.168ZM46.8006 70.75C47.4073 70.75 47.86 70.6147 48.1586 70.344C48.4573 70.064 48.6066 69.672 48.6066 69.168C48.6066 68.104 48.0046 67.572 46.8006 67.572H45.0366V70.75H46.8006ZM56.2048 76.098C55.2995 76.098 54.4641 75.888 53.6988 75.468C52.9428 75.0387 52.3408 74.446 51.8928 73.69C51.4541 72.9247 51.2348 72.066 51.2348 71.114C51.2348 70.162 51.4541 69.308 51.8928 68.552C52.3408 67.796 52.9428 67.208 53.6988 66.788C54.4641 66.3587 55.2995 66.144 56.2048 66.144C57.1195 66.144 57.9548 66.3587 58.7108 66.788C59.4761 67.208 60.0781 67.796 60.5168 68.552C60.9555 69.308 61.1748 70.162 61.1748 71.114C61.1748 72.066 60.9555 72.9247 60.5168 73.69C60.0781 74.446 59.4761 75.0387 58.7108 75.468C57.9548 75.888 57.1195 76.098 56.2048 76.098ZM56.2048 74.712C56.8488 74.712 57.4228 74.5673 57.9268 74.278C58.4308 73.9793 58.8228 73.5593 59.1028 73.018C59.3921 72.4673 59.5368 71.8327 59.5368 71.114C59.5368 70.3953 59.3921 69.7653 59.1028 69.224C58.8228 68.6827 58.4308 68.2673 57.9268 67.978C57.4228 67.6887 56.8488 67.544 56.2048 67.544C55.5608 67.544 54.9868 67.6887 54.4828 67.978C53.9788 68.2673 53.5821 68.6827 53.2928 69.224C53.0128 69.7653 52.8728 70.3953 52.8728 71.114C52.8728 71.8327 53.0128 72.4673 53.2928 73.018C53.5821 73.5593 53.9788 73.9793 54.4828 74.278C54.9868 74.5673 55.5608 74.712 56.2048 74.712ZM70.7393 76H69.1433L64.3413 68.734V76H62.7453V66.256H64.3413L69.1433 73.508V66.256H70.7393V76ZM76.0412 76.098C75.3878 76.098 74.7998 75.986 74.2772 75.762C73.7545 75.5287 73.3438 75.202 73.0452 74.782C72.7465 74.362 72.5972 73.872 72.5972 73.312H74.3052C74.3425 73.732 74.5058 74.0773 74.7952 74.348C75.0938 74.6187 75.5092 74.754 76.0412 74.754C76.5918 74.754 77.0212 74.6233 77.3292 74.362C77.6372 74.0913 77.7912 73.746 77.7912 73.326C77.7912 72.9993 77.6932 72.7333 77.4972 72.528C77.3105 72.3227 77.0725 72.164 76.7832 72.052C76.5032 71.94 76.1112 71.8187 75.6072 71.688C74.9725 71.52 74.4545 71.352 74.0532 71.184C73.6612 71.0067 73.3252 70.736 73.0452 70.372C72.7652 70.008 72.6252 69.5227 72.6252 68.916C72.6252 68.356 72.7652 67.866 73.0452 67.446C73.3252 67.026 73.7172 66.704 74.2212 66.48C74.7252 66.256 75.3085 66.144 75.9712 66.144C76.9138 66.144 77.6838 66.382 78.2812 66.858C78.8878 67.3247 79.2238 67.9687 79.2892 68.79H77.5252C77.4972 68.4353 77.3292 68.132 77.0212 67.88C76.7132 67.628 76.3072 67.502 75.8032 67.502C75.3458 67.502 74.9725 67.6187 74.6832 67.852C74.3938 68.0853 74.2492 68.4213 74.2492 68.86C74.2492 69.1587 74.3378 69.406 74.5152 69.602C74.7018 69.7887 74.9352 69.938 75.2152 70.05C75.4952 70.162 75.8778 70.2833 76.3632 70.414C77.0072 70.5913 77.5298 70.7687 77.9312 70.946C78.3418 71.1233 78.6872 71.3987 78.9672 71.772C79.2565 72.136 79.4012 72.626 79.4012 73.242C79.4012 73.7367 79.2658 74.2033 78.9952 74.642C78.7338 75.0807 78.3465 75.4353 77.8332 75.706C77.3292 75.9673 76.7318 76.098 76.0412 76.098ZM85.7224 76.098C84.817 76.098 83.9817 75.888 83.2164 75.468C82.4604 75.0387 81.8584 74.446 81.4104 73.69C80.9717 72.9247 80.7524 72.066 80.7524 71.114C80.7524 70.162 80.9717 69.308 81.4104 68.552C81.8584 67.796 82.4604 67.208 83.2164 66.788C83.9817 66.3587 84.817 66.144 85.7224 66.144C86.637 66.144 87.4724 66.3587 88.2284 66.788C88.9937 67.208 89.5957 67.796 90.0344 68.552C90.473 69.308 90.6924 70.162 90.6924 71.114C90.6924 72.066 90.473 72.9247 90.0344 73.69C89.5957 74.446 88.9937 75.0387 88.2284 75.468C87.4724 75.888 86.637 76.098 85.7224 76.098ZM85.7224 74.712C86.3664 74.712 86.9404 74.5673 87.4444 74.278C87.9484 73.9793 88.3404 73.5593 88.6204 73.018C88.9097 72.4673 89.0544 71.8327 89.0544 71.114C89.0544 70.3953 88.9097 69.7653 88.6204 69.224C88.3404 68.6827 87.9484 68.2673 87.4444 67.978C86.9404 67.6887 86.3664 67.544 85.7224 67.544C85.0784 67.544 84.5044 67.6887 84.0004 67.978C83.4964 68.2673 83.0997 68.6827 82.8104 69.224C82.5304 69.7653 82.3904 70.3953 82.3904 71.114C82.3904 71.8327 82.5304 72.4673 82.8104 73.018C83.0997 73.5593 83.4964 73.9793 84.0004 74.278C84.5044 74.5673 85.0784 74.712 85.7224 74.712ZM97.3169 76L95.0769 72.108H93.8589V76H92.2629V66.27H95.6229C96.3696 66.27 96.9996 66.4007 97.5129 66.662C98.0356 66.9233 98.4229 67.2733 98.6749 67.712C98.9362 68.1507 99.0669 68.6407 99.0669 69.182C99.0669 69.8167 98.8802 70.3953 98.5069 70.918C98.1429 71.4313 97.5782 71.7813 96.8129 71.968L99.2209 76H97.3169ZM93.8589 70.834H95.6229C96.2202 70.834 96.6682 70.6847 96.9669 70.386C97.2749 70.0873 97.4289 69.686 97.4289 69.182C97.4289 68.678 97.2796 68.286 96.9809 68.006C96.6822 67.7167 96.2296 67.572 95.6229 67.572H93.8589V70.834Z" fill="black"/>
<rect x="668" y="51" width="224" height="39" rx="6" fill="black"/>
<path d="M692.132 76L689.572 71.552H688.18V76H686.356V64.88H690.196C691.05 64.88 691.77 65.0293 692.356 65.328C692.954 65.6267 693.396 66.0267 693.684 66.528C693.983 67.0293 694.132 67.5893 694.132 68.208C694.132 68.9333 693.919 69.5947 693.492 70.192C693.076 70.7787 692.431 71.1787 691.556 71.392L694.308 76H692.132ZM688.18 70.096H690.196C690.879 70.096 691.391 69.9253 691.732 69.584C692.084 69.2427 692.26 68.784 692.26 68.208C692.26 67.632 692.09 67.184 691.748 66.864C691.407 66.5333 690.89 66.368 690.196 66.368H688.18V70.096ZM704.546 71.376C704.546 71.7067 704.524 72.0053 704.482 72.272H697.746C697.799 72.976 698.06 73.5413 698.53 73.968C698.999 74.3947 699.575 74.608 700.258 74.608C701.239 74.608 701.932 74.1973 702.338 73.376H704.306C704.039 74.1867 703.554 74.8533 702.85 75.376C702.156 75.888 701.292 76.144 700.258 76.144C699.415 76.144 698.658 75.9573 697.986 75.584C697.324 75.2 696.802 74.6667 696.418 73.984C696.044 73.2907 695.858 72.4907 695.858 71.584C695.858 70.6773 696.039 69.8827 696.402 69.2C696.775 68.5067 697.292 67.9733 697.954 67.6C698.626 67.2267 699.394 67.04 700.258 67.04C701.09 67.04 701.831 67.2213 702.482 67.584C703.132 67.9467 703.639 68.4587 704.002 69.12C704.364 69.7707 704.546 70.5227 704.546 71.376ZM702.642 70.8C702.631 70.128 702.391 69.5893 701.922 69.184C701.452 68.7787 700.871 68.576 700.178 68.576C699.548 68.576 699.01 68.7787 698.562 69.184C698.114 69.5787 697.847 70.1173 697.762 70.8H702.642ZM705.733 71.552C705.733 70.6667 705.914 69.8827 706.277 69.2C706.65 68.5173 707.151 67.9893 707.781 67.616C708.421 67.232 709.13 67.04 709.909 67.04C710.591 67.04 711.194 67.1787 711.717 67.456C712.25 67.7333 712.661 68.0693 712.949 68.464V67.184H714.789V80.192H712.949V74.72C712.661 75.1147 712.245 75.4507 711.701 75.728C711.157 76.0053 710.538 76.144 709.845 76.144C709.087 76.144 708.394 75.952 707.765 75.568C707.146 75.1733 706.65 74.6293 706.277 73.936C705.914 73.232 705.733 72.4373 705.733 71.552ZM712.949 71.584C712.949 70.976 712.821 70.448 712.565 70C712.319 69.552 711.994 69.2107 711.589 68.976C711.183 68.7413 710.746 68.624 710.277 68.624C709.807 68.624 709.37 68.7413 708.965 68.976C708.559 69.2 708.229 69.536 707.973 69.984C707.727 70.4213 707.605 70.944 707.605 71.552C707.605 72.16 707.727 72.6933 707.973 73.152C708.229 73.6107 708.559 73.9627 708.965 74.208C709.381 74.4427 709.818 74.56 710.277 74.56C710.746 74.56 711.183 74.4427 711.589 74.208C711.994 73.9733 712.319 73.632 712.565 73.184C712.821 72.7253 712.949 72.192 712.949 71.584ZM725.168 67.184V76H723.344V74.96C723.056 75.3227 722.678 75.6107 722.208 75.824C721.75 76.0267 721.259 76.128 720.736 76.128C720.043 76.128 719.419 75.984 718.864 75.696C718.32 75.408 717.888 74.9813 717.568 74.416C717.259 73.8507 717.104 73.168 717.104 72.368V67.184H718.912V72.096C718.912 72.8853 719.11 73.4933 719.504 73.92C719.899 74.336 720.438 74.544 721.12 74.544C721.803 74.544 722.342 74.336 722.736 73.92C723.142 73.4933 723.344 72.8853 723.344 72.096V67.184H725.168ZM735.655 71.376C735.655 71.7067 735.634 72.0053 735.591 72.272H728.855C728.908 72.976 729.17 73.5413 729.639 73.968C730.108 74.3947 730.684 74.608 731.367 74.608C732.348 74.608 733.042 74.1973 733.447 73.376H735.415C735.148 74.1867 734.663 74.8533 733.959 75.376C733.266 75.888 732.402 76.144 731.367 76.144C730.524 76.144 729.767 75.9573 729.095 75.584C728.434 75.2 727.911 74.6667 727.527 73.984C727.154 73.2907 726.967 72.4907 726.967 71.584C726.967 70.6773 727.148 69.8827 727.511 69.2C727.884 68.5067 728.402 67.9733 729.063 67.6C729.735 67.2267 730.503 67.04 731.367 67.04C732.199 67.04 732.94 67.2213 733.591 67.584C734.242 67.9467 734.748 68.4587 735.111 69.12C735.474 69.7707 735.655 70.5227 735.655 71.376ZM733.751 70.8C733.74 70.128 733.5 69.5893 733.031 69.184C732.562 68.7787 731.98 68.576 731.287 68.576C730.658 68.576 730.119 68.7787 729.671 69.184C729.223 69.5787 728.956 70.1173 728.871 70.8H733.751ZM740.65 76.144C739.957 76.144 739.333 76.0213 738.778 75.776C738.234 75.52 737.802 75.1787 737.482 74.752C737.162 74.3147 736.991 73.8293 736.97 73.296H738.858C738.89 73.6693 739.066 73.984 739.386 74.24C739.717 74.4853 740.127 74.608 740.618 74.608C741.13 74.608 741.525 74.512 741.802 74.32C742.09 74.1173 742.234 73.8613 742.234 73.552C742.234 73.2213 742.074 72.976 741.754 72.816C741.445 72.656 740.949 72.48 740.266 72.288C739.605 72.1067 739.066 71.9307 738.65 71.76C738.234 71.5893 737.871 71.328 737.562 70.976C737.263 70.624 737.114 70.16 737.114 69.584C737.114 69.1147 737.253 68.688 737.53 68.304C737.807 67.9093 738.202 67.6 738.714 67.376C739.237 67.152 739.834 67.04 740.506 67.04C741.509 67.04 742.314 67.296 742.922 67.808C743.541 68.3093 743.871 68.9973 743.914 69.872H742.09C742.058 69.4773 741.898 69.1627 741.61 68.928C741.322 68.6933 740.933 68.576 740.442 68.576C739.962 68.576 739.594 68.6667 739.338 68.848C739.082 69.0293 738.954 69.2693 738.954 69.568C738.954 69.8027 739.039 70 739.21 70.16C739.381 70.32 739.589 70.448 739.834 70.544C740.079 70.6293 740.442 70.7413 740.922 70.88C741.562 71.0507 742.085 71.2267 742.49 71.408C742.906 71.5787 743.263 71.8347 743.562 72.176C743.861 72.5173 744.015 72.9707 744.026 73.536C744.026 74.0373 743.887 74.4853 743.61 74.88C743.333 75.2747 742.938 75.584 742.426 75.808C741.925 76.032 741.333 76.144 740.65 76.144ZM748.125 68.672V73.552C748.125 73.8827 748.2 74.1227 748.349 74.272C748.509 74.4107 748.776 74.48 749.149 74.48H750.269V76H748.829C748.008 76 747.378 75.808 746.941 75.424C746.504 75.04 746.285 74.416 746.285 73.552V68.672H745.245V67.184H746.285V64.992H748.125V67.184H750.269V68.672H748.125ZM755.498 71.552C755.498 70.6667 755.68 69.8827 756.042 69.2C756.416 68.5173 756.917 67.9893 757.546 67.616C758.186 67.232 758.89 67.04 759.658 67.04C760.352 67.04 760.954 67.1787 761.466 67.456C761.989 67.7227 762.405 68.0587 762.714 68.464V67.184H764.554V76H762.714V74.688C762.405 75.104 761.984 75.4507 761.45 75.728C760.917 76.0053 760.309 76.144 759.626 76.144C758.869 76.144 758.176 75.952 757.546 75.568C756.917 75.1733 756.416 74.6293 756.042 73.936C755.68 73.232 755.498 72.4373 755.498 71.552ZM762.714 71.584C762.714 70.976 762.586 70.448 762.33 70C762.085 69.552 761.76 69.2107 761.354 68.976C760.949 68.7413 760.512 68.624 760.042 68.624C759.573 68.624 759.136 68.7413 758.73 68.976C758.325 69.2 757.994 69.536 757.738 69.984C757.493 70.4213 757.37 70.944 757.37 71.552C757.37 72.16 757.493 72.6933 757.738 73.152C757.994 73.6107 758.325 73.9627 758.73 74.208C759.146 74.4427 759.584 74.56 760.042 74.56C760.512 74.56 760.949 74.4427 761.354 74.208C761.76 73.9733 762.085 73.632 762.33 73.184C762.586 72.7253 762.714 72.192 762.714 71.584ZM772.93 68.48C773.24 68.0747 773.661 67.7333 774.194 67.456C774.728 67.1787 775.33 67.04 776.002 67.04C776.77 67.04 777.469 67.232 778.098 67.616C778.738 67.9893 779.24 68.5173 779.602 69.2C779.965 69.8827 780.146 70.6667 780.146 71.552C780.146 72.4373 779.965 73.232 779.602 73.936C779.24 74.6293 778.738 75.1733 778.098 75.568C777.469 75.952 776.77 76.144 776.002 76.144C775.33 76.144 774.733 76.0107 774.21 75.744C773.688 75.4667 773.261 75.1253 772.93 74.72V80.192H771.106V67.184H772.93V68.48ZM778.29 71.552C778.29 70.944 778.162 70.4213 777.906 69.984C777.661 69.536 777.33 69.2 776.914 68.976C776.509 68.7413 776.072 68.624 775.602 68.624C775.144 68.624 774.706 68.7413 774.29 68.976C773.885 69.2107 773.554 69.552 773.298 70C773.053 70.448 772.93 70.976 772.93 71.584C772.93 72.192 773.053 72.7253 773.298 73.184C773.554 73.632 773.885 73.9733 774.29 74.208C774.706 74.4427 775.144 74.56 775.602 74.56C776.072 74.56 776.509 74.4427 776.914 74.208C777.33 73.9627 777.661 73.6107 777.906 73.152C778.162 72.6933 778.29 72.16 778.29 71.552ZM783.774 68.464C784.041 68.016 784.393 67.6693 784.83 67.424C785.278 67.168 785.806 67.04 786.414 67.04V68.928H785.95C785.235 68.928 784.691 69.1093 784.318 69.472C783.955 69.8347 783.774 70.464 783.774 71.36V76H781.95V67.184H783.774V68.464ZM796.171 71.376C796.171 71.7067 796.149 72.0053 796.107 72.272H789.371C789.424 72.976 789.685 73.5413 790.155 73.968C790.624 74.3947 791.2 74.608 791.883 74.608C792.864 74.608 793.557 74.1973 793.963 73.376H795.931C795.664 74.1867 795.179 74.8533 794.475 75.376C793.781 75.888 792.917 76.144 791.883 76.144C791.04 76.144 790.283 75.9573 789.611 75.584C788.949 75.2 788.427 74.6667 788.043 73.984C787.669 73.2907 787.483 72.4907 787.483 71.584C787.483 70.6773 787.664 69.8827 788.027 69.2C788.4 68.5067 788.917 67.9733 789.579 67.6C790.251 67.2267 791.019 67.04 791.883 67.04C792.715 67.04 793.456 67.2213 794.107 67.584C794.757 67.9467 795.264 68.4587 795.627 69.12C795.989 69.7707 796.171 70.5227 796.171 71.376ZM794.267 70.8C794.256 70.128 794.016 69.5893 793.547 69.184C793.077 68.7787 792.496 68.576 791.803 68.576C791.173 68.576 790.635 68.7787 790.187 69.184C789.739 69.5787 789.472 70.1173 789.387 70.8H794.267ZM801.374 74.368L803.87 67.184H805.806L802.446 76H800.27L796.926 67.184H798.878L801.374 74.368ZM808.112 66.016C807.782 66.016 807.504 65.904 807.28 65.68C807.056 65.456 806.944 65.1787 806.944 64.848C806.944 64.5173 807.056 64.24 807.28 64.016C807.504 63.792 807.782 63.68 808.112 63.68C808.432 63.68 808.704 63.792 808.928 64.016C809.152 64.24 809.264 64.5173 809.264 64.848C809.264 65.1787 809.152 65.456 808.928 65.68C808.704 65.904 808.432 66.016 808.112 66.016ZM809.008 67.184V76H807.184V67.184H809.008ZM819.483 71.376C819.483 71.7067 819.462 72.0053 819.419 72.272H812.683C812.736 72.976 812.998 73.5413 813.467 73.968C813.936 74.3947 814.512 74.608 815.195 74.608C816.176 74.608 816.87 74.1973 817.275 73.376H819.243C818.976 74.1867 818.491 74.8533 817.787 75.376C817.094 75.888 816.23 76.144 815.195 76.144C814.352 76.144 813.595 75.9573 812.923 75.584C812.262 75.2 811.739 74.6667 811.355 73.984C810.982 73.2907 810.795 72.4907 810.795 71.584C810.795 70.6773 810.976 69.8827 811.339 69.2C811.712 68.5067 812.23 67.9733 812.891 67.6C813.563 67.2267 814.331 67.04 815.195 67.04C816.027 67.04 816.768 67.2213 817.419 67.584C818.07 67.9467 818.576 68.4587 818.939 69.12C819.302 69.7707 819.483 70.5227 819.483 71.376ZM817.579 70.8C817.568 70.128 817.328 69.5893 816.859 69.184C816.39 68.7787 815.808 68.576 815.115 68.576C814.486 68.576 813.947 68.7787 813.499 69.184C813.051 69.5787 812.784 70.1173 812.699 70.8H817.579ZM833.118 67.184L830.382 76H828.462L826.686 69.488L824.91 76H822.99L820.238 67.184H822.094L823.934 74.272L825.806 67.184H827.71L829.502 74.24L831.326 67.184H833.118Z" fill="white"/>
<path d="M871.707 71.7071C872.098 71.3166 872.098 70.6834 871.707 70.2929L865.343 63.9289C864.953 63.5384 864.319 63.5384 863.929 63.9289C863.538 64.3195 863.538 64.9526 863.929 65.3431L869.586 71L863.929 76.6569C863.538 77.0474 863.538 77.6805 863.929 78.0711C864.319 78.4616 864.953 78.4616 865.343 78.0711L871.707 71.7071ZM852 72H871V70H852V72Z" fill="white"/>
</svg>
