<?xml version="1.0" standalone="no"?>
<!DOCTYPE svg PUBLIC "-//W3C//DTD SVG 20010904//EN"
 "http://www.w3.org/TR/2001/REC-SVG-20010904/DTD/svg10.dtd">
<svg version="1.0" xmlns="http://www.w3.org/2000/svg"
 width="1024.000000pt" height="1024.000000pt" viewBox="0 0 1024.000000 1024.000000"
 preserveAspectRatio="xMidYMid meet">
<metadata>
Created by potrace 1.11, written by Peter Selinger 2001-2013
</metadata>
<g transform="translate(0.000000,1024.000000) scale(0.100000,-0.100000)"
fill="#000000" stroke="none">
<path d="M4368 10130 c-61 -11 -108 -40 -141 -87 -28 -42 -61 -135 -71 -203
-4 -25 -22 -126 -41 -225 -18 -99 -38 -220 -43 -270 -17 -154 -83 -600 -90
-606 -11 -10 -563 -242 -576 -242 -6 0 -210 157 -452 349 -242 193 -457 361
-478 374 -104 63 -210 33 -351 -100 -33 -31 -96 -83 -140 -116 -93 -69 -300
-273 -544 -537 -327 -355 -390 -449 -377 -565 8 -65 32 -104 156 -252 104
-125 402 -513 518 -677 l73 -102 -76 -144 c-53 -102 -90 -189 -125 -300 -50
-153 -50 -155 -82 -161 -18 -3 -287 -44 -598 -91 -311 -47 -583 -92 -605 -101
-54 -21 -72 -39 -109 -109 l-31 -60 0 -790 0 -790 30 -44 c60 -88 68 -90 742
-193 329 -50 600 -92 601 -94 2 -1 14 -45 28 -96 34 -135 64 -212 156 -396
l81 -163 -35 -37 c-19 -20 -75 -89 -123 -152 -49 -63 -139 -178 -200 -255 -61
-77 -131 -169 -155 -205 -24 -36 -75 -102 -113 -147 -52 -62 -74 -98 -88 -144
-41 -132 -20 -197 118 -369 189 -235 897 -930 1030 -1011 48 -29 65 -33 115
-32 73 1 65 -4 620 429 l427 334 150 -74 c82 -42 209 -98 282 -126 73 -28 134
-52 136 -53 1 -2 45 -268 98 -592 52 -325 103 -614 113 -644 14 -44 28 -63 74
-102 53 -44 61 -48 130 -54 40 -3 393 -5 783 -3 l710 3 55 32 c31 17 65 42 77
55 32 34 70 178 88 334 9 76 17 140 19 143 9 15 75 435 81 516 7 95 33 306 38
311 2 2 70 28 153 58 82 30 215 86 297 124 l147 71 438 -348 c240 -191 457
-361 482 -377 25 -17 63 -34 85 -37 50 -8 130 15 165 47 14 13 61 47 105 76
44 29 130 101 190 159 61 59 131 122 156 141 25 19 64 59 85 88 21 30 64 77
94 104 88 80 287 297 338 368 25 36 67 88 92 115 76 82 102 130 108 201 4 54
1 69 -24 118 -15 31 -52 84 -82 118 -30 34 -72 87 -95 117 -113 157 -345 461
-378 498 -21 23 -52 66 -68 96 -17 29 -46 71 -64 92 l-34 39 48 101 c41 86
137 325 185 461 l15 41 612 92 c337 51 623 99 637 106 33 18 100 116 111 163
11 46 11 1502 0 1558 -4 23 -26 65 -50 96 -39 53 -46 57 -109 72 -37 9 -317
54 -622 102 -305 47 -558 89 -562 92 -3 4 -40 93 -82 197 -41 105 -100 246
-130 314 l-55 125 38 45 c20 25 52 73 70 106 19 33 57 87 85 120 29 33 77 96
108 140 31 44 97 130 148 190 51 61 105 135 120 165 15 30 43 69 60 85 72 67
107 156 92 237 -6 29 -28 70 -69 125 -34 45 -75 106 -92 135 -53 93 -905 937
-1010 1003 -59 36 -178 21 -231 -29 -28 -27 -649 -508 -871 -674 l-56 -42
-139 63 c-76 35 -204 90 -284 122 -80 32 -149 61 -153 65 -4 4 -51 290 -103
636 l-95 629 -32 33 c-18 18 -54 47 -82 65 l-50 32 -740 2 c-407 0 -761 -3
-787 -7z m1022 -3360 c119 -22 329 -88 441 -139 143 -65 424 -286 520 -408 29
-38 74 -90 100 -118 72 -77 123 -170 188 -342 100 -265 131 -417 131 -638 0
-239 -32 -394 -138 -671 -58 -151 -105 -232 -208 -361 -162 -202 -379 -381
-609 -501 -67 -35 -301 -102 -440 -126 -118 -21 -395 -21 -501 -1 -147 28
-377 97 -453 135 -195 98 -474 328 -622 514 -86 108 -219 386 -276 579 l-28
92 0 325 c0 324 0 325 28 427 30 111 89 258 169 416 85 171 303 398 553 576
89 64 135 88 240 129 262 101 398 129 626 131 127 1 192 -4 279 -19z"/>
</g>
</svg>
