<svg xmlns="http://www.w3.org/2000/svg" viewBox="0 0 82.09 82.06">
  <g>
    <path fill="#fff" d="M44,4a.14.14,0,0,1,.14.14V7.79a4,4,0,0,0,3.17,3.91,29.7,29.7,0,0,1,10,4.16,4,4,0,0,0,2.18.65,4,4,0,0,0,2.83-1.17l2.6-2.6a.12.12,0,0,1,.09,0,.13.13,0,0,1,.1,0l4.15,4.15a.14.14,0,0,1,0,.19l-2.6,2.6a4,4,0,0,0-.52,5,29.65,29.65,0,0,1,4.16,10.08,4,4,0,0,0,3.92,3.17H78a.13.13,0,0,1,.13.14V44a.13.13,0,0,1-.13.13H74.27a4,4,0,0,0-3.92,3.17,29.45,29.45,0,0,1-4.16,10,4,4,0,0,0,.52,5l2.62,2.61a.12.12,0,0,1,0,.09.13.13,0,0,1,0,.1l-4.15,4.15a.14.14,0,0,1-.2,0l-2.61-2.62a4,4,0,0,0-2.83-1.17,3.94,3.94,0,0,0-2.18.65,29.71,29.71,0,0,1-10,4.15,4,4,0,0,0-3.17,3.92v3.7A.14.14,0,0,1,44,78H38.15a.14.14,0,0,1-.14-.14v-3.7a4,4,0,0,0-2.7-3.78l2.94-3A26.71,26.71,0,0,0,49.4,66.28a27.1,27.1,0,0,0,3.66-1.51A26.72,26.72,0,0,0,64.84,53a26,26,0,0,0,1.52-3.67A26.68,26.68,0,0,0,53.08,17.21a27.4,27.4,0,0,0-3.68-1.52,26.78,26.78,0,0,0-16.64,0,27.89,27.89,0,0,0-3.71,1.54A26.72,26.72,0,0,0,17.29,29a27.17,27.17,0,0,0-1.53,3.7A26.8,26.8,0,0,0,14.6,43.81l-2.95,2.94a4,4,0,0,0-3.77-2.67H4.2A.13.13,0,0,1,4.07,44V38.08a.13.13,0,0,1,.13-.14H7.87a4,4,0,0,0,3.91-3.17A29.68,29.68,0,0,1,15.94,24.7a4,4,0,0,0-.52-5l-2.59-2.58a.14.14,0,0,1,0-.19L17,12.77a.14.14,0,0,1,.2,0l2.57,2.58a4,4,0,0,0,5,.52A29.54,29.54,0,0,1,34.84,11.7,4,4,0,0,0,38,7.79V4.14A.14.14,0,0,1,38.15,4H44m0-4H38.15A4.14,4.14,0,0,0,34,4.14V7.79a33.61,33.61,0,0,0-11.43,4.73L20,9.94a4.14,4.14,0,0,0-5.85,0L10,14.09a4.15,4.15,0,0,0,0,5.85l2.59,2.58A33.66,33.66,0,0,0,7.87,33.94H4.2A4.13,4.13,0,0,0,.07,38.08V44A4.13,4.13,0,0,0,4.2,48.08H7.88a33.09,33.09,0,0,0,1.94,6.16l9-9a22.74,22.74,0,0,1,.72-11.28,24.44,24.44,0,0,1,1.3-3.14,22.75,22.75,0,0,1,10-10A21.53,21.53,0,0,1,34,19.49a22.68,22.68,0,0,1,14.14,0A22.8,22.8,0,0,1,61.28,30.78a23.88,23.88,0,0,1,1.3,3.16,22.71,22.71,0,0,1,0,14.14A22.43,22.43,0,0,1,57.07,57a22.6,22.6,0,0,1-5.81,4.21,21.43,21.43,0,0,1-3.11,1.28,22.44,22.44,0,0,1-7.07,1.13,23.23,23.23,0,0,1-4.24-.39l-9,9a34.19,34.19,0,0,0,6.19,2v3.7A4.14,4.14,0,0,0,38.15,82H44a4.14,4.14,0,0,0,4.14-4.14v-3.7a33.71,33.71,0,0,0,11.39-4.72l2.62,2.62a4.14,4.14,0,0,0,5.85,0l4.15-4.15a4.15,4.15,0,0,0,0-5.85l-2.62-2.61a33.79,33.79,0,0,0,4.73-11.4H78A4.13,4.13,0,0,0,82.09,44V38.08A4.13,4.13,0,0,0,78,33.94H74.28a33.81,33.81,0,0,0-4.73-11.43l2.6-2.6a4.15,4.15,0,0,0,0-5.85L68,9.91a4.14,4.14,0,0,0-5.85,0l-2.6,2.6a33.85,33.85,0,0,0-11.4-4.72V4.14A4.14,4.14,0,0,0,44,0Z"/>
    <path fill="#fff" d="M53.84,36.22,48.07,42a5.66,5.66,0,0,1-8,0h0a5.66,5.66,0,0,1,0-8l5.77-5.77a2.26,2.26,0,0,0-1.12-3.81A17,17,0,0,0,25.16,46.9L2.07,70a7.07,7.07,0,0,0,0,10h0a7.07,7.07,0,0,0,10,0L35.16,56.9A17,17,0,0,0,57.65,37.34,2.26,2.26,0,0,0,53.84,36.22Z"/>
  </g>
</svg>
